<svg width="31" height="31" viewBox="0 0 31 31" fill="none" xmlns="http://www.w3.org/2000/svg">
<path d="M15.5 0C6.93959 0 0 6.93959 0 15.5C0 24.0604 6.93959 31 15.5 31C24.0604 31 31 24.0604 31 15.5C30.9909 6.94342 24.0566 0.00914692 15.5 0ZM6.89094 5.36736C9.29502 3.32708 12.3469 2.20934 15.5 2.21433C18.6402 2.21336 21.6782 3.32993 24.0704 5.36418L5.3597 24.0749C0.616606 18.486 1.30217 10.1105 6.89094 5.36736ZM24.1091 25.6327C21.705 27.673 18.6532 28.7907 15.5001 28.7857C12.3599 28.7867 9.32187 27.6701 6.92966 25.6359L25.6404 6.92512C30.3835 12.514 29.6979 20.8896 24.1091 25.6327Z" fill="black"/>
<path d="M15.5001 12.6567C14.1117 12.6567 12.9821 13.8922 12.9821 15.4109C12.9821 16.6691 13.7578 17.7321 14.8134 18.06V26.6276C14.8134 27.0425 15.1208 27.3788 15.5001 27.3788C15.8793 27.3788 16.1868 27.0425 16.1868 26.6276V18.06C17.2424 17.7322 18.018 16.6691 18.018 15.4109C18.018 13.8922 16.8885 12.6567 15.5001 12.6567ZM15.5001 16.6627C14.869 16.6627 14.3555 16.1011 14.3555 15.4109C14.3555 14.7206 14.869 14.159 15.5001 14.159C16.1312 14.159 16.6446 14.7206 16.6446 15.4109C16.6446 16.1011 16.1312 16.6627 15.5001 16.6627Z" fill="black"/>
<path d="M12.3232 11.3951C12.055 11.1018 11.6203 11.1018 11.352 11.3951C9.22299 13.7237 9.22267 17.4933 11.352 19.8223C11.6203 20.1156 12.055 20.1156 12.3232 19.8223C12.5914 19.529 12.5914 19.0534 12.3232 18.76C10.7309 17.0185 10.7307 14.1992 12.3232 12.4574C12.5914 12.164 12.5914 11.6884 12.3232 11.3951Z" fill="black"/>
<path d="M19.648 11.3951C19.3799 11.1018 18.945 11.1018 18.6768 11.3951C18.4087 11.6884 18.4087 12.164 18.6768 12.4574C20.2655 14.195 20.2655 17.0224 18.6768 18.7601C18.4087 19.0533 18.4087 19.529 18.6768 19.8223C18.9451 20.1156 19.3798 20.1156 19.648 19.8223C21.7722 17.499 21.7722 13.7185 19.648 11.3951Z" fill="black"/>
<path d="M10.2513 10.1912C10.5195 9.89791 10.5195 9.4223 10.2513 9.12896C9.98321 8.83567 9.54838 8.83567 9.28019 9.12896C6.01363 12.7019 6.01363 18.5155 9.28019 22.0884C9.54829 22.3817 9.98311 22.3818 10.2513 22.0884C10.5195 21.7951 10.5195 21.3195 10.2513 21.0262C7.52033 18.0389 7.52033 13.1784 10.2513 10.1912Z" fill="black"/>
<path d="M21.7199 9.12896C21.4518 8.83567 21.0169 8.83567 20.7488 9.12896C20.4806 9.42225 20.4806 9.89786 20.7488 10.1912C23.4798 13.1784 23.4798 18.0389 20.7488 21.0262C20.4806 21.3195 20.4806 21.7951 20.7488 22.0884C21.017 22.3817 21.4517 22.3817 21.7199 22.0884C24.9865 18.5155 24.9865 12.7019 21.7199 9.12896Z" fill="black"/>
<path d="M8.17941 7.92506C8.4476 7.63177 8.4476 7.15616 8.17941 6.86282C7.91127 6.56953 7.47645 6.56953 7.20826 6.86282C2.63287 11.8673 2.6428 19.3609 7.20826 24.3545C7.47635 24.6478 7.91118 24.648 8.17941 24.3545C8.4476 24.0613 8.4476 23.5856 8.17941 23.2923C4.17472 18.9119 4.17472 12.3055 8.17941 7.92506Z" fill="black"/>
<path d="M23.7917 6.86282C23.5236 6.56953 23.0887 6.56953 22.8205 6.86282C22.5524 7.15611 22.5524 7.63172 22.8205 7.92506C26.8253 12.3055 26.8253 18.9119 22.8205 23.2923C22.5524 23.5856 22.5524 24.0612 22.8205 24.3545C23.0888 24.6479 23.5235 24.6479 23.7917 24.3545C28.367 19.3501 28.3572 11.8565 23.7917 6.86282Z" fill="black"/>
</svg>
