<svg width="31" height="31" viewBox="0 0 31 31" fill="none" xmlns="http://www.w3.org/2000/svg" xmlns:xlink="http://www.w3.org/1999/xlink">
<path d="M27.3993 0H3.60066C1.61529 0 0 1.426 0 3.17871C0 3.42956 0.230237 3.63281 0.514381 3.63281H6.17257V26.0049C6.17257 26.2557 6.4028 26.459 6.68695 26.459C6.97109 26.459 7.20133 26.2557 7.20133 26.0049V3.63281H24.3131C24.5972 3.63281 24.8274 3.42956 24.8274 3.17871C24.8274 1.92672 25.9812 0.908203 27.3993 0.908203C28.8175 0.908203 29.9712 1.92672 29.9712 3.17871V27.8213C29.9712 29.0733 28.8175 30.0918 27.3993 30.0918C25.9812 30.0918 24.8274 29.0733 24.8274 27.8213C24.8274 27.5704 24.5972 27.3672 24.3131 27.3672H0.514381C0.230237 27.3672 0 27.5704 0 27.8213C0 29.574 1.61529 31 3.60066 31H27.3993C29.3847 31 31 29.574 31 27.8213V3.17871C31 1.426 29.3847 0 27.3993 0ZM23.8353 2.72461H1.0804C1.31942 1.6895 2.35867 0.908203 3.60066 0.908203H24.8818C24.3297 1.38543 23.9503 2.01785 23.8353 2.72461ZM3.60066 30.0918C2.35867 30.0918 1.31942 29.3105 1.0804 28.2754H23.8353C23.9503 28.9822 24.3297 29.6146 24.8818 30.0918H3.60066Z" fill="black"/>
<rect width="22.5226" height="22.5009" transform="matrix(0.999456 0.0329949 -0.0352285 0.999379 3.50366 5.63498)" fill="url(#pattern1)"/>
<defs>
<pattern id="pattern0" patternContentUnits="objectBoundingBox" width="1" height="1">
<use xlink:href="#image0" transform="translate(0 -0.000482667) scale(0.00195312)"/>
</pattern>
<pattern id="pattern1" patternContentUnits="objectBoundingBox" width="1" height="1">
<use xlink:href="#image0" transform="translate(0 -0.000482667) scale(0.00195312)"/>
</pattern>
</defs>
</svg>
