<svg width="31" height="30" viewBox="0 0 31 30" fill="none" xmlns="http://www.w3.org/2000/svg" xmlns:xlink="http://www.w3.org/1999/xlink">
<path d="M15.5 8.99069C13.6637 8.99069 12.1698 10.8378 12.1698 13.1081C12.1698 14.9891 13.1957 16.5784 14.5918 17.0686V29.8771C14.5918 30.4972 14.9984 31 15.5 31C16.0016 31 16.4082 30.4972 16.4082 29.8771V17.0686C17.8043 16.5784 18.8302 14.9891 18.8302 13.1081C18.8302 10.8378 17.3363 8.99069 15.5 8.99069ZM15.5 14.9796C14.6653 14.9796 13.9863 14.1401 13.9863 13.1081C13.9863 12.0761 14.6653 11.2365 15.5 11.2365C16.3347 11.2365 17.0137 12.0761 17.0137 13.1081C17.0137 14.1401 16.3347 14.9796 15.5 14.9796Z" fill="black"/>
<path d="M11.2983 7.10459C10.9437 6.66605 10.3686 6.66605 10.0139 7.10459C7.19806 10.5859 7.19763 16.2213 10.0139 19.7031C10.3686 20.1417 10.9436 20.1417 11.2983 19.7031C11.653 19.2647 11.653 18.5536 11.2983 18.1151C9.19242 15.5115 9.19206 11.2967 11.2983 8.69263C11.653 8.25409 11.653 7.54305 11.2983 7.10459Z" fill="black"/>
<path d="M20.986 7.1046C20.6314 6.66614 20.0563 6.66614 19.7016 7.1046C19.3469 7.54307 19.3469 8.2541 19.7016 8.69264C21.8027 11.2904 21.8027 15.5173 19.7016 18.1151C19.3469 18.5536 19.3469 19.2646 19.7016 19.7031C20.0563 20.1417 20.6313 20.1417 20.986 19.7031C23.7954 16.2298 23.7954 10.578 20.986 7.1046Z" fill="black"/>
<path d="M8.55809 5.30475C8.91279 4.86628 8.91279 4.15525 8.55809 3.71671C8.20346 3.27824 7.62836 3.27824 7.27367 3.71671C2.95337 9.05823 2.95337 17.7494 7.27367 23.091C7.62824 23.5294 8.20334 23.5297 8.55809 23.091C8.91279 22.6525 8.91279 21.9415 8.55809 21.5029C4.9461 17.0371 4.9461 9.77062 8.55809 5.30475Z" fill="black"/>
<path d="M23.7262 3.71671C23.3716 3.27824 22.7965 3.27824 22.4418 3.71671C22.0871 4.15517 22.0871 4.86621 22.4418 5.30475C26.0538 9.77062 26.0538 17.0371 22.4418 21.5029C22.0871 21.9414 22.0871 22.6524 22.4418 23.091C22.7966 23.5295 23.3715 23.5295 23.7262 23.091C28.0465 17.7494 28.0465 9.05824 23.7262 3.71671Z" fill="black"/>
<path d="M5.818 1.91689C6.17269 1.47842 6.17269 0.767388 5.818 0.328848C5.46336 -0.109616 4.88827 -0.109616 4.53357 0.328848C-1.51776 7.81052 -1.50462 19.0133 4.53357 26.4788C4.88815 26.9173 5.46324 26.9175 5.818 26.4788C6.17269 26.0404 6.17269 25.3293 5.818 24.8908C0.521472 18.3421 0.521472 8.46556 5.818 1.91689Z" fill="black"/>
<path d="M26.4664 0.328848C26.1118 -0.109616 25.5367 -0.109616 25.182 0.328848C24.8273 0.767313 24.8273 1.47835 25.182 1.91689C30.4787 8.46556 30.4787 18.3421 25.182 24.8908C24.8273 25.3293 24.8273 26.0403 25.182 26.4788C25.5368 26.9174 26.1117 26.9174 26.4664 26.4788C32.5177 18.9972 32.5047 7.79435 26.4664 0.328848Z" fill="black"/><rect width="22.5226" height="22.5009" transform="matrix(0.999456 0.0329949 -0.0352285 0.999379 3.50366 5.63498)" fill="url(#pattern0)"/>
<rect width="22.5226" height="22.5009" transform="matrix(0.999456 0.0329949 -0.0352285 0.999379 3.50366 5.63498)" fill="url(#pattern1)"/>
<defs>
<pattern id="pattern0" patternContentUnits="objectBoundingBox" width="1" height="1">
<use xlink:href="#image0" transform="translate(0 -0.000482667) scale(0.00195312)"/>
</pattern>
<pattern id="pattern1" patternContentUnits="objectBoundingBox" width="1" height="1">
<use xlink:href="#image0" transform="translate(0 -0.000482667) scale(0.00195312)"/>
</pattern>
</defs>
</svg>
