<svg width="1440" height="900" viewBox="0 0 1440 900" fill="none" xmlns="http://www.w3.org/2000/svg">
<path d="M136.648 713.933C130.591 723.161 120.953 729.903 116.184 739.813C110.573 751.47 95.3562 757.909 87.8 768.569C83.1702 775.1 80.1939 780.942 74.9874 786.952C70.1585 792.525 63.509 798.044 59.7725 804.513" stroke="white" stroke-linecap="round" stroke-linejoin="round"/>
<path d="M138.25 712.084C142.763 716.031 150.021 722.619 152.664 728.721" stroke="white" stroke-linecap="round" stroke-linejoin="round"/>
<path d="M152.664 728.721C156.326 725.419 161.757 720.67 163.875 715.781" stroke="white" stroke-linecap="round" stroke-linejoin="round"/>
<path d="M165.477 743.51C169.594 749.593 172.91 753.346 178.29 756.45" stroke="white" stroke-linecap="round" stroke-linejoin="round"/>
<path d="M61.3741 798.967C52.4773 805.385 45.6657 814.237 39.308 823.41C38.1414 825.093 35.8492 829.028 35.0371 831.215C34.1231 833.676 39.2689 833.634 40.9096 835.528C45.4958 840.822 50.7265 845.01 55.3237 850.317C59.5146 855.154 63.9211 863.415 69.382 865.516" stroke="white" stroke-linecap="round" stroke-linejoin="round"/>
<path d="M42.155 835.939C37.929 841.851 29.073 846.858 36.5494 851.652C39.4629 853.52 42.6642 853.686 45.0022 856.684C46.4711 858.568 49.1921 868.303 51.7644 864.592C54.5024 860.642 61.0573 860.701 62.9755 856.273" stroke="white" stroke-linecap="round" stroke-linejoin="round"/>
<path d="M37.3504 854.425C29.6881 863.269 17.6192 873.135 12.0811 884.002C9.43764 889.189 2.95806 891.3 0.51416 896.942" stroke="white" stroke-linecap="round" stroke-linejoin="round"/>
<path d="M0.514364 896.942C9.99566 885.656 19.2804 878.053 29.4317 868.289C30.8417 866.933 36.8082 866.321 37.2616 864.489C38.4549 859.669 36.1713 862.116 40.5538 861.819C42.2398 861.704 45.1136 857.089 43.7569 859.046C42.8033 860.422 40.0281 861.769 38.5963 863.257C31.0197 871.127 23.341 878.822 15.7293 885.85C13.0789 888.298 6.38812 897.35 6.56476 896.942C9.32141 890.578 15.9009 878.859 21.3349 875.17C25.3646 872.434 28.8781 868.408 33.3467 867.262C35.3001 866.761 40.965 861.852 35.3931 864.078C31.1502 865.774 29.2794 870.889 25.3388 872.91C20.59 875.346 18.5641 883.732 13.327 887.288C8.76895 890.383 4.7681 895.202 0.87027 899.201C-3.22948 903.407 8.29877 889.87 11.7254 884.926C14.6567 880.697 21.2381 876.464 25.3388 873.835C26.4738 873.107 34.7631 865.2 33.7916 864.078C32.2047 862.247 19.5156 868.415 30.9443 861.819" stroke="white" stroke-linecap="round" stroke-linejoin="round"/>
<path d="M136.648 713.933C130.591 723.161 120.953 729.903 116.184 739.813C110.573 751.47 95.3562 757.909 87.8 768.569C83.1702 775.1 80.1939 780.942 74.9874 786.952C70.1585 792.525 63.509 798.044 59.7725 804.513" stroke="white" stroke-linecap="round" stroke-linejoin="round"/>
<path d="M138.25 712.084C142.763 716.031 150.021 722.619 152.664 728.721" stroke="white" stroke-linecap="round" stroke-linejoin="round"/>
<path d="M152.664 728.721C156.326 725.419 161.757 720.67 163.875 715.781" stroke="white" stroke-linecap="round" stroke-linejoin="round"/>
<path d="M165.477 743.51C169.594 749.593 172.91 753.346 178.29 756.45" stroke="white" stroke-linecap="round" stroke-linejoin="round"/>
<path d="M61.3741 798.967C52.4773 805.385 45.6657 814.237 39.308 823.41C38.1414 825.093 35.8492 829.028 35.0371 831.215C34.1231 833.676 39.2689 833.634 40.9096 835.528C45.4958 840.822 50.7265 845.01 55.3237 850.317C59.5146 855.154 63.9211 863.415 69.382 865.516" stroke="white" stroke-linecap="round" stroke-linejoin="round"/>
<path d="M42.155 835.939C37.929 841.851 29.073 846.858 36.5494 851.652C39.4629 853.52 42.6642 853.686 45.0022 856.684C46.4711 858.568 49.1921 868.303 51.7644 864.592C54.5024 860.642 61.0573 860.701 62.9755 856.273" stroke="white" stroke-linecap="round" stroke-linejoin="round"/>
<path d="M37.3504 854.425C29.6881 863.269 17.6192 873.135 12.0811 884.002C9.43764 889.189 2.95806 891.3 0.51416 896.942" stroke="white" stroke-linecap="round" stroke-linejoin="round"/>
<path d="M0.514364 896.942C9.99566 885.656 19.2804 878.053 29.4317 868.289C30.8417 866.933 36.8082 866.321 37.2616 864.489C38.4549 859.669 36.1713 862.116 40.5538 861.819C42.2398 861.704 45.1136 857.089 43.7569 859.046C42.8033 860.422 40.0281 861.769 38.5963 863.257C31.0197 871.127 23.341 878.822 15.7293 885.85C13.0789 888.298 6.38812 897.35 6.56476 896.942C9.32141 890.578 15.9009 878.859 21.3349 875.17C25.3646 872.434 28.8781 868.408 33.3467 867.262C35.3001 866.761 40.965 861.852 35.3931 864.078C31.1502 865.774 29.2794 870.889 25.3388 872.91C20.59 875.346 18.5641 883.732 13.327 887.288C8.76895 890.383 4.7681 895.202 0.87027 899.201C-3.22948 903.407 8.29877 889.87 11.7254 884.926C14.6567 880.697 21.2381 876.464 25.3388 873.835C26.4738 873.107 34.7631 865.2 33.7916 864.078C32.2047 862.247 19.5156 868.415 30.9443 861.819" stroke="white" stroke-linecap="round" stroke-linejoin="round"/>
<path d="M171.883 752.753C162.095 761.312 149.023 770.484 141.453 781.406C133.952 792.229 122.706 803.338 113.426 811.907C108.475 816.479 105.424 823.714 101.058 828.955C98.8423 831.615 94.6854 835.389 93.406 838.712C91.7786 842.938 87.6176 843.159 85.754 847.03C83.3456 852.034 65.5965 869.717 64.5776 867.365" stroke="white" stroke-linecap="round" stroke-linejoin="round"/>
<path d="M165.476 739.813C168.096 747.184 168.589 749.387 164.231 743.099C163.264 741.705 160.166 738.408 161.028 739.402C163.243 741.96 170.181 730.57 173.484 730.57" stroke="white" stroke-linecap="round" stroke-linejoin="round"/>
<path d="M163.875 715.781C156.203 709.073 150.852 702.526 145.012 695.036C136.934 684.677 150.999 685.651 155.867 692.674C164.125 704.588 178.253 706.506 185.051 721.327C186.656 724.826 213.587 752.072 206.228 754.499C199.628 756.675 179.568 739.069 176.688 732.419" stroke="white" stroke-linecap="round" stroke-linejoin="round"/>
<path d="M200.821 313.083C194.764 322.312 185.126 329.054 180.356 338.963C174.746 350.62 159.529 357.059 151.973 367.719C147.343 374.25 144.367 380.093 139.16 386.102C134.331 391.676 127.682 397.194 123.945 403.663" stroke="white" stroke-linecap="round" stroke-linejoin="round"/>
<path d="M202.423 311.235C206.936 315.181 214.194 321.77 216.837 327.872" stroke="white" stroke-linecap="round" stroke-linejoin="round"/>
<path d="M216.836 327.872C220.499 324.569 225.93 319.821 228.047 314.932" stroke="white" stroke-linecap="round" stroke-linejoin="round"/>
<path d="M229.65 342.661C233.767 348.743 237.083 352.496 242.463 355.601" stroke="white" stroke-linecap="round" stroke-linejoin="round"/>
<path d="M125.547 398.118C116.651 404.536 109.839 413.387 103.481 422.56C102.315 424.243 100.022 428.178 99.2104 430.365C98.2965 432.827 103.442 432.785 105.083 434.678C109.669 439.972 114.9 444.161 119.497 449.467C123.688 454.304 128.094 462.565 133.555 464.666" stroke="white" stroke-linecap="round" stroke-linejoin="round"/>
<path d="M106.328 435.089C102.102 441.002 93.2458 446.008 100.722 450.802C103.636 452.67 106.837 452.836 109.175 455.834C110.644 457.718 113.365 467.453 115.937 463.742C118.675 459.792 125.23 459.851 127.148 455.424" stroke="white" stroke-linecap="round" stroke-linejoin="round"/>
<path d="M101.524 453.575C93.8615 462.419 81.7925 472.286 76.2544 483.152C73.611 488.339 67.1314 490.451 64.6875 496.092" stroke="white" stroke-linecap="round" stroke-linejoin="round"/>
<path d="M64.6872 496.092C74.1685 484.807 83.4532 477.203 93.6046 467.439C95.0145 466.083 100.981 465.471 101.434 463.639C102.628 458.819 100.344 461.267 104.727 460.969C106.413 460.855 109.286 456.239 107.93 458.196C106.976 459.572 104.201 460.92 102.769 462.407C95.1926 470.278 87.5138 477.972 79.9022 485.001C77.2518 487.448 70.561 496.5 70.7376 496.092C73.4943 489.729 80.0737 478.01 85.5077 474.32C89.5374 471.584 93.051 467.559 97.5195 466.412C99.473 465.911 105.138 461.003 99.566 463.229C95.323 464.924 93.4523 470.039 89.5116 472.061C84.7628 474.497 82.737 482.883 77.4998 486.439C72.9418 489.533 68.941 494.353 65.0431 498.352C60.9434 502.558 72.4716 489.02 75.8982 484.077C78.8295 479.847 85.4109 475.615 89.5116 472.985C90.6466 472.257 98.9359 464.35 97.9644 463.229C96.3776 461.397 83.6884 467.565 95.1172 460.969" stroke="white" stroke-linecap="round" stroke-linejoin="round"/>
<path d="M200.821 313.083C194.764 322.312 185.126 329.054 180.356 338.963C174.746 350.62 159.529 357.059 151.973 367.719C147.343 374.25 144.367 380.093 139.16 386.102C134.331 391.676 127.682 397.194 123.945 403.663" stroke="white" stroke-linecap="round" stroke-linejoin="round"/>
<path d="M202.423 311.235C206.936 315.181 214.194 321.77 216.837 327.872" stroke="white" stroke-linecap="round" stroke-linejoin="round"/>
<path d="M216.836 327.872C220.499 324.569 225.93 319.821 228.047 314.932" stroke="white" stroke-linecap="round" stroke-linejoin="round"/>
<path d="M229.65 342.661C233.767 348.743 237.083 352.496 242.463 355.601" stroke="white" stroke-linecap="round" stroke-linejoin="round"/>
<path d="M125.547 398.118C116.651 404.536 109.839 413.387 103.481 422.56C102.315 424.243 100.022 428.178 99.2104 430.365C98.2965 432.827 103.442 432.785 105.083 434.678C109.669 439.972 114.9 444.161 119.497 449.467C123.688 454.304 128.094 462.565 133.555 464.666" stroke="white" stroke-linecap="round" stroke-linejoin="round"/>
<path d="M106.328 435.089C102.102 441.002 93.2458 446.008 100.722 450.802C103.636 452.67 106.837 452.836 109.175 455.834C110.644 457.718 113.365 467.453 115.937 463.742C118.675 459.792 125.23 459.851 127.148 455.424" stroke="white" stroke-linecap="round" stroke-linejoin="round"/>
<path d="M101.524 453.575C93.8615 462.419 81.7925 472.286 76.2544 483.152C73.611 488.339 67.1314 490.451 64.6875 496.092" stroke="white" stroke-linecap="round" stroke-linejoin="round"/>
<path d="M64.6872 496.092C74.1685 484.807 83.4532 477.203 93.6046 467.439C95.0145 466.083 100.981 465.471 101.434 463.639C102.628 458.819 100.344 461.267 104.727 460.969C106.413 460.855 109.286 456.239 107.93 458.196C106.976 459.572 104.201 460.92 102.769 462.407C95.1926 470.278 87.5138 477.972 79.9022 485.001C77.2518 487.448 70.561 496.5 70.7376 496.092C73.4943 489.729 80.0737 478.01 85.5077 474.32C89.5374 471.584 93.051 467.559 97.5195 466.412C99.473 465.911 105.138 461.003 99.566 463.229C95.323 464.924 93.4523 470.039 89.5116 472.061C84.7628 474.497 82.737 482.883 77.4998 486.439C72.9418 489.533 68.941 494.353 65.0431 498.352C60.9434 502.558 72.4716 489.02 75.8982 484.077C78.8295 479.847 85.4109 475.615 89.5116 472.985C90.6466 472.257 98.9359 464.35 97.9644 463.229C96.3776 461.397 83.6884 467.565 95.1172 460.969" stroke="white" stroke-linecap="round" stroke-linejoin="round"/>
<path d="M236.056 351.903C226.268 360.462 213.196 369.635 205.626 380.556C198.124 391.38 186.879 402.488 177.599 411.058C172.648 415.629 169.597 422.864 165.231 428.106C163.015 430.765 158.858 434.54 157.579 437.862C155.951 442.088 151.79 442.309 149.927 446.181C147.518 451.184 129.769 468.867 128.75 466.515" stroke="white" stroke-linecap="round" stroke-linejoin="round"/>
<path d="M229.649 338.963C232.269 346.335 232.762 348.537 228.404 342.25C227.437 340.856 224.339 337.558 225.2 338.553C227.416 341.11 234.354 329.72 237.657 329.72" stroke="white" stroke-linecap="round" stroke-linejoin="round"/>
<path d="M228.048 314.932C220.376 308.223 215.025 301.677 209.185 294.187C201.107 283.828 215.172 284.801 220.04 291.825C228.298 303.739 242.426 305.657 249.224 320.478C250.829 323.977 277.76 351.222 270.401 353.649C263.801 355.826 243.741 338.219 240.86 331.569" stroke="white" stroke-linecap="round" stroke-linejoin="round"/>
<path d="M882.188 672.541C876.131 681.769 866.493 688.511 861.724 698.421C856.113 710.078 840.896 716.517 833.34 727.176C828.71 733.708 825.734 739.55 820.527 745.56C815.699 751.133 809.049 756.652 805.312 763.121" stroke="white" stroke-linecap="round" stroke-linejoin="round"/>
<path d="M883.79 670.692C888.303 674.638 895.561 681.227 898.204 687.329" stroke="white" stroke-linecap="round" stroke-linejoin="round"/>
<path d="M898.204 687.329C901.866 684.027 907.297 679.278 909.415 674.389" stroke="white" stroke-linecap="round" stroke-linejoin="round"/>
<path d="M911.017 702.118C915.134 708.201 918.45 711.953 923.83 715.058" stroke="white" stroke-linecap="round" stroke-linejoin="round"/>
<path d="M806.915 757.575C798.018 763.993 791.206 772.845 784.849 782.018C783.682 783.701 781.39 787.636 780.578 789.823C779.664 792.284 784.809 792.242 786.45 794.136C791.036 799.43 796.267 803.618 800.864 808.925C805.055 813.762 809.462 822.023 814.923 824.124" stroke="white" stroke-linecap="round" stroke-linejoin="round"/>
<path d="M787.695 794.547C783.469 800.459 774.614 805.466 782.09 810.26C785.003 812.128 788.205 812.294 790.543 815.292C792.012 817.176 794.733 826.911 797.305 823.2C800.043 819.249 806.598 819.309 808.516 814.881" stroke="white" stroke-linecap="round" stroke-linejoin="round"/>
<path d="M782.891 813.032C775.229 821.876 763.16 831.743 757.622 842.61C754.978 847.797 748.499 849.908 746.055 855.55" stroke="white" stroke-linecap="round" stroke-linejoin="round"/>
<path d="M746.055 855.55C755.536 844.264 764.821 836.661 774.972 826.897C776.382 825.541 782.349 824.929 782.802 823.097C783.995 818.277 781.712 820.724 786.094 820.427C787.78 820.312 790.654 815.697 789.297 817.654C788.344 819.03 785.569 820.377 784.137 821.865C776.56 829.735 768.881 837.43 761.27 844.458C758.619 846.906 751.929 855.958 752.105 855.55C754.862 849.186 761.441 837.467 766.875 833.778C770.905 831.042 774.419 827.016 778.887 825.87C780.841 825.369 786.506 820.46 780.934 822.686C776.691 824.381 774.82 829.497 770.879 831.518C766.131 833.954 764.105 842.34 758.867 845.896C754.309 848.991 750.309 853.81 746.411 857.809C742.311 862.015 753.839 848.478 757.266 843.534C760.197 839.305 766.779 835.072 770.879 832.443C772.014 831.715 780.304 823.808 779.332 822.686C777.745 820.855 765.056 827.022 776.485 820.427" stroke="white" stroke-linecap="round" stroke-linejoin="round"/>
<path d="M882.188 672.541C876.131 681.769 866.493 688.511 861.724 698.421C856.113 710.078 840.896 716.517 833.34 727.176C828.71 733.708 825.734 739.55 820.527 745.56C815.699 751.133 809.049 756.652 805.312 763.121" stroke="white" stroke-linecap="round" stroke-linejoin="round"/>
<path d="M883.79 670.692C888.303 674.638 895.561 681.227 898.204 687.329" stroke="white" stroke-linecap="round" stroke-linejoin="round"/>
<path d="M898.204 687.329C901.866 684.027 907.297 679.278 909.415 674.389" stroke="white" stroke-linecap="round" stroke-linejoin="round"/>
<path d="M911.017 702.118C915.134 708.201 918.45 711.953 923.83 715.058" stroke="white" stroke-linecap="round" stroke-linejoin="round"/>
<path d="M806.915 757.575C798.018 763.993 791.206 772.845 784.849 782.018C783.682 783.701 781.39 787.636 780.578 789.823C779.664 792.284 784.809 792.242 786.45 794.136C791.036 799.43 796.267 803.618 800.864 808.925C805.055 813.762 809.462 822.023 814.923 824.124" stroke="white" stroke-linecap="round" stroke-linejoin="round"/>
<path d="M787.695 794.547C783.469 800.459 774.614 805.466 782.09 810.26C785.003 812.128 788.205 812.294 790.543 815.292C792.012 817.176 794.733 826.911 797.305 823.2C800.043 819.249 806.598 819.309 808.516 814.881" stroke="white" stroke-linecap="round" stroke-linejoin="round"/>
<path d="M782.891 813.032C775.229 821.876 763.16 831.743 757.622 842.61C754.978 847.797 748.499 849.908 746.055 855.55" stroke="white" stroke-linecap="round" stroke-linejoin="round"/>
<path d="M746.055 855.55C755.536 844.264 764.821 836.661 774.972 826.897C776.382 825.541 782.349 824.929 782.802 823.097C783.995 818.277 781.712 820.724 786.094 820.427C787.78 820.312 790.654 815.697 789.297 817.654C788.344 819.03 785.569 820.377 784.137 821.865C776.56 829.735 768.881 837.43 761.27 844.458C758.619 846.906 751.929 855.958 752.105 855.55C754.862 849.186 761.441 837.467 766.875 833.778C770.905 831.042 774.419 827.016 778.887 825.87C780.841 825.369 786.506 820.46 780.934 822.686C776.691 824.381 774.82 829.497 770.879 831.518C766.131 833.954 764.105 842.34 758.867 845.896C754.309 848.991 750.309 853.81 746.411 857.809C742.311 862.015 753.839 848.478 757.266 843.534C760.197 839.305 766.779 835.072 770.879 832.443C772.014 831.715 780.304 823.808 779.332 822.686C777.745 820.855 765.056 827.022 776.485 820.427" stroke="white" stroke-linecap="round" stroke-linejoin="round"/>
<path d="M917.424 711.361C907.635 719.92 894.564 729.092 886.994 740.014C879.492 750.837 868.247 761.946 858.966 770.515C854.015 775.087 850.965 782.322 846.599 787.563C844.383 790.223 840.226 793.997 838.947 797.32C837.319 801.546 833.158 801.766 831.295 805.638C828.886 810.642 811.137 828.324 810.118 825.973" stroke="white" stroke-linecap="round" stroke-linejoin="round"/>
<path d="M911.016 698.421C913.637 705.792 914.129 707.995 909.771 701.707C908.804 700.313 905.706 697.015 906.568 698.01C908.783 700.567 915.721 689.178 919.024 689.178" stroke="white" stroke-linecap="round" stroke-linejoin="round"/>
<path d="M909.415 674.389C901.743 667.681 896.392 661.134 890.552 653.644C882.475 643.285 896.539 644.259 901.407 651.282C909.665 663.196 923.793 665.114 930.591 679.935C932.196 683.434 959.127 710.68 951.768 713.107C945.168 715.283 925.108 697.677 922.228 691.027" stroke="white" stroke-linecap="round" stroke-linejoin="round"/>
<path d="M1186.07 26.6065C1180.01 35.8349 1170.37 42.577 1165.6 52.4866C1159.99 64.1434 1144.78 70.5825 1137.22 81.2422C1132.59 87.7736 1129.61 93.6158 1124.41 99.6253C1119.58 105.199 1112.93 110.718 1109.19 117.187" stroke="white" stroke-linecap="round" stroke-linejoin="round"/>
<path d="M1187.67 24.758C1192.18 28.7042 1199.44 35.2931 1202.08 41.3952" stroke="white" stroke-linecap="round" stroke-linejoin="round"/>
<path d="M1202.08 41.3952C1205.75 38.0924 1211.18 33.3438 1213.29 28.4551" stroke="white" stroke-linecap="round" stroke-linejoin="round"/>
<path d="M1214.9 56.1837C1219.01 62.2666 1222.33 66.0192 1227.71 69.1238" stroke="white" stroke-linecap="round" stroke-linejoin="round"/>
<path d="M1110.79 111.641C1101.9 118.059 1095.08 126.91 1088.73 136.083C1087.56 137.766 1085.27 141.701 1084.46 143.888C1083.54 146.35 1088.69 146.308 1090.33 148.202C1094.91 153.495 1100.14 157.684 1104.74 162.99C1108.93 167.828 1113.34 176.089 1118.8 178.19" stroke="white" stroke-linecap="round" stroke-linejoin="round"/>
<path d="M1091.57 148.612C1087.35 154.525 1078.49 159.531 1085.97 164.325C1088.88 166.194 1092.08 166.359 1094.42 169.358C1095.89 171.241 1098.61 180.977 1101.18 177.265C1103.92 173.315 1110.48 173.375 1112.39 168.947" stroke="white" stroke-linecap="round" stroke-linejoin="round"/>
<path d="M1086.77 167.098C1079.11 175.942 1067.04 185.809 1061.5 196.675C1058.86 201.862 1052.38 203.974 1049.93 209.615" stroke="white" stroke-linecap="round" stroke-linejoin="round"/>
<path d="M1049.93 209.616C1059.41 198.33 1068.7 190.727 1078.85 180.963C1080.26 179.606 1086.23 178.995 1086.68 177.163C1087.87 172.342 1085.59 174.79 1089.97 174.493C1091.66 174.378 1094.53 169.762 1093.18 171.72C1092.22 173.096 1089.45 174.443 1088.02 175.93C1080.44 183.801 1072.76 191.496 1065.15 198.524C1062.5 200.971 1055.81 210.023 1055.98 209.616C1058.74 203.252 1065.32 191.533 1070.75 187.843C1074.78 185.107 1078.3 181.082 1082.77 179.936C1084.72 179.435 1090.38 174.526 1084.81 176.752C1080.57 178.447 1078.7 183.563 1074.76 185.584C1070.01 188.02 1067.98 196.406 1062.75 199.962C1058.19 203.057 1054.19 207.876 1050.29 211.875C1046.19 216.081 1057.72 202.544 1061.14 197.6C1064.08 193.371 1070.66 189.138 1074.76 186.508C1075.89 185.781 1084.18 177.873 1083.21 176.752C1081.62 174.92 1068.93 181.088 1080.36 174.493" stroke="white" stroke-linecap="round" stroke-linejoin="round"/>
<path d="M1186.07 26.6065C1180.01 35.8349 1170.37 42.577 1165.6 52.4866C1159.99 64.1434 1144.78 70.5825 1137.22 81.2422C1132.59 87.7736 1129.61 93.6158 1124.41 99.6253C1119.58 105.199 1112.93 110.718 1109.19 117.187" stroke="white" stroke-linecap="round" stroke-linejoin="round"/>
<path d="M1187.67 24.758C1192.18 28.7042 1199.44 35.2931 1202.08 41.3952" stroke="white" stroke-linecap="round" stroke-linejoin="round"/>
<path d="M1202.08 41.3952C1205.75 38.0924 1211.18 33.3438 1213.29 28.4551" stroke="white" stroke-linecap="round" stroke-linejoin="round"/>
<path d="M1214.9 56.1837C1219.01 62.2666 1222.33 66.0192 1227.71 69.1238" stroke="white" stroke-linecap="round" stroke-linejoin="round"/>
<path d="M1110.79 111.641C1101.9 118.059 1095.08 126.91 1088.73 136.083C1087.56 137.766 1085.27 141.701 1084.46 143.888C1083.54 146.35 1088.69 146.308 1090.33 148.202C1094.91 153.495 1100.14 157.684 1104.74 162.99C1108.93 167.828 1113.34 176.089 1118.8 178.19" stroke="white" stroke-linecap="round" stroke-linejoin="round"/>
<path d="M1091.57 148.612C1087.35 154.525 1078.49 159.531 1085.97 164.325C1088.88 166.194 1092.08 166.359 1094.42 169.358C1095.89 171.241 1098.61 180.977 1101.18 177.265C1103.92 173.315 1110.48 173.375 1112.39 168.947" stroke="white" stroke-linecap="round" stroke-linejoin="round"/>
<path d="M1086.77 167.098C1079.11 175.942 1067.04 185.809 1061.5 196.675C1058.86 201.862 1052.38 203.974 1049.93 209.615" stroke="white" stroke-linecap="round" stroke-linejoin="round"/>
<path d="M1049.93 209.616C1059.41 198.33 1068.7 190.727 1078.85 180.963C1080.26 179.606 1086.23 178.995 1086.68 177.163C1087.87 172.342 1085.59 174.79 1089.97 174.493C1091.66 174.378 1094.53 169.762 1093.18 171.72C1092.22 173.096 1089.45 174.443 1088.02 175.93C1080.44 183.801 1072.76 191.496 1065.15 198.524C1062.5 200.971 1055.81 210.023 1055.98 209.616C1058.74 203.252 1065.32 191.533 1070.75 187.843C1074.78 185.107 1078.3 181.082 1082.77 179.936C1084.72 179.435 1090.38 174.526 1084.81 176.752C1080.57 178.447 1078.7 183.563 1074.76 185.584C1070.01 188.02 1067.98 196.406 1062.75 199.962C1058.19 203.057 1054.19 207.876 1050.29 211.875C1046.19 216.081 1057.72 202.544 1061.14 197.6C1064.08 193.371 1070.66 189.138 1074.76 186.508C1075.89 185.781 1084.18 177.873 1083.21 176.752C1081.62 174.92 1068.93 181.088 1080.36 174.493" stroke="white" stroke-linecap="round" stroke-linejoin="round"/>
<path d="M1221.3 65.4266C1211.51 73.9856 1198.44 83.1581 1190.87 94.0796C1183.37 104.903 1172.13 116.012 1162.84 124.581C1157.89 129.153 1154.84 136.388 1150.48 141.629C1148.26 144.289 1144.1 148.063 1142.82 151.385C1141.2 155.612 1137.04 155.832 1135.17 159.704C1132.76 164.708 1115.02 182.39 1114 180.038" stroke="white" stroke-linecap="round" stroke-linejoin="round"/>
<path d="M1214.9 52.4866C1217.52 59.8579 1218.01 62.0605 1213.65 55.7729C1212.68 54.3787 1209.58 51.0812 1210.45 52.0758C1212.66 54.6332 1219.6 43.2437 1222.9 43.2437" stroke="white" stroke-linecap="round" stroke-linejoin="round"/>
<path d="M1213.29 28.4551C1205.62 21.7465 1200.27 15.1998 1194.43 7.70999C1186.35 -2.64905 1200.42 -1.67573 1205.29 5.34792C1213.54 17.2618 1227.67 19.1798 1234.47 34.0008C1236.08 37.4998 1263.01 64.7455 1255.65 67.1725C1249.05 69.3488 1228.99 51.7423 1226.11 45.0923" stroke="white" stroke-linecap="round" stroke-linejoin="round"/>
<path d="M1369.15 438.349C1363.09 447.577 1353.45 454.319 1348.68 464.229C1343.07 475.886 1327.86 482.325 1320.3 492.984C1315.67 499.516 1312.69 505.358 1307.49 511.368C1302.66 516.941 1296.01 522.46 1292.27 528.929" stroke="white" stroke-linecap="round" stroke-linejoin="round"/>
<path d="M1370.75 436.5C1375.26 440.446 1382.52 447.035 1385.17 453.137" stroke="white" stroke-linecap="round" stroke-linejoin="round"/>
<path d="M1385.16 453.137C1388.83 449.835 1394.26 445.086 1396.38 440.197" stroke="white" stroke-linecap="round" stroke-linejoin="round"/>
<path d="M1397.98 467.926C1402.09 474.009 1405.41 477.761 1410.79 480.866" stroke="white" stroke-linecap="round" stroke-linejoin="round"/>
<path d="M1293.88 523.383C1284.98 529.801 1278.17 538.653 1271.81 547.826C1270.64 549.509 1268.35 553.444 1267.54 555.631C1266.62 558.092 1271.77 558.05 1273.41 559.944C1278 565.238 1283.23 569.426 1287.82 574.733C1292.02 579.57 1296.42 587.831 1301.88 589.932" stroke="white" stroke-linecap="round" stroke-linejoin="round"/>
<path d="M1274.66 560.355C1270.43 566.267 1261.57 571.273 1269.05 576.068C1271.96 577.936 1275.17 578.101 1277.5 581.1C1278.97 582.984 1281.69 592.719 1284.27 589.008C1287 585.057 1293.56 585.117 1295.48 580.689" stroke="white" stroke-linecap="round" stroke-linejoin="round"/>
<path d="M1269.85 578.84C1262.19 587.684 1250.12 597.551 1244.58 608.418C1241.94 613.605 1235.46 615.716 1233.02 621.358" stroke="white" stroke-linecap="round" stroke-linejoin="round"/>
<path d="M1233.02 621.358C1242.5 610.072 1251.78 602.469 1261.93 592.705C1263.34 591.349 1269.31 590.737 1269.76 588.905C1270.96 584.085 1268.67 586.532 1273.05 586.235C1274.74 586.12 1277.61 581.505 1276.26 583.462C1275.3 584.838 1272.53 586.185 1271.1 587.673C1263.52 595.543 1255.84 603.238 1248.23 610.266C1245.58 612.714 1238.89 621.766 1239.07 621.358C1241.82 614.994 1248.4 603.275 1253.84 599.586C1257.87 596.85 1261.38 592.824 1265.85 591.678C1267.8 591.177 1273.47 586.268 1267.89 588.494C1263.65 590.189 1261.78 595.305 1257.84 597.326C1253.09 599.762 1251.07 608.148 1245.83 611.704C1241.27 614.799 1237.27 619.618 1233.37 623.617C1229.27 627.823 1240.8 614.286 1244.23 609.342C1247.16 605.113 1253.74 600.88 1257.84 598.251C1258.97 597.523 1267.26 589.616 1266.29 588.494C1264.71 586.663 1252.02 592.83 1263.45 586.235" stroke="white" stroke-linecap="round" stroke-linejoin="round"/>
<path d="M1369.15 438.349C1363.09 447.577 1353.45 454.319 1348.68 464.229C1343.07 475.886 1327.86 482.325 1320.3 492.984C1315.67 499.516 1312.69 505.358 1307.49 511.368C1302.66 516.941 1296.01 522.46 1292.27 528.929" stroke="white" stroke-linecap="round" stroke-linejoin="round"/>
<path d="M1370.75 436.5C1375.26 440.446 1382.52 447.035 1385.17 453.137" stroke="white" stroke-linecap="round" stroke-linejoin="round"/>
<path d="M1385.16 453.137C1388.83 449.835 1394.26 445.086 1396.38 440.197" stroke="white" stroke-linecap="round" stroke-linejoin="round"/>
<path d="M1397.98 467.926C1402.09 474.009 1405.41 477.761 1410.79 480.866" stroke="white" stroke-linecap="round" stroke-linejoin="round"/>
<path d="M1293.88 523.383C1284.98 529.801 1278.17 538.653 1271.81 547.826C1270.64 549.509 1268.35 553.444 1267.54 555.631C1266.62 558.092 1271.77 558.05 1273.41 559.944C1278 565.238 1283.23 569.426 1287.82 574.733C1292.02 579.57 1296.42 587.831 1301.88 589.932" stroke="white" stroke-linecap="round" stroke-linejoin="round"/>
<path d="M1274.66 560.355C1270.43 566.267 1261.57 571.273 1269.05 576.068C1271.96 577.936 1275.17 578.101 1277.5 581.1C1278.97 582.984 1281.69 592.719 1284.27 589.008C1287 585.057 1293.56 585.117 1295.48 580.689" stroke="white" stroke-linecap="round" stroke-linejoin="round"/>
<path d="M1269.85 578.84C1262.19 587.684 1250.12 597.551 1244.58 608.418C1241.94 613.605 1235.46 615.716 1233.02 621.358" stroke="white" stroke-linecap="round" stroke-linejoin="round"/>
<path d="M1233.02 621.358C1242.5 610.072 1251.78 602.469 1261.93 592.705C1263.34 591.349 1269.31 590.737 1269.76 588.905C1270.96 584.085 1268.67 586.532 1273.05 586.235C1274.74 586.12 1277.61 581.505 1276.26 583.462C1275.3 584.838 1272.53 586.185 1271.1 587.673C1263.52 595.543 1255.84 603.238 1248.23 610.266C1245.58 612.714 1238.89 621.766 1239.07 621.358C1241.82 614.994 1248.4 603.275 1253.84 599.586C1257.87 596.85 1261.38 592.824 1265.85 591.678C1267.8 591.177 1273.47 586.268 1267.89 588.494C1263.65 590.189 1261.78 595.305 1257.84 597.326C1253.09 599.762 1251.07 608.148 1245.83 611.704C1241.27 614.799 1237.27 619.618 1233.37 623.617C1229.27 627.823 1240.8 614.286 1244.23 609.342C1247.16 605.113 1253.74 600.88 1257.84 598.251C1258.97 597.523 1267.26 589.616 1266.29 588.494C1264.71 586.663 1252.02 592.83 1263.45 586.235" stroke="white" stroke-linecap="round" stroke-linejoin="round"/>
<path d="M1404.38 477.169C1394.6 485.728 1381.52 494.9 1373.95 505.822C1366.45 516.645 1355.21 527.754 1345.93 536.323C1340.98 540.895 1337.93 548.13 1333.56 553.371C1331.34 556.031 1327.19 559.805 1325.91 563.128C1324.28 567.354 1320.12 567.574 1318.26 571.446C1315.85 576.45 1298.1 594.132 1297.08 591.781" stroke="white" stroke-linecap="round" stroke-linejoin="round"/>
<path d="M1397.98 464.229C1400.6 471.6 1401.09 473.803 1396.73 467.515C1395.77 466.121 1392.67 462.823 1393.53 463.818C1395.74 466.375 1402.68 454.986 1405.99 454.986" stroke="white" stroke-linecap="round" stroke-linejoin="round"/>
<path d="M1396.38 440.197C1388.7 433.489 1383.35 426.942 1377.51 419.452C1369.44 409.093 1383.5 410.067 1388.37 417.09C1396.63 429.004 1410.75 430.922 1417.55 445.743C1419.16 449.242 1446.09 476.488 1438.73 478.915C1432.13 481.091 1412.07 463.485 1409.19 456.835" stroke="white" stroke-linecap="round" stroke-linejoin="round"/>
<path d="M477.951 698.809C469.848 705.652 462.181 710.822 462.181 723.398C462.181 726.731 462.011 730.134 462.181 733.461C462.261 735.028 464.763 737.529 465.457 738.799C467.122 741.845 469.47 743.408 471.628 745.887C486.737 763.242 515.619 765.798 531.43 747.637C535.049 743.48 536.229 739.204 536.229 733.461C536.229 730.102 536.532 726.638 535.696 723.398C535.315 721.92 534.305 719.872 534.173 718.498C533.887 715.551 529.713 712.39 528.535 709.835C526.835 706.146 523.518 704.523 520.46 702.572C514.266 698.62 505.883 693.742 498.52 693.297C494.101 693.029 489.147 694.341 484.959 695.834C482.355 696.762 476.6 695.612 475.208 698.809" stroke="white" stroke-linecap="round" stroke-linejoin="round"/>
<path d="M495.646 694.307C495.759 688.924 499.194 684.881 499.194 679.732C499.194 676.115 498.926 672.704 497.42 669.61C493.813 662.199 488.345 665.039 482.875 661.918" stroke="white" stroke-linecap="round" stroke-linejoin="round"/>
<path d="M500.934 691.172C501.753 685.255 503.645 680.279 503.645 674.325C503.645 672.589 501.348 664.274 499.88 663.789C494.884 662.139 479.477 659.828 484.673 659.828" stroke="white" stroke-linecap="round" stroke-linejoin="round"/>
<path d="M484.359 659.79C483.742 656.285 482.5 652.742 478.505 653.726C475.424 654.485 474.718 658.592 474.718 661.317C474.718 663.797 474.523 668.186 477.817 668.186C480.942 668.186 480.446 666.174 481.604 663.607" stroke="white" stroke-linecap="round" stroke-linejoin="round"/>
<path d="M522.07 702.665C521.369 698.501 520.706 695.017 520.706 690.805C520.706 686.715 520.966 685.517 522.601 682.108C523.599 680.026 527.694 677.488 529.577 676.397C532.299 674.821 534.641 673.41 537.766 673.41" stroke="white" stroke-linecap="round" stroke-linejoin="round"/>
<path d="M537.64 672.952C537.64 668.092 539.306 664.222 544.172 664.222C547.952 664.222 548.76 662.614 549.329 668.191C549.943 674.223 550.422 682.987 542.453 682.476C539.572 682.291 538.97 677.769 536.647 679.302C535.085 680.332 533.455 682.302 532.522 684.063C531.511 685.972 529.81 687.062 528.855 688.825C527.094 692.078 526.64 693.827 526.64 697.952C526.64 700.73 526.64 709.063 526.64 706.285" stroke="white" stroke-linecap="round" stroke-linejoin="round"/>
<path d="M511.804 762.219C515.303 766.215 516.627 767.843 516.627 773.234C516.627 776.071 518.188 778.508 520.417 779.922C522.882 781.486 525.459 782.691 527.957 783.506C529.537 784.022 535.2 786.558 533.852 784.249" stroke="white" stroke-linecap="round" stroke-linejoin="round"/>
<path d="M516.997 759.084C519.012 761.489 521.029 762.856 521.029 766.299C521.029 768.36 521.184 769.679 522.037 771.509C523.131 773.858 525.806 775.918 528.085 775.918C529.577 775.918 534.975 778.047 535.776 779.481C536.267 780.358 536.617 777.557 537.307 776.898C538.057 776.182 540.579 776.72 541.526 776.72C544.248 776.72 545.74 779.206 545.894 782.331C546.14 787.323 544.955 790.069 541.862 793.553C540.773 794.78 534.6 795.403 534.47 792.752C534.29 789.107 534.47 785.967 534.47 782.331" stroke="white" stroke-linecap="round" stroke-linejoin="round"/>
<path d="M535.542 727.624C540.741 726.519 545.074 723.561 550.33 723.561C554.102 723.561 556.511 724.236 559.959 725.141C564.803 726.413 567.908 730.875 573.372 730.875" stroke="white" stroke-linecap="round" stroke-linejoin="round"/>
<path d="M537.024 734.675C543.729 734.675 557.656 731.969 563.351 737.466C566.588 740.59 571.339 741.323 575.597 741.323" stroke="white" stroke-linecap="round" stroke-linejoin="round"/>
<path d="M573.372 729.516C578.913 725.777 583.455 723.825 588.965 727.989C592.168 730.409 593.779 738.287 591.776 742.26C589.744 746.29 585.795 750.726 581.342 750.726C576.631 750.726 576.837 743.23 576.837 739.728" stroke="white" stroke-linecap="round" stroke-linejoin="round"/>
<path d="M487.415 710.481C483.751 710.583 473.572 713.497 476.835 720.153C478.681 723.92 480.799 729.537 485.367 729.824C491.779 730.228 495.216 708.934 486.732 708.934" stroke="white" stroke-linecap="round" stroke-linejoin="round"/>
<path d="M482.944 717.292C482.833 718.104 482.743 724.952 483.617 721.597" stroke="white" stroke-linecap="round" stroke-linejoin="round"/>
<path d="M482.92 721.471C483.509 719.468 484.194 717.994 482.794 716.565C482.127 715.884 480.933 716.405 480.65 717.128" stroke="white" stroke-linecap="round" stroke-linejoin="round"/>
<path d="M507.17 710.474C505.447 715.418 504.833 721.046 507.17 725.625C508.043 727.335 516.072 729.165 516.218 726.058C516.32 723.894 515.909 721.53 516.257 719.392C516.773 716.21 518.227 712.609 517.571 709.306C516.92 706.024 506.741 705.799 504.386 705.799" stroke="white" stroke-linecap="round" stroke-linejoin="round"/>
<path d="M512.546 721.153C511.776 723.294 510.928 725.271 511.062 727.593C511.125 728.689 511.804 723.346 511.804 722.584C511.804 720.027 513.333 707.445 510.32 709.08" stroke="white" stroke-linecap="round" stroke-linejoin="round"/>
<path d="M479.059 736.646C483.549 734.62 483.11 734.993 485.561 738.636C486.499 740.032 488.067 741.423 489.729 741.423C492.692 741.423 496.118 736.768 498.945 735.496C501.11 734.523 501.964 735.473 503.84 736.248C508.615 738.22 510.658 742.832 515.542 740.008C517.416 738.924 527.061 734.155 522.426 739.831C520.632 742.027 519.75 744.204 517.263 745.802C513.858 747.99 508.052 748.281 504.299 748.544C501.751 748.722 499.167 748.588 496.612 748.588C492.82 748.588 490.566 747.557 487.32 745.58C483.697 743.375 477.683 740.577 477.683 735.054" stroke="white" stroke-linecap="round" stroke-linejoin="round"/>
<path d="M464.331 709.172C459.563 705.024 453.987 699.161 452.652 692.262C451.758 687.643 447.037 684.79 442.951 684.79C442.007 684.79 435.186 684.172 434.924 685.227C434.154 688.321 432.335 685.65 431.462 684.396C428.111 679.585 422.832 687.014 425.984 689.858C428.641 692.256 427.826 693.442 431.462 693.442C434.487 693.442 433.426 690.295 435.571 690.295C438.788 690.295 445.451 692.612 447.212 696.151C449.352 700.453 450.321 704.529 453.527 708.211C454.89 709.777 456.659 710.46 458.016 711.707C458.871 712.493 462.489 715.831 460.907 713.105" stroke="white" stroke-linecap="round" stroke-linejoin="round"/>
<path d="M461.511 730.875C455.561 730.875 450.817 731.336 445.928 734.46C443.109 736.261 439.388 736.426 436.579 738.221C434.269 739.697 431.384 740.434 428.306 740.434C426.865 740.434 421.904 742.744 421.381 740.036C420.924 737.669 421.466 734.888 421.342 732.468C421.237 730.409 416.865 732.176 416.11 732.424C409.925 734.456 413.245 742.918 413.724 747.604C414.1 751.281 422.727 753.992 422.727 749.197C422.727 745.249 422.41 746.011 425.19 746.011C428.178 746.011 431.166 746.011 434.155 746.011C439.297 746.011 443.536 742.353 447.967 740.036C452.606 737.611 458.509 737.248 463.589 737.248" stroke="white" stroke-linecap="round" stroke-linejoin="round"/>
<path d="M531.09 750.726C535.56 752.582 538.626 755.822 542.531 758.324C544.992 759.901 548.168 758.204 550.852 759.924C553.726 761.766 557.048 764.95 558.672 768.322C559.244 769.51 562.516 775.263 562.986 774.721" stroke="white" stroke-linecap="round" stroke-linejoin="round"/>
<path d="M533.315 746.547C535.819 747.075 538.719 749.681 541.163 749.681C542.979 749.681 544.279 751.91 546.282 752.031C549.154 752.205 553.835 751.904 556.67 752.989C562.687 755.291 562.4 758.742 564.556 765.176C565.006 766.519 567.437 771.802 567.437 771.617" stroke="white" stroke-linecap="round" stroke-linejoin="round"/>
<path d="M567.45 769.533C570.482 769.595 581.443 771.721 579.899 778.148C579.333 780.502 571.571 780.715 570.071 781.264C567.245 782.297 562.031 782.812 559.858 779.797C558.049 777.288 560.96 774.243 561.9 772.007" stroke="white" stroke-linecap="round" stroke-linejoin="round"/>
<path d="M492.21 760.129C492.21 764.539 492.337 768.746 490.672 772.752C489.134 776.452 488.691 779.473 492.556 781.431C496.461 783.409 497.22 794.955 494.978 798.787" stroke="white" stroke-linecap="round" stroke-linejoin="round"/>
<path d="M496.75 760.129C496.75 764.89 495.181 768.072 494.168 772.319C493.335 775.805 495.811 777.464 497.55 779.545C501.324 784.064 498.521 792.579 500.677 797.742" stroke="white" stroke-linecap="round" stroke-linejoin="round"/>
<path d="M492.417 798.706C487.717 801.082 489.409 803.315 493.106 805.901C495.94 807.883 500.251 806.903 503.599 806.903C506.07 806.903 511.607 803.869 508.807 799.708C506.929 796.916 504.382 795.798 501.378 794.608" stroke="white" stroke-linecap="round" stroke-linejoin="round"/>
<path d="M471.006 745.502C469.887 747.583 466.243 752.155 466.111 754.786C466.017 756.651 466.81 758.099 466.81 759.815C466.81 762.978 462.987 771.806 459.816 771.806C457.728 771.806 455.607 771.928 453.522 771.806C452.987 771.775 450.542 768.836 450.064 770.689C449.805 771.689 447.478 778.55 446.528 776.448" stroke="white" stroke-linecap="round" stroke-linejoin="round"/>
<path d="M473.974 749.681C471.342 754.757 469.175 760.186 469.175 765.934C469.175 767.906 470.8 770.596 469.48 772.512C468.073 774.555 466.57 777.819 464.377 778.704C461.248 779.965 455.402 782.484 452.723 778.704C452.016 777.705 449.995 782.467 449.677 783.304C449.518 783.723 451.234 784.235 451.657 784.508C452.21 784.865 452.57 785.608 453.066 786.056C457.025 789.632 447.913 791.473 446.554 791.473C441.845 791.473 439.595 790.417 439.014 784.508C438.786 782.2 436.836 774.447 441.07 774.447C443.856 774.447 445.183 782.034 445.183 774.447" stroke="white" stroke-linecap="round" stroke-linejoin="round"/>
<path d="M124.999 62.6784C116.896 69.5216 109.229 74.6915 109.229 87.2672C109.229 90.6006 109.059 94.0031 109.229 97.3303C109.309 98.8967 111.81 101.398 112.505 102.668C114.17 105.714 116.518 107.278 118.676 109.756C133.785 127.111 162.667 129.667 178.478 111.506C182.097 107.349 183.277 103.073 183.277 97.3303C183.277 93.971 183.58 90.5076 182.744 87.2672C182.363 85.7886 181.353 83.7407 181.22 82.367C180.935 79.4197 176.761 76.259 175.583 73.704C173.883 70.0149 170.566 68.3925 167.508 66.4411C161.314 62.4886 152.931 57.6108 145.568 57.1656C141.149 56.8985 136.195 58.2105 132.007 59.7033C129.403 60.6315 123.648 59.4814 122.256 62.6784" stroke="white" stroke-linecap="round" stroke-linejoin="round"/>
<path d="M142.695 58.1756C142.807 52.7933 146.242 48.7498 146.242 43.6006C146.242 39.9842 145.975 36.5733 144.469 33.4791C140.861 26.0685 135.393 28.9078 129.923 25.7867" stroke="white" stroke-linecap="round" stroke-linejoin="round"/>
<path d="M147.983 55.0412C148.801 49.1237 150.693 44.1484 150.693 38.1937C150.693 36.4577 148.396 28.1436 146.929 27.6586C141.932 26.0077 126.525 23.6971 131.721 23.6971" stroke="white" stroke-linecap="round" stroke-linejoin="round"/>
<path d="M131.407 23.6591C130.79 20.1543 129.547 16.6112 125.553 17.595C122.472 18.354 121.766 22.4611 121.766 25.1857C121.766 27.666 121.57 32.0555 124.865 32.0555C127.99 32.0555 127.494 30.0434 128.652 27.4756" stroke="white" stroke-linecap="round" stroke-linejoin="round"/>
<path d="M169.118 66.5341C168.417 62.3704 167.753 58.8865 167.753 54.6741C167.753 50.5843 168.014 49.3862 169.649 45.9768C170.647 43.8956 174.742 41.3575 176.625 40.2665C179.346 38.69 181.689 37.2795 184.814 37.2795" stroke="white" stroke-linecap="round" stroke-linejoin="round"/>
<path d="M184.688 36.8216C184.688 31.9607 186.354 28.0916 191.22 28.0916C195 28.0916 195.808 26.483 196.376 32.0598C196.991 38.0918 197.47 46.8563 189.501 46.3452C186.62 46.1604 186.018 41.6385 183.695 43.1707C182.133 44.2009 180.502 46.1711 179.57 47.9325C178.559 49.8412 176.857 50.9316 175.903 52.6943C174.142 55.9473 173.688 57.6962 173.688 61.8211C173.688 64.5988 173.688 72.932 173.688 70.1543" stroke="white" stroke-linecap="round" stroke-linejoin="round"/>
<path d="M158.853 126.088C162.352 130.084 163.675 131.712 163.675 137.103C163.675 139.94 165.236 142.377 167.465 143.791C169.931 145.355 172.507 146.56 175.005 147.375C176.586 147.891 182.248 150.427 180.9 148.118" stroke="white" stroke-linecap="round" stroke-linejoin="round"/>
<path d="M164.044 122.954C166.06 125.358 168.077 126.725 168.077 130.168C168.077 132.23 168.232 133.548 169.085 135.378C170.179 137.727 172.854 139.787 175.133 139.787C176.625 139.787 182.023 141.916 182.824 143.35C183.315 144.227 183.665 141.426 184.355 140.767C185.105 140.052 187.627 140.589 188.574 140.589C191.296 140.589 192.788 143.075 192.942 146.2C193.188 151.193 192.003 153.938 188.91 157.423C187.821 158.65 181.648 159.272 181.517 156.621C181.338 152.976 181.517 149.836 181.517 146.2" stroke="white" stroke-linecap="round" stroke-linejoin="round"/>
<path d="M182.589 91.4933C187.788 90.3877 192.121 87.4302 197.377 87.4302C201.15 87.4302 203.558 88.1049 207.007 89.0103C211.85 90.2819 214.956 94.7438 220.419 94.7438" stroke="white" stroke-linecap="round" stroke-linejoin="round"/>
<path d="M184.072 98.5445C190.777 98.5445 204.704 95.8381 210.399 101.335C213.636 104.459 218.387 105.192 222.644 105.192" stroke="white" stroke-linecap="round" stroke-linejoin="round"/>
<path d="M220.419 93.3853C225.961 89.6465 230.503 87.6943 236.013 91.8578C239.216 94.2782 240.827 102.156 238.824 106.129C236.792 110.159 232.843 114.595 228.39 114.595C223.678 114.595 223.885 107.099 223.885 103.597" stroke="white" stroke-linecap="round" stroke-linejoin="round"/>
<path d="M134.462 74.3504C130.798 74.4516 120.62 77.3656 123.882 84.0219C125.728 87.7886 127.847 93.4057 132.414 93.6934C138.827 94.0972 142.264 72.8029 133.779 72.8029" stroke="white" stroke-linecap="round" stroke-linejoin="round"/>
<path d="M129.993 81.1614C129.882 81.9733 129.792 88.8211 130.665 85.4663" stroke="white" stroke-linecap="round" stroke-linejoin="round"/>
<path d="M129.968 85.3406C130.557 83.3371 131.242 81.8633 129.842 80.4337C129.175 79.7532 127.981 80.2742 127.698 80.9968" stroke="white" stroke-linecap="round" stroke-linejoin="round"/>
<path d="M154.218 74.3435C152.495 79.2873 151.881 84.9155 154.218 89.494C155.091 91.2038 163.12 93.0338 163.266 89.9268C163.368 87.7635 162.957 85.3991 163.305 83.2606C163.821 80.079 165.275 76.4777 164.619 73.1747C163.968 69.893 153.789 69.6685 151.434 69.6685" stroke="white" stroke-linecap="round" stroke-linejoin="round"/>
<path d="M159.593 85.0225C158.824 87.1631 157.976 89.1401 158.11 91.4617C158.173 92.5582 158.852 87.2154 158.852 86.4534C158.852 83.8964 160.381 71.3141 157.368 72.9489" stroke="white" stroke-linecap="round" stroke-linejoin="round"/>
<path d="M126.107 100.515C130.597 98.4889 130.158 98.8617 132.608 102.506C133.547 103.901 135.115 105.292 136.777 105.292C139.74 105.292 143.166 100.637 145.993 99.3654C148.157 98.3919 149.011 99.342 150.888 100.117C155.663 102.089 157.706 106.701 162.59 103.877C164.464 102.793 174.109 98.0242 169.474 103.7C167.68 105.897 166.798 108.073 164.311 109.671C160.906 111.859 155.099 112.15 151.347 112.413C148.799 112.591 146.214 112.457 143.66 112.457C139.868 112.457 137.614 111.426 134.367 109.449C130.745 107.244 124.73 104.446 124.73 98.9231" stroke="white" stroke-linecap="round" stroke-linejoin="round"/>
<path d="M111.378 73.0416C106.611 68.8928 101.034 63.0297 99.6993 56.1309C98.8058 51.5123 94.0848 48.6587 89.9984 48.6587C89.0542 48.6587 82.2338 48.0408 81.9714 49.0957C81.2018 52.1899 79.3826 49.519 78.5095 48.2655C75.1583 43.4537 69.8791 50.8827 73.0314 53.7276C75.6879 56.125 74.8737 57.3107 78.5095 57.3107C81.5339 57.3107 80.4735 54.1645 82.6182 54.1645C85.8354 54.1645 92.4985 56.4806 94.2592 60.0199C96.3998 64.3226 97.3683 68.3977 100.574 72.0802C101.938 73.6463 103.707 74.3293 105.063 75.576C105.919 76.3621 109.537 79.7003 107.955 76.9743" stroke="white" stroke-linecap="round" stroke-linejoin="round"/>
<path d="M108.559 94.7438C102.609 94.7438 97.8649 95.2049 92.9766 98.3286C90.1573 100.13 86.436 100.295 83.627 102.09C81.3175 103.566 78.4325 104.303 75.3548 104.303C73.9138 104.303 68.9524 106.613 68.4291 103.905C67.972 101.539 68.5144 98.7575 68.3907 96.3371C68.2854 94.2785 63.913 96.0447 63.158 96.2928C56.9736 98.3253 60.2932 106.787 60.7725 111.473C61.1486 115.151 69.7758 117.861 69.7758 113.066C69.7758 109.119 69.4587 109.88 72.2382 109.88C75.2265 109.88 78.2148 109.88 81.2031 109.88C86.3457 109.88 90.584 106.222 95.0158 103.905C99.6541 101.48 105.557 101.117 110.637 101.117" stroke="white" stroke-linecap="round" stroke-linejoin="round"/>
<path d="M178.138 114.595C182.609 116.452 185.674 119.691 189.579 122.193C192.04 123.77 195.216 122.073 197.9 123.793C200.774 125.635 204.096 128.819 205.72 132.191C206.292 133.38 209.564 139.132 210.034 138.59" stroke="white" stroke-linecap="round" stroke-linejoin="round"/>
<path d="M180.363 110.416C182.867 110.944 185.767 113.55 188.211 113.55C190.026 113.55 191.327 115.779 193.329 115.9C196.202 116.074 200.882 115.773 203.718 116.858C209.735 119.16 209.448 122.611 211.603 129.045C212.053 130.388 214.485 135.672 214.485 135.486" stroke="white" stroke-linecap="round" stroke-linejoin="round"/>
<path d="M214.498 133.402C217.53 133.464 228.491 135.59 226.947 142.017C226.381 144.371 218.619 144.584 217.119 145.133C214.293 146.166 209.079 146.681 206.906 143.666C205.097 141.157 208.008 138.112 208.948 135.876" stroke="white" stroke-linecap="round" stroke-linejoin="round"/>
<path d="M139.258 123.998C139.258 128.408 139.384 132.615 137.719 136.621C136.182 140.322 135.739 143.342 139.604 145.3C143.509 147.278 144.268 158.824 142.026 162.656" stroke="white" stroke-linecap="round" stroke-linejoin="round"/>
<path d="M143.798 123.998C143.798 128.759 142.229 131.941 141.215 136.188C140.383 139.674 142.859 141.333 144.598 143.414C148.372 147.933 145.569 156.448 147.725 161.611" stroke="white" stroke-linecap="round" stroke-linejoin="round"/>
<path d="M139.465 162.575C134.764 164.951 136.457 167.184 140.154 169.77C142.988 171.752 147.299 170.772 150.647 170.772C153.118 170.772 158.655 167.738 155.855 163.577C153.977 160.785 151.43 159.668 148.426 158.477" stroke="white" stroke-linecap="round" stroke-linejoin="round"/>
<path d="M118.055 109.371C116.935 111.452 113.291 116.024 113.159 118.655C113.065 120.52 113.858 121.968 113.858 123.684C113.858 126.847 110.036 135.675 106.865 135.675C104.776 135.675 102.655 135.797 100.57 135.675C100.035 135.644 97.5905 132.705 97.112 134.558C96.8536 135.558 94.5263 142.419 93.5762 140.317" stroke="white" stroke-linecap="round" stroke-linejoin="round"/>
<path d="M121.022 113.55C118.39 118.626 116.223 124.055 116.223 129.803C116.223 131.775 117.848 134.465 116.528 136.381C115.121 138.424 113.618 141.688 111.425 142.573C108.295 143.835 102.45 146.353 99.7713 142.573C99.0638 141.574 97.0426 146.336 96.7247 147.173C96.5658 147.592 98.2819 148.104 98.705 148.377C99.2577 148.734 99.6176 149.477 100.114 149.925C104.073 153.501 94.9608 155.343 93.6019 155.343C88.8926 155.343 86.643 154.286 86.0615 148.377C85.8343 146.069 83.8838 138.316 88.118 138.316C90.9041 138.316 92.2309 145.903 92.2309 138.316" stroke="white" stroke-linecap="round" stroke-linejoin="round"/>
<path d="M1125.34 379.655C1117.24 386.498 1109.57 391.668 1109.57 404.243C1109.57 407.577 1109.4 410.979 1109.57 414.306C1109.65 415.873 1112.16 418.374 1112.85 419.644C1114.52 422.69 1116.86 424.254 1119.02 426.732C1134.13 444.088 1163.01 446.643 1178.82 428.482C1182.44 424.325 1183.62 420.049 1183.62 414.306C1183.62 410.947 1183.93 407.484 1183.09 404.243C1182.71 402.765 1181.7 400.717 1181.57 399.343C1181.28 396.396 1177.11 393.235 1175.93 390.68C1174.23 386.991 1170.91 385.369 1167.85 383.417C1161.66 379.465 1153.28 374.587 1145.91 374.142C1141.49 373.875 1136.54 375.187 1132.35 376.679C1129.75 377.608 1123.99 376.458 1122.6 379.655" stroke="white" stroke-linecap="round" stroke-linejoin="round"/>
<path d="M1143.04 375.152C1143.15 369.769 1146.59 365.726 1146.59 360.577C1146.59 356.96 1146.32 353.549 1144.81 350.455C1141.21 343.045 1135.74 345.884 1130.27 342.763" stroke="white" stroke-linecap="round" stroke-linejoin="round"/>
<path d="M1148.33 372.017C1149.15 366.1 1151.04 361.125 1151.04 355.17C1151.04 353.434 1148.74 345.12 1147.27 344.635C1142.28 342.984 1126.87 340.673 1132.07 340.673" stroke="white" stroke-linecap="round" stroke-linejoin="round"/>
<path d="M1131.75 340.635C1131.13 337.13 1129.89 333.587 1125.9 334.571C1122.82 335.33 1122.11 339.437 1122.11 342.162C1122.11 344.642 1121.92 349.032 1125.21 349.032C1128.33 349.032 1127.84 347.02 1129 344.452" stroke="white" stroke-linecap="round" stroke-linejoin="round"/>
<path d="M1169.46 383.51C1168.76 379.347 1168.1 375.863 1168.1 371.65C1168.1 367.56 1168.36 366.362 1169.99 362.953C1170.99 360.872 1175.09 358.334 1176.97 357.243C1179.69 355.666 1182.03 354.256 1185.16 354.256" stroke="white" stroke-linecap="round" stroke-linejoin="round"/>
<path d="M1185.03 353.798C1185.03 348.937 1186.7 345.068 1191.57 345.068C1195.35 345.068 1196.15 343.459 1196.72 349.036C1197.34 355.068 1197.82 363.832 1189.85 363.321C1186.97 363.137 1186.36 358.615 1184.04 360.147C1182.48 361.177 1180.85 363.147 1179.92 364.909C1178.91 366.817 1177.2 367.908 1176.25 369.67C1174.49 372.923 1174.03 374.672 1174.03 378.797C1174.03 381.575 1174.03 389.908 1174.03 387.13" stroke="white" stroke-linecap="round" stroke-linejoin="round"/>
<path d="M1159.2 443.064C1162.7 447.06 1164.02 448.688 1164.02 454.079C1164.02 456.916 1165.58 459.353 1167.81 460.767C1170.28 462.332 1172.85 463.536 1175.35 464.352C1176.93 464.867 1182.59 467.404 1181.24 465.095" stroke="white" stroke-linecap="round" stroke-linejoin="round"/>
<path d="M1164.39 439.93C1166.41 442.334 1168.42 443.701 1168.42 447.144C1168.42 449.206 1168.58 450.524 1169.43 452.355C1170.52 454.703 1173.2 456.763 1175.48 456.763C1176.97 456.763 1182.37 458.892 1183.17 460.326C1183.66 461.203 1184.01 458.402 1184.7 457.743C1185.45 457.028 1187.97 457.565 1188.92 457.565C1191.64 457.565 1193.13 460.052 1193.29 463.176C1193.53 468.169 1192.35 470.914 1189.26 474.399C1188.17 475.626 1181.99 476.249 1181.86 473.597C1181.68 469.952 1181.86 466.812 1181.86 463.176" stroke="white" stroke-linecap="round" stroke-linejoin="round"/>
<path d="M1182.93 408.47C1188.13 407.364 1192.47 404.406 1197.72 404.406C1201.5 404.406 1203.9 405.081 1207.35 405.986C1212.2 407.258 1215.3 411.72 1220.77 411.72" stroke="white" stroke-linecap="round" stroke-linejoin="round"/>
<path d="M1184.42 415.521C1191.12 415.521 1205.05 412.814 1210.75 418.311C1213.98 421.435 1218.73 422.168 1222.99 422.168" stroke="white" stroke-linecap="round" stroke-linejoin="round"/>
<path d="M1220.77 410.361C1226.31 406.623 1230.85 404.67 1236.36 408.834C1239.56 411.254 1241.17 419.132 1239.17 423.105C1237.14 427.136 1233.19 431.571 1228.74 431.571C1224.02 431.571 1224.23 424.075 1224.23 420.574" stroke="white" stroke-linecap="round" stroke-linejoin="round"/>
<path d="M1134.81 391.327C1131.14 391.428 1120.97 394.342 1124.23 400.998C1126.07 404.765 1128.19 410.382 1132.76 410.67C1139.17 411.073 1142.61 389.779 1134.12 389.779" stroke="white" stroke-linecap="round" stroke-linejoin="round"/>
<path d="M1130.34 398.138C1130.23 398.949 1130.14 405.797 1131.01 402.442" stroke="white" stroke-linecap="round" stroke-linejoin="round"/>
<path d="M1130.31 402.317C1130.9 400.313 1131.59 398.839 1130.19 397.41C1129.52 396.729 1128.33 397.25 1128.04 397.973" stroke="white" stroke-linecap="round" stroke-linejoin="round"/>
<path d="M1154.56 391.32C1152.84 396.264 1152.23 401.892 1154.56 406.47C1155.44 408.18 1163.47 410.01 1163.61 406.903C1163.71 404.74 1163.3 402.375 1163.65 400.237C1164.17 397.055 1165.62 393.454 1164.96 390.151C1164.31 386.869 1154.14 386.645 1151.78 386.645" stroke="white" stroke-linecap="round" stroke-linejoin="round"/>
<path d="M1159.94 401.999C1159.17 404.139 1158.32 406.116 1158.46 408.438C1158.52 409.534 1159.2 404.192 1159.2 403.43C1159.2 400.873 1160.73 388.29 1157.71 389.925" stroke="white" stroke-linecap="round" stroke-linejoin="round"/>
<path d="M1126.45 417.491C1130.94 415.465 1130.5 415.838 1132.95 419.482C1133.89 420.877 1135.46 422.268 1137.12 422.268C1140.09 422.268 1143.51 417.613 1146.34 416.342C1148.5 415.368 1149.36 416.318 1151.23 417.093C1156.01 419.066 1158.05 423.677 1162.94 420.853C1164.81 419.769 1174.45 415 1169.82 420.676C1168.03 422.873 1167.14 425.049 1164.66 426.647C1161.25 428.835 1155.45 429.126 1151.69 429.389C1149.14 429.568 1146.56 429.433 1144.01 429.433C1140.21 429.433 1137.96 428.402 1134.71 426.426C1131.09 424.22 1125.08 421.422 1125.08 415.899" stroke="white" stroke-linecap="round" stroke-linejoin="round"/>
<path d="M1111.72 390.018C1106.96 385.869 1101.38 380.006 1100.05 373.107C1099.15 368.488 1094.43 365.635 1090.34 365.635C1089.4 365.635 1082.58 365.017 1082.32 366.072C1081.55 369.166 1079.73 366.495 1078.86 365.242C1075.5 360.43 1070.22 367.859 1073.38 370.704C1076.03 373.101 1075.22 374.287 1078.86 374.287C1081.88 374.287 1080.82 371.141 1082.96 371.141C1086.18 371.141 1092.84 373.457 1094.6 376.996C1096.75 381.299 1097.71 385.374 1100.92 389.056C1102.28 390.622 1104.05 391.305 1105.41 392.552C1106.26 393.338 1109.88 396.676 1108.3 393.95" stroke="white" stroke-linecap="round" stroke-linejoin="round"/>
<path d="M1108.9 411.72C1102.95 411.72 1098.21 412.181 1093.32 415.305C1090.5 417.106 1086.78 417.272 1083.97 419.067C1081.66 420.543 1078.78 421.28 1075.7 421.28C1074.26 421.28 1069.3 423.59 1068.77 420.881C1068.32 418.515 1068.86 415.734 1068.74 413.313C1068.63 411.255 1064.26 413.021 1063.5 413.269C1057.32 415.301 1060.64 423.763 1061.12 428.449C1061.49 432.127 1070.12 434.837 1070.12 430.042C1070.12 426.095 1069.8 426.856 1072.58 426.856C1075.57 426.856 1078.56 426.856 1081.55 426.856C1086.69 426.856 1090.93 423.198 1095.36 420.881C1100 418.456 1105.9 418.093 1110.98 418.093" stroke="white" stroke-linecap="round" stroke-linejoin="round"/>
<path d="M1178.48 431.571C1182.95 433.428 1186.02 436.667 1189.92 439.17C1192.39 440.746 1195.56 439.049 1198.25 440.769C1201.12 442.611 1204.44 445.796 1206.07 449.167C1206.64 450.356 1209.91 456.109 1210.38 455.566" stroke="white" stroke-linecap="round" stroke-linejoin="round"/>
<path d="M1180.71 427.392C1183.21 427.92 1186.11 430.526 1188.56 430.526C1190.37 430.526 1191.67 432.755 1193.67 432.876C1196.55 433.05 1201.23 432.749 1204.06 433.834C1210.08 436.137 1209.79 439.588 1211.95 446.021C1212.4 447.364 1214.83 452.648 1214.83 452.463" stroke="white" stroke-linecap="round" stroke-linejoin="round"/>
<path d="M1214.84 450.378C1217.88 450.44 1228.84 452.566 1227.29 458.993C1226.73 461.347 1218.96 461.56 1217.46 462.109C1214.64 463.143 1209.42 463.657 1207.25 460.643C1205.44 458.133 1208.35 455.088 1209.29 452.852" stroke="white" stroke-linecap="round" stroke-linejoin="round"/>
<path d="M1139.6 440.975C1139.6 445.384 1139.73 449.591 1138.07 453.598C1136.53 457.298 1136.08 460.318 1139.95 462.276C1143.85 464.254 1144.61 475.8 1142.37 479.632" stroke="white" stroke-linecap="round" stroke-linejoin="round"/>
<path d="M1144.14 440.975C1144.14 445.735 1142.57 448.917 1141.56 453.164C1140.73 456.651 1143.2 458.309 1144.94 460.391C1148.72 464.909 1145.91 473.425 1148.07 478.588" stroke="white" stroke-linecap="round" stroke-linejoin="round"/>
<path d="M1139.81 479.552C1135.11 481.927 1136.8 484.161 1140.5 486.747C1143.33 488.729 1147.64 487.748 1150.99 487.748C1153.46 487.748 1159 484.714 1156.2 480.553C1154.32 477.762 1151.78 476.644 1148.77 475.453" stroke="white" stroke-linecap="round" stroke-linejoin="round"/>
<path d="M1118.4 426.347C1117.28 428.428 1113.64 433 1113.5 435.631C1113.41 437.497 1114.2 438.945 1114.2 440.66C1114.2 443.823 1110.38 452.652 1107.21 452.652C1105.12 452.652 1103 452.773 1100.92 452.652C1100.38 452.62 1097.94 449.681 1097.46 451.534C1097.2 452.534 1094.87 459.396 1093.92 457.293" stroke="white" stroke-linecap="round" stroke-linejoin="round"/>
<path d="M1121.37 430.527C1118.74 435.602 1116.57 441.031 1116.57 446.779C1116.57 448.752 1118.19 451.441 1116.87 453.357C1115.47 455.4 1113.96 458.665 1111.77 459.549C1108.64 460.811 1102.8 463.329 1100.12 459.549C1099.41 458.55 1097.39 463.312 1097.07 464.149C1096.91 464.568 1098.63 465.08 1099.05 465.353C1099.6 465.71 1099.96 466.453 1100.46 466.901C1104.42 470.477 1095.31 472.319 1093.95 472.319C1089.24 472.319 1086.99 471.262 1086.41 465.353C1086.18 463.045 1084.23 455.292 1088.46 455.292C1091.25 455.292 1092.58 462.879 1092.58 455.292" stroke="white" stroke-linecap="round" stroke-linejoin="round"/>
<path d="M1118.74 778.326C1110.64 785.169 1102.97 790.339 1102.97 802.915C1102.97 806.248 1102.8 809.65 1102.97 812.978C1103.05 814.544 1105.55 817.045 1106.24 818.315C1107.91 821.361 1110.26 822.925 1112.41 825.403C1127.52 842.759 1156.41 845.314 1172.22 827.153C1175.84 822.996 1177.02 818.72 1177.02 812.978C1177.02 809.618 1177.32 806.155 1176.48 802.915C1176.1 801.436 1175.09 799.388 1174.96 798.014C1174.67 795.067 1170.5 791.906 1169.32 789.351C1167.62 785.662 1164.31 784.04 1161.25 782.088C1155.05 778.136 1146.67 773.258 1139.31 772.813C1134.89 772.546 1129.93 773.858 1125.75 775.351C1123.14 776.279 1117.39 775.129 1116 778.326" stroke="white" stroke-linecap="round" stroke-linejoin="round"/>
<path d="M1136.43 773.823C1136.55 768.441 1139.98 764.397 1139.98 759.248C1139.98 755.631 1139.71 752.221 1138.21 749.126C1134.6 741.716 1129.13 744.555 1123.66 741.434" stroke="white" stroke-linecap="round" stroke-linejoin="round"/>
<path d="M1141.72 770.688C1142.54 764.771 1144.43 759.796 1144.43 753.841C1144.43 752.105 1142.14 743.791 1140.67 743.306C1135.67 741.655 1120.26 739.344 1125.46 739.344" stroke="white" stroke-linecap="round" stroke-linejoin="round"/>
<path d="M1125.15 739.306C1124.53 735.802 1123.29 732.258 1119.29 733.242C1116.21 734.001 1115.51 738.108 1115.51 740.833C1115.51 743.313 1115.31 747.703 1118.6 747.703C1121.73 747.703 1121.23 745.691 1122.39 743.123" stroke="white" stroke-linecap="round" stroke-linejoin="round"/>
<path d="M1162.86 782.181C1162.16 778.018 1161.49 774.534 1161.49 770.321C1161.49 766.232 1161.75 765.033 1163.39 761.624C1164.39 759.543 1168.48 757.005 1170.36 755.914C1173.09 754.337 1175.43 752.927 1178.55 752.927" stroke="white" stroke-linecap="round" stroke-linejoin="round"/>
<path d="M1178.43 752.469C1178.43 747.608 1180.09 743.739 1184.96 743.739C1188.74 743.739 1189.55 742.13 1190.12 747.707C1190.73 753.739 1191.21 762.503 1183.24 761.992C1180.36 761.808 1179.76 757.286 1177.43 758.818C1175.87 759.848 1174.24 761.818 1173.31 763.58C1172.3 765.488 1170.6 766.579 1169.64 768.342C1167.88 771.594 1167.43 773.343 1167.43 777.468C1167.43 780.246 1167.43 788.579 1167.43 785.801" stroke="white" stroke-linecap="round" stroke-linejoin="round"/>
<path d="M1152.59 841.735C1156.09 845.731 1157.41 847.359 1157.41 852.75C1157.41 855.587 1158.98 858.024 1161.2 859.438C1163.67 861.003 1166.25 862.208 1168.74 863.023C1170.32 863.538 1175.99 866.075 1174.64 863.766" stroke="white" stroke-linecap="round" stroke-linejoin="round"/>
<path d="M1157.78 838.601C1159.8 841.005 1161.82 842.372 1161.82 845.815C1161.82 847.877 1161.97 849.195 1162.82 851.026C1163.92 853.375 1166.59 855.435 1168.87 855.435C1170.36 855.435 1175.76 857.563 1176.56 858.997C1177.05 859.875 1177.4 857.073 1178.09 856.414C1178.84 855.699 1181.37 856.236 1182.31 856.236C1185.04 856.236 1186.53 858.723 1186.68 861.847C1186.93 866.84 1185.74 869.585 1182.65 873.07C1181.56 874.297 1175.39 874.92 1175.26 872.268C1175.08 868.623 1175.26 865.483 1175.26 861.847" stroke="white" stroke-linecap="round" stroke-linejoin="round"/>
<path d="M1176.33 807.141C1181.53 806.035 1185.86 803.077 1191.12 803.077C1194.89 803.077 1197.3 803.752 1200.75 804.658C1205.59 805.929 1208.7 810.391 1214.16 810.391" stroke="white" stroke-linecap="round" stroke-linejoin="round"/>
<path d="M1177.81 814.192C1184.52 814.192 1198.44 811.485 1204.14 816.982C1207.38 820.106 1212.13 820.839 1216.38 820.839" stroke="white" stroke-linecap="round" stroke-linejoin="round"/>
<path d="M1214.16 809.032C1219.7 805.294 1224.24 803.341 1229.75 807.505C1232.96 809.925 1234.57 817.803 1232.56 821.776C1230.53 825.807 1226.58 830.242 1222.13 830.242C1217.42 830.242 1217.62 822.746 1217.62 819.245" stroke="white" stroke-linecap="round" stroke-linejoin="round"/>
<path d="M1128.2 789.998C1124.54 790.099 1114.36 793.013 1117.62 799.669C1119.47 803.436 1121.59 809.053 1126.15 809.341C1132.57 809.744 1136 788.45 1127.52 788.45" stroke="white" stroke-linecap="round" stroke-linejoin="round"/>
<path d="M1123.73 796.809C1123.62 797.621 1123.53 804.468 1124.4 801.113" stroke="white" stroke-linecap="round" stroke-linejoin="round"/>
<path d="M1123.71 800.988C1124.3 798.984 1124.98 797.511 1123.58 796.081C1122.91 795.4 1121.72 795.921 1121.44 796.644" stroke="white" stroke-linecap="round" stroke-linejoin="round"/>
<path d="M1147.96 789.991C1146.23 794.935 1145.62 800.563 1147.96 805.141C1148.83 806.851 1156.86 808.681 1157.01 805.574C1157.11 803.411 1156.7 801.046 1157.04 798.908C1157.56 795.726 1159.01 792.125 1158.36 788.822C1157.71 785.54 1147.53 785.316 1145.17 785.316" stroke="white" stroke-linecap="round" stroke-linejoin="round"/>
<path d="M1153.33 800.67C1152.56 802.81 1151.72 804.787 1151.85 807.109C1151.91 808.205 1152.59 802.863 1152.59 802.101C1152.59 799.544 1154.12 786.961 1151.11 788.596" stroke="white" stroke-linecap="round" stroke-linejoin="round"/>
<path d="M1119.85 816.163C1124.34 814.136 1123.9 814.509 1126.35 818.153C1127.29 819.548 1128.85 820.939 1130.52 820.939C1133.48 820.939 1136.91 816.284 1139.73 815.013C1141.9 814.039 1142.75 814.989 1144.63 815.765C1149.4 817.737 1151.45 822.348 1156.33 819.524C1158.2 818.44 1167.85 813.672 1163.21 819.347C1161.42 821.544 1160.54 823.72 1158.05 825.318C1154.65 827.506 1148.84 827.797 1145.09 828.06C1142.54 828.239 1139.95 828.104 1137.4 828.104C1133.61 828.104 1131.35 827.073 1128.11 825.097C1124.48 822.891 1118.47 820.094 1118.47 814.57" stroke="white" stroke-linecap="round" stroke-linejoin="round"/>
<path d="M1105.12 788.689C1100.35 784.54 1094.77 778.677 1093.44 771.778C1092.55 767.16 1087.82 764.306 1083.74 764.306C1082.79 764.306 1075.97 763.688 1075.71 764.743C1074.94 767.837 1073.12 765.166 1072.25 763.913C1068.9 759.101 1063.62 766.53 1066.77 769.375C1069.43 771.772 1068.61 772.958 1072.25 772.958C1075.27 772.958 1074.21 769.812 1076.36 769.812C1079.57 769.812 1086.24 772.128 1088 775.667C1090.14 779.97 1091.11 784.045 1094.31 787.727C1095.68 789.294 1097.45 789.977 1098.8 791.223C1099.66 792.009 1103.28 795.348 1101.69 792.622" stroke="white" stroke-linecap="round" stroke-linejoin="round"/>
<path d="M1102.3 810.391C1096.35 810.391 1091.6 810.852 1086.72 813.976C1083.9 815.778 1080.18 815.943 1077.37 817.738C1075.06 819.214 1072.17 819.951 1069.09 819.951C1067.65 819.951 1062.69 822.261 1062.17 819.552C1061.71 817.186 1062.25 814.405 1062.13 811.984C1062.02 809.926 1057.65 811.692 1056.9 811.94C1050.71 813.973 1054.03 822.434 1054.51 827.12C1054.89 830.798 1063.52 833.508 1063.52 828.713C1063.52 824.766 1063.2 825.527 1065.98 825.527C1068.97 825.527 1071.95 825.527 1074.94 825.527C1080.08 825.527 1084.32 821.869 1088.76 819.552C1093.39 817.127 1099.3 816.764 1104.38 816.764" stroke="white" stroke-linecap="round" stroke-linejoin="round"/>
<path d="M1171.88 830.242C1176.35 832.099 1179.41 835.338 1183.32 837.841C1185.78 839.417 1188.96 837.72 1191.64 839.44C1194.51 841.282 1197.84 844.467 1199.46 847.838C1200.03 849.027 1203.3 854.78 1203.77 854.237" stroke="white" stroke-linecap="round" stroke-linejoin="round"/>
<path d="M1174.1 826.063C1176.61 826.591 1179.51 829.197 1181.95 829.197C1183.77 829.197 1185.07 831.426 1187.07 831.547C1189.94 831.721 1194.62 831.42 1197.46 832.505C1203.47 834.808 1203.19 838.259 1205.34 844.692C1205.79 846.035 1208.22 851.319 1208.22 851.134" stroke="white" stroke-linecap="round" stroke-linejoin="round"/>
<path d="M1208.24 849.049C1211.27 849.111 1222.23 851.237 1220.69 857.664C1220.12 860.018 1212.36 860.231 1210.86 860.78C1208.03 861.814 1202.82 862.328 1200.64 859.314C1198.84 856.804 1201.75 853.759 1202.69 851.523" stroke="white" stroke-linecap="round" stroke-linejoin="round"/>
<path d="M1133 839.646C1133 844.055 1133.12 848.263 1131.46 852.269C1129.92 855.969 1129.48 858.989 1133.34 860.947C1137.25 862.925 1138.01 874.472 1135.77 878.303" stroke="white" stroke-linecap="round" stroke-linejoin="round"/>
<path d="M1137.54 839.646C1137.54 844.406 1135.97 847.589 1134.96 851.835C1134.12 855.322 1136.6 856.98 1138.34 859.062C1142.11 863.58 1139.31 872.096 1141.47 877.259" stroke="white" stroke-linecap="round" stroke-linejoin="round"/>
<path d="M1133.2 878.223C1128.5 880.598 1130.2 882.832 1133.89 885.418C1136.73 887.4 1141.04 886.42 1144.39 886.42C1146.86 886.42 1152.39 883.386 1149.59 879.224C1147.72 876.433 1145.17 875.315 1142.17 874.124" stroke="white" stroke-linecap="round" stroke-linejoin="round"/>
<path d="M1111.79 825.018C1110.67 827.099 1107.03 831.671 1106.9 834.302C1106.8 836.168 1107.6 837.616 1107.6 839.331C1107.6 842.494 1103.77 851.323 1100.6 851.323C1098.52 851.323 1096.39 851.444 1094.31 851.323C1093.77 851.291 1091.33 848.353 1090.85 850.205C1090.59 851.205 1088.27 858.067 1087.32 855.965" stroke="white" stroke-linecap="round" stroke-linejoin="round"/>
<path d="M1114.76 829.198C1112.13 834.273 1109.96 839.702 1109.96 845.45C1109.96 847.423 1111.59 850.112 1110.27 852.029C1108.86 854.071 1107.36 857.336 1105.16 858.22C1102.03 859.482 1096.19 862 1093.51 858.22C1092.8 857.221 1090.78 861.983 1090.46 862.821C1090.31 863.239 1092.02 863.751 1092.44 864.024C1093 864.381 1093.36 865.124 1093.85 865.572C1097.81 869.148 1088.7 870.99 1087.34 870.99C1082.63 870.99 1080.38 869.933 1079.8 864.024C1079.57 861.716 1077.62 853.963 1081.86 853.963C1084.64 853.963 1085.97 861.551 1085.97 853.963" stroke="white" stroke-linecap="round" stroke-linejoin="round"/>
<path d="M625.171 271.817C617.069 278.661 609.401 283.83 609.401 296.406C609.401 299.74 609.231 303.142 609.401 306.469C609.482 308.036 611.983 310.537 612.677 311.807C614.342 314.853 616.69 316.417 618.848 318.895C633.957 336.25 662.839 338.806 678.65 320.645C682.269 316.488 683.45 312.212 683.45 306.469C683.45 303.11 683.752 299.647 682.916 296.406C682.535 294.928 681.526 292.88 681.393 291.506C681.108 288.559 676.933 285.398 675.755 282.843C674.055 279.154 670.738 277.531 667.68 275.58C661.486 271.628 653.104 266.75 645.74 266.305C641.321 266.037 636.367 267.349 632.18 268.842C629.576 269.77 623.82 268.62 622.428 271.817" stroke="white" stroke-linecap="round" stroke-linejoin="round"/>
<path d="M642.867 267.315C642.979 261.932 646.415 257.889 646.415 252.74C646.415 249.123 646.147 245.712 644.641 242.618C641.033 235.207 635.565 238.047 630.096 234.926" stroke="white" stroke-linecap="round" stroke-linejoin="round"/>
<path d="M648.156 264.18C648.974 258.263 650.866 253.287 650.866 247.333C650.866 245.597 648.569 237.283 647.102 236.798C642.105 235.147 626.698 232.836 631.894 232.836" stroke="white" stroke-linecap="round" stroke-linejoin="round"/>
<path d="M631.579 232.798C630.962 229.293 629.72 225.75 625.726 226.734C622.644 227.493 621.938 231.6 621.938 234.325C621.938 236.805 621.743 241.194 625.037 241.194C628.162 241.194 627.666 239.182 628.825 236.615" stroke="white" stroke-linecap="round" stroke-linejoin="round"/>
<path d="M669.291 275.673C668.59 271.509 667.926 268.025 667.926 263.813C667.926 259.723 668.187 258.525 669.822 255.116C670.82 253.034 674.914 250.496 676.798 249.405C679.519 247.829 681.862 246.418 684.987 246.418" stroke="white" stroke-linecap="round" stroke-linejoin="round"/>
<path d="M684.861 245.96C684.861 241.1 686.527 237.231 691.393 237.231C695.173 237.231 695.981 235.622 696.549 241.199C697.164 247.231 697.643 255.995 689.674 255.484C686.792 255.299 686.191 250.777 683.868 252.31C682.306 253.34 680.675 255.31 679.743 257.071C678.732 258.98 677.03 260.07 676.076 261.833C674.314 265.086 673.86 266.835 673.86 270.96C673.86 273.738 673.86 282.071 673.86 279.293" stroke="white" stroke-linecap="round" stroke-linejoin="round"/>
<path d="M659.025 335.227C662.524 339.223 663.848 340.851 663.848 346.242C663.848 349.079 665.409 351.516 667.637 352.93C670.103 354.494 672.68 355.699 675.178 356.514C676.758 357.03 682.42 359.566 681.073 357.257" stroke="white" stroke-linecap="round" stroke-linejoin="round"/>
<path d="M664.217 332.093C666.233 334.497 668.25 335.864 668.25 339.307C668.25 341.368 668.405 342.687 669.258 344.517C670.352 346.866 673.027 348.926 675.306 348.926C676.798 348.926 682.196 351.055 682.997 352.489C683.487 353.366 683.838 350.565 684.528 349.906C685.278 349.19 687.8 349.728 688.747 349.728C691.469 349.728 692.961 352.214 693.115 355.339C693.361 360.331 692.176 363.077 689.083 366.562C687.994 367.788 681.821 368.411 681.69 365.76C681.511 362.115 681.69 358.975 681.69 355.339" stroke="white" stroke-linecap="round" stroke-linejoin="round"/>
<path d="M682.762 300.632C687.961 299.527 692.294 296.569 697.55 296.569C701.322 296.569 703.731 297.244 707.18 298.149C712.023 299.421 715.129 303.883 720.592 303.883" stroke="white" stroke-linecap="round" stroke-linejoin="round"/>
<path d="M684.245 307.683C690.95 307.683 704.877 304.977 710.572 310.474C713.809 313.598 718.56 314.331 722.817 314.331" stroke="white" stroke-linecap="round" stroke-linejoin="round"/>
<path d="M720.592 302.524C726.134 298.785 730.676 296.833 736.186 300.997C739.389 303.417 741 311.295 738.997 315.268C736.965 319.298 733.016 323.734 728.562 323.734C723.851 323.734 724.058 316.238 724.058 312.736" stroke="white" stroke-linecap="round" stroke-linejoin="round"/>
<path d="M634.635 283.489C630.971 283.591 620.793 286.505 624.055 293.161C625.901 296.928 628.02 302.545 632.587 302.832C639 303.236 642.437 281.942 633.952 281.942" stroke="white" stroke-linecap="round" stroke-linejoin="round"/>
<path d="M630.165 290.3C630.054 291.112 629.964 297.96 630.837 294.605" stroke="white" stroke-linecap="round" stroke-linejoin="round"/>
<path d="M630.14 294.48C630.729 292.476 631.415 291.002 630.014 289.573C629.347 288.892 628.153 289.413 627.87 290.136" stroke="white" stroke-linecap="round" stroke-linejoin="round"/>
<path d="M654.391 283.482C652.668 288.426 652.054 294.054 654.391 298.633C655.264 300.343 663.293 302.173 663.439 299.066C663.54 296.902 663.13 294.538 663.477 292.4C663.994 289.218 665.448 285.617 664.792 282.314C664.141 279.032 653.962 278.807 651.607 278.807" stroke="white" stroke-linecap="round" stroke-linejoin="round"/>
<path d="M659.766 294.161C658.996 296.302 658.149 298.279 658.283 300.601C658.346 301.697 659.025 296.354 659.025 295.592C659.025 293.035 660.554 280.453 657.541 282.088" stroke="white" stroke-linecap="round" stroke-linejoin="round"/>
<path d="M626.28 309.654C630.77 307.628 630.331 308.001 632.781 311.645C633.72 313.04 635.288 314.431 636.95 314.431C639.913 314.431 643.339 309.776 646.166 308.504C648.33 307.531 649.184 308.481 651.061 309.256C655.835 311.228 657.879 315.84 662.763 313.016C664.637 311.932 674.281 307.163 669.647 312.839C667.853 315.036 666.971 317.212 664.484 318.81C661.078 320.998 655.272 321.289 651.52 321.552C648.972 321.73 646.387 321.596 643.833 321.596C640.041 321.596 637.787 320.565 634.54 318.588C630.917 316.383 624.903 313.585 624.903 308.062" stroke="white" stroke-linecap="round" stroke-linejoin="round"/>
<path d="M611.551 282.18C606.784 278.032 601.207 272.169 599.872 265.27C598.979 260.651 594.258 257.798 590.171 257.798C589.227 257.798 582.407 257.18 582.144 258.235C581.375 261.329 579.555 258.658 578.682 257.404C575.331 252.593 570.052 260.022 573.204 262.866C575.861 265.264 575.047 266.45 578.682 266.45C581.707 266.45 580.646 263.303 582.791 263.303C586.008 263.303 592.671 265.62 594.432 269.159C596.573 273.461 597.541 277.537 600.747 281.219C602.111 282.785 603.879 283.468 605.236 284.715C606.092 285.501 609.71 288.839 608.127 286.113" stroke="white" stroke-linecap="round" stroke-linejoin="round"/>
<path d="M608.732 303.883C602.782 303.883 598.037 304.344 593.149 307.468C590.33 309.269 586.608 309.434 583.799 311.229C581.49 312.705 578.605 313.442 575.527 313.442C574.086 313.442 569.125 315.752 568.602 313.044C568.144 310.677 568.687 307.896 568.563 305.476C568.458 303.417 564.085 305.184 563.33 305.432C557.146 307.464 560.466 315.926 560.945 320.612C561.321 324.29 569.948 327 569.948 322.205C569.948 318.257 569.631 319.019 572.411 319.019C575.399 319.019 578.387 319.019 581.375 319.019C586.518 319.019 590.756 315.361 595.188 313.044C599.826 310.619 605.73 310.256 610.809 310.256" stroke="white" stroke-linecap="round" stroke-linejoin="round"/>
<path d="M678.311 323.734C682.781 325.59 685.847 328.83 689.752 331.332C692.212 332.909 695.388 331.212 698.072 332.932C700.947 334.774 704.268 337.958 705.892 341.33C706.465 342.519 709.736 348.271 710.207 347.729" stroke="white" stroke-linecap="round" stroke-linejoin="round"/>
<path d="M680.536 319.555C683.04 320.083 685.94 322.689 688.384 322.689C690.199 322.689 691.5 324.918 693.502 325.039C696.375 325.213 701.055 324.912 703.89 325.997C709.908 328.299 709.621 331.75 711.776 338.184C712.226 339.527 714.658 344.81 714.658 344.625" stroke="white" stroke-linecap="round" stroke-linejoin="round"/>
<path d="M714.671 342.541C717.703 342.603 728.664 344.729 727.119 351.156C726.554 353.51 718.792 353.723 717.292 354.272C714.466 355.305 709.252 355.82 707.079 352.805C705.27 350.296 708.181 347.251 709.121 345.015" stroke="white" stroke-linecap="round" stroke-linejoin="round"/>
<path d="M639.43 333.137C639.43 337.547 639.557 341.754 637.892 345.76C636.355 349.46 635.912 352.481 639.777 354.439C643.682 356.417 644.44 367.963 642.199 371.795" stroke="white" stroke-linecap="round" stroke-linejoin="round"/>
<path d="M643.97 333.137C643.97 337.898 642.402 341.08 641.388 345.327C640.556 348.813 643.032 350.472 644.771 352.553C648.545 357.072 645.742 365.587 647.898 370.75" stroke="white" stroke-linecap="round" stroke-linejoin="round"/>
<path d="M639.638 371.714C634.937 374.09 636.63 376.323 640.327 378.909C643.16 380.891 647.472 379.911 650.82 379.911C653.291 379.911 658.827 376.877 656.028 372.716C654.15 369.924 651.603 368.806 648.599 367.616" stroke="white" stroke-linecap="round" stroke-linejoin="round"/>
<path d="M618.227 318.51C617.107 320.591 613.463 325.163 613.331 327.794C613.238 329.659 614.031 331.107 614.031 332.823C614.031 335.986 610.208 344.814 607.037 344.814C604.949 344.814 602.828 344.936 600.742 344.814C600.207 344.783 597.763 341.844 597.284 343.697C597.026 344.697 594.699 351.558 593.749 349.456" stroke="white" stroke-linecap="round" stroke-linejoin="round"/>
<path d="M621.194 322.689C618.563 327.765 616.396 333.194 616.396 338.942C616.396 340.914 618.021 343.604 616.701 345.52C615.293 347.563 613.791 350.827 611.598 351.712C608.468 352.973 602.623 355.492 599.944 351.712C599.237 350.713 597.215 355.475 596.898 356.312C596.739 356.731 598.455 357.243 598.878 357.516C599.431 357.873 599.79 358.616 600.287 359.064C604.246 362.64 595.134 364.481 593.775 364.481C589.065 364.481 586.816 363.425 586.234 357.516C586.007 355.208 584.057 347.455 588.291 347.455C591.077 347.455 592.404 355.042 592.404 347.455" stroke="white" stroke-linecap="round" stroke-linejoin="round"/>
</svg>
