<svg width="39" height="34" viewBox="0 0 39 34" fill="none" xmlns="http://www.w3.org/2000/svg">
<path d="M37.8757 17.3273H31.1257V15.2881C34.5218 14.8164 37.1257 12.2456 37.1257 9.15425V7.84658C37.1257 7.30497 36.622 6.86582 36.0007 6.86582C35.3795 6.86582 34.8757 7.30497 34.8757 7.84658V9.15425C34.8757 11.1601 33.2731 12.8446 31.1258 13.2888V12.4235C31.1258 11.5222 30.2847 10.7889 29.2508 10.7889H28.1258V7.19281C28.1258 5.12983 26.4306 3.40606 24.191 3.02296L25.0288 1.37967C25.2811 0.884747 25.0254 0.305087 24.4576 0.0851497C23.8898 -0.134921 23.225 0.0880716 22.9727 0.583064L21.7697 2.94288H17.2319L16.0289 0.582931C15.7766 0.0880052 15.1117 -0.134987 14.544 0.0850169C13.9763 0.304954 13.7206 0.884614 13.9729 1.37954L14.8106 3.02283C12.5711 3.40599 10.876 5.12963 10.876 7.19268V10.7888H9.75098C8.7171 10.7888 7.87601 11.522 7.87601 12.4234V13.2886C5.72872 12.8446 4.12606 11.16 4.12606 9.15412V7.84645C4.12606 7.30484 3.62234 6.86569 3.00108 6.86569C2.37982 6.86569 1.8761 7.30484 1.8761 7.84645V9.15412C1.8761 12.2455 4.48004 14.8162 7.87608 15.2879V17.3271H1.12596C0.504701 17.3271 0.000976562 17.7663 0.000976562 18.3079C0.000976562 18.8495 0.504701 19.2886 1.12596 19.2886H7.87593V21.3278C4.47988 21.7995 1.87595 24.3703 1.87595 27.4617V28.7693C1.87595 29.3109 2.37967 29.7501 3.00093 29.7501C3.62219 29.7501 4.12591 29.3109 4.12591 28.7693V27.4617C4.12591 25.4558 5.72857 23.7713 7.87585 23.3271V23.8655C7.87593 29.4538 13.0909 34.0002 19.5008 34.0002C25.9108 34.0002 31.1257 29.4538 31.1257 23.8657V23.3273C33.273 23.7715 34.8757 25.456 34.8757 27.4619V28.7695C34.8757 29.3111 35.3794 29.7503 36.0006 29.7503C36.6219 29.7503 37.1256 29.3111 37.1256 28.7695V27.4619C37.1256 24.3705 34.5217 21.7997 31.1256 21.328V19.2888H37.8756C38.4969 19.2888 39.0006 18.8497 39.0006 18.3081C39.0006 17.7665 38.4969 17.3273 37.8757 17.3273ZM13.1258 7.19274C13.1258 5.93089 14.3034 4.90432 15.7508 4.90432H23.2508C24.6982 4.90432 25.8757 5.93089 25.8757 7.19274V10.7888H13.1258V7.19274ZM28.8758 23.8657C28.8758 28.3723 24.6702 32.0387 19.5008 32.0387C14.3315 32.0387 10.1259 28.3723 10.1259 23.8657V12.7504H18.3758V22.2311C18.3758 22.7727 18.8796 23.2119 19.5008 23.2119C20.1221 23.2119 20.6258 22.7727 20.6258 22.2311V12.7504H28.8758V23.8657Z" fill="white"/>
</svg>

