<svg width="151" height="80" viewBox="0 0 151 80" fill="none" xmlns="http://www.w3.org/2000/svg">
<path d="M1.49051 76.18C2.95547 75.7887 3.9162 75.9746 3.9162 74.1681C3.9162 73.4032 3.48014 70.9178 4.07269 70.3638C5.45543 69.071 6.02889 70.6134 6.02889 67.9129C6.02889 64.0528 8.02048 64.95 11.6627 64.95C14.2772 64.95 16.8803 64.2915 19.7614 64.2915C20.9477 64.2915 22.4464 63.7062 23.2826 63.7062C24.2132 63.7062 23.5363 66.6421 22.9305 66.9253M22.2262 68.2421C23.7586 68.2421 27.4731 67.5876 28.7208 68.7542C29.8858 69.8435 29.4043 71.5881 30.364 72.4854C31.2854 73.3468 32.3067 73.0812 32.7506 74.5339C33.1249 75.7589 32.7897 77.5022 32.7897 78.7772M32.0855 78.7771C35.6929 74.1395 34.1982 66.6358 34.1982 60.9993V53.4272C34.1982 49.6594 36.8865 50.4642 40.1841 50.4642H44.0574C45.8588 50.4642 44.0574 50.2419 44.0574 51.7811V59.3532C44.0574 64.4772 44.7617 70.0708 44.7617 74.8265M44.7617 75.4849C49.9209 75.3643 47.6966 74.3898 46.9135 71.8269C46.4261 70.232 46.8744 67.929 46.8744 66.2668V55.0733C46.8744 51.1383 45.4659 47.8149 45.4659 43.8799C45.4659 38.7686 51.0303 42.5918 54.6209 41.0998C58.0153 39.6892 62.8354 39.9292 66.5928 39.9292C70.3856 39.9292 68.0013 46.8794 68.0013 49.8058C68.0013 58.0039 67.2971 66.1349 67.2971 74.1681M66.2095 74.9113C70.2816 65.1549 68.0416 51.9492 68.0416 41.5074C68.0416 35.8332 68.9577 30.519 68.9577 24.8055C68.9577 21.8739 68.2236 19.2382 72.164 19.2382H81.3247C86.6282 19.2382 90.9436 15.3943 90.9436 22.6642C90.9436 28.0653 91.8596 33.1938 91.8596 38.5096C91.8596 49.217 92.7757 59.768 92.7757 70.6287M91.8596 71.4854C102.93 79.3267 99.1883 68.3397 99.1883 61.2072C99.1883 57.5169 98.9564 53.7576 99.1883 50.0726C99.3632 47.2921 105.935 48.3596 107.891 48.3596C116.378 48.3596 106.701 34.9057 112.013 32.2762C117.622 29.4998 112.812 48.3297 116.085 47.4555C117.748 47.1588 115.769 37.626 116.375 34.114C116.832 32.8829 116.858 32.107 118.737 32.107C119.965 32.107 119.727 34.4717 119.727 35.6191V40.1347C119.727 42.6044 118.243 47.6606 120.222 47.6606C122.039 47.6606 121.174 42.9798 121.174 42.364V42.3141C121.174 39.0962 121.174 36.1545 122.039 33.3231C122.359 32.2756 124.33 31.1349 125.551 32.2762C126.275 32.9528 125.755 35.8706 125.755 36.7967V46.6466L130.335 46.6465M129.751 46.781C129.751 41.2242 129.289 35.8308 129.289 30.3745V28.7555C129.289 28.039 129.582 27.6832 129.738 27.0285C129.866 26.4888 129.788 25.8132 130.328 25.4094C130.918 24.9677 131.268 25.1429 131.931 24.9657C132.484 24.8179 132.521 22.6613 132.521 22.1713V18.0696M132.29 18.0697C132.29 16.641 132.206 15.1796 132.29 13.7522C132.318 13.2845 132.495 12.4584 132.701 12.0252C133.013 11.3685 133.281 11.2993 133.676 10.8379C134.34 10.0612 135.985 10.7186 135.985 9.21884C135.985 8.17866 135.563 6.12921 136.1 5.22515C136.515 4.52637 136.446 2.37803 136.446 1.55527C136.446 -0.223556 136.677 2.78751 136.677 3.39021V10.9458M136.446 11.3775V13.1045M136.215 13.1046V16.6665C136.215 17.1498 135.482 16.9963 135.241 17.4221C134.971 17.8985 135.181 18.563 135.062 19.0622C135.062 19.0622 135.062 20.4946 135.062 21.5708C135.062 21.95 135.062 26.0863 135.048 26.0863M135.062 26.0863C135.557 26.0863 137.139 25.4094 137.139 27.1364C137.139 27.3786 136.993 28.5621 137.267 28.6355C137.622 28.7303 138.687 28.7262 138.935 28.9114C139.928 29.6542 139.91 29.9501 139.91 31.238C139.91 32.3635 139.91 39.5479 139.91 40.6286C139.91 42.8869 139.679 45.3648 139.679 47.6446C140.87 47.6446 143.418 48.2491 143.418 49.8058V59.3532H146.459V38.5096H149.5" stroke="#F0F0F0" stroke-width="1.5" stroke-linecap="round" stroke-linejoin="round"/>
</svg>