<svg width="20" height="20" viewBox="0 0 20 20" fill="none" xmlns="http://www.w3.org/2000/svg">
<g clip-path="url(#clip0)">
<path d="M12.7779 2.56001L10.3819 0.163958C10.2732 0.0553417 10.1284 -0.000267075 9.97861 5.8122e-05C9.8261 -0.00140527 9.67797 0.0553417 9.56935 0.163958L7.22274 2.51058C7.0029 2.73041 7.0029 3.08781 7.22274 3.30748L7.52533 3.61007C7.73752 3.82226 8.10792 3.82226 8.32027 3.61007L9.21863 2.70976V6.01816C9.21863 6.02824 9.22448 6.03653 9.22627 6.04596C9.25066 6.33425 9.49245 6.56238 9.78724 6.56238H10.2149C10.5256 6.56238 10.781 6.31002 10.781 5.9993V5.62987C10.781 5.62825 10.781 5.62711 10.781 5.62581V2.75887L11.6797 3.65934C11.8996 3.87917 12.2561 3.87917 12.4758 3.65934L12.7779 3.35707C12.9977 3.13707 12.9977 2.77952 12.7779 2.56001Z" fill="#F0F0F0"/>
<path d="M12.7776 16.6435L12.4751 16.3404C12.2629 16.1279 11.8924 16.1279 11.6799 16.3404L10.7812 17.2409V14.3866C10.7812 14.385 10.7812 14.384 10.7812 14.3826V14.0131C10.7812 13.7022 10.5256 13.4375 10.2152 13.4375H9.78721C9.49274 13.4375 9.25096 13.6715 9.2264 13.9601C9.22462 13.9697 9.21876 13.9844 9.21876 13.9943V17.2903L8.3204 16.39C8.10805 16.1776 7.73683 16.1776 7.52448 16.39L7.22205 16.6926C7.00254 16.9123 7.00286 17.2698 7.2227 17.4897L9.56949 19.8361C9.67534 19.9423 9.81664 20 9.96249 20H9.98363C10.1347 20 10.2757 19.9425 10.3817 19.8361L12.7776 17.4402C12.9974 17.2206 12.9974 16.8632 12.7776 16.6435Z" fill="#F0F0F0"/>
<path d="M5.98567 9.21857H5.93754H5.61446C5.61332 9.21857 5.61218 9.21857 5.61088 9.21857H2.77028L3.67075 8.32298C3.77693 8.21696 3.8353 8.07778 3.8353 7.92705C3.8353 7.77616 3.77693 7.63583 3.67075 7.52998L3.36816 7.22804C3.14832 7.0082 2.79077 7.00853 2.57126 7.22836L0.175206 9.62426C0.0665904 9.73271 0.00854271 9.87824 0.0114695 10.0275C0.00838011 10.1828 0.0665904 10.3281 0.175206 10.4368L2.52183 12.7836C2.63175 12.8935 2.77597 12.9484 2.92036 12.9484C3.06475 12.9484 3.20897 12.8935 3.31889 12.7836L3.62132 12.4811C3.7275 12.3751 3.78604 12.2335 3.78604 12.0828C3.78604 11.9319 3.72766 11.7888 3.62132 11.6829L2.72118 10.7811H6.00274C6.01266 10.7811 6.02892 10.7787 6.03835 10.7769C6.3268 10.7525 6.56241 10.514 6.56241 10.2194V9.79108C6.56241 9.48068 6.2964 9.21857 5.98567 9.21857Z" fill="#F0F0F0"/>
<path d="M19.8246 9.62442L17.4286 7.22869C17.2089 7.00885 16.8514 7.00885 16.6317 7.22869L16.3294 7.53128C16.2233 7.63714 16.1647 7.77876 16.1647 7.92949C16.1647 8.08038 16.2231 8.21696 16.3294 8.32298L17.2297 9.21857H14.3709C14.3695 9.21857 14.3683 9.21857 14.367 9.21857H13.9978C13.687 9.21857 13.4376 9.48052 13.4376 9.79109V10.2194C13.4376 10.514 13.6638 10.7522 13.9524 10.7768C13.962 10.7787 13.969 10.7812 13.9787 10.7812H17.279L16.3784 11.6828C16.2724 11.7886 16.2138 11.9314 16.2138 12.0818C16.2138 12.2328 16.2722 12.3748 16.3784 12.4808L16.6811 12.7834C16.7909 12.8933 16.9351 12.9484 17.0795 12.9484C17.2239 12.9484 17.3679 12.8935 17.4779 12.7836L19.8248 10.4368C19.9331 10.3285 19.9911 10.1829 19.9885 10.0335C19.991 9.87824 19.9329 9.73271 19.8246 9.62442Z" fill="#F0F0F0"/>
<path d="M10.0002 8.43646C9.1383 8.43646 8.43701 9.13775 8.43701 9.99985C8.43701 10.8618 9.1383 11.5632 10.0002 11.5632C10.8622 11.5632 11.5636 10.8618 11.5636 9.99985C11.5636 9.13775 10.8622 8.43646 10.0002 8.43646Z" fill="#F0F0F0"/>
</g>
<defs>
<clipPath id="clip0">
<rect width="20" height="20" fill="white"/>
</clipPath>
</defs>
</svg>
