<svg width="148" height="16" viewBox="0 0 148 16" fill="none" xmlns="http://www.w3.org/2000/svg">
<rect width="148" height="16" fill="white"/>
<path d="M10.9773 0L0 16H10.5L21 0H10.9773Z" fill="#0F0F0F"/>
<path d="M31.9773 0L21 16H31.5L42 0H31.9773Z" fill="#0F0F0F"/>
<path d="M52.9773 0L42 16H52.5L63 0H52.9773Z" fill="#0F0F0F"/>
<path d="M74.5 0L63 16H74L85 0H74.5Z" fill="#0F0F0F"/>
<path d="M95.9773 0L85 16H95.5L106 0H95.9773Z" fill="#0F0F0F"/>
<path d="M116.977 0L106 16H116.5L127 0H116.977Z" fill="#0F0F0F"/>
<path d="M137.977 0L127 16H137.5L148 0H137.977Z" fill="#0F0F0F"/>
</svg>
