<svg width="97" height="67" viewBox="0 0 97 67" fill="none" xmlns="http://www.w3.org/2000/svg">
<path d="M24.1105 7.01393C17.3048 7.01393 12.5675 6.42129 8.70349 12.9662C2.65447 23.2121 12.0162 28.6298 20.5221 31.9804C25.598 33.9798 35.7631 36.8063 25.7565 39.7845C18.3353 41.9932 8.62656 42.857 1 40.9418" stroke="black" stroke-width="2" stroke-linecap="round" stroke-linejoin="round"/>
<path d="M62 3C57.4887 5.93272 53.9892 10.327 49.962 13.8906C46.8642 16.6318 43.7174 19.1523 40.4684 21.6752C39.02 22.7999 35.8032 24.3369 35 26" stroke="black" stroke-width="2" stroke-linecap="round" stroke-linejoin="round"/>
<path d="M13.4788 2C13.4788 15.9511 13.4788 29.9022 13.4788 43.8532C13.4788 45.5581 12.1105 57.0424 14 58" stroke="black" stroke-width="2" stroke-linecap="round" stroke-linejoin="round"/>
<path d="M35 25.9328C37.7411 25.9328 40.4822 25.9328 43.2233 25.9328C44.8728 25.9328 46.04 24.8228 45.6027 26.7883C44.6641 31.0066 44.9478 36.4209 45.8882 40.6472C47.4257 47.5566 48.0202 54.7676 48.0202 61.8632C48.0202 64.7885 48.9883 66.2994 52.1318 65.9505C55.8308 65.5401 59.5854 65.1456 63.2675 64.6008C65.9077 64.2101 68.7295 63.5742 71.3957 63.5742C75.7381 63.5742 80.2454 63.232 84.6633 63.232C85.2976 63.232 88.3355 62.8307 88.794 63.4031C89.6233 64.4384 89.4793 59.7081 89.4793 59.4679C89.4793 48.0329 90.1645 36.697 90.1645 25.2484C90.1645 23.441 90.8283 23.8701 92.2204 24.488C93.2306 24.9364 94.8367 24.4774 95.799 24.2028C96.7735 23.9248 93.8944 22.4718 93.7622 22.3398C91.7632 20.3434 89.1507 18.9176 87.4235 16.6175C85.3587 13.8681 82.0965 12.5893 79.3715 10.7052C76.6975 8.85633 74.5748 6.67499 71.6622 5.135C69.9908 4.25132 67.4311 3.37004 66.18 1.80811C65.8329 1.37483 65.1033 1.49064 64.8094 1.12372C64.3781 0.5853 64.4942 1.96878 64.4477 2.13129C64.2754 2.73369 62.588 3.43065 62.0683 3.69018" stroke="black" stroke-width="2" stroke-linecap="round" stroke-linejoin="round"/>
<path d="M22 1C22 17 22 33 22 49" stroke="black" stroke-width="2" stroke-linecap="round" stroke-linejoin="round"/>
</svg>
