<svg width="33" height="30" viewBox="0 0 33 30" fill="none" xmlns="http://www.w3.org/2000/svg">
<path d="M16.0002 0C13.7279 0.127761 11.5919 1.0921 10.0294 2.69562C8.46693 4.29915 7.59613 6.4206 7.59526 8.62576C7.59755 10.6138 8.30715 12.5403 9.60447 14.0807C10.9018 15.621 12.7075 16.681 14.7174 17.082C14.7166 17.0654 14.716 17.0488 14.7156 17.0322C14.7159 16.6296 14.8612 16.2397 15.1266 15.9297C15.3919 15.6198 15.7605 15.4094 16.1689 15.3347V14.0913C14.2994 14.0047 12.5358 13.2248 11.2435 11.9131C9.95116 10.6015 9.22905 8.8585 9.22671 7.0452C9.22673 5.25867 9.92555 3.53852 11.1824 2.23123C12.4393 0.923951 14.1608 0.126674 16.0002 0ZM17.245 0.0174222C19.0435 0.19222 20.7109 1.00808 21.9235 2.30668C23.1362 3.60528 23.8077 5.29402 23.8077 7.0452C23.8066 8.86508 23.0804 10.6143 21.7806 11.9282C20.4808 13.242 18.7077 14.0191 16.8309 14.0974V15.3344C17.2394 15.4091 17.6081 15.6196 17.8735 15.9295C18.1388 16.2395 18.2841 16.6295 18.2844 17.0322C18.2836 17.0542 18.2825 17.0762 18.2809 17.0982C20.3002 16.7037 22.1164 15.6444 23.4212 14.1C24.7259 12.5557 25.4389 10.6215 25.439 8.62576C25.4373 6.45651 24.5938 4.36718 23.0759 2.7725C21.558 1.17781 19.4766 0.194385 17.245 0.0174222Z" fill="black"/>
<path d="M9.337 12.7049C7.62978 12.6267 5.93534 13.0253 4.4552 13.8532C2.51691 14.9393 1.07099 16.6917 0.404466 18.7626C-0.262064 20.8335 -0.100468 23.0715 0.857173 25.0324C0.114155 23.436 0.00976467 21.6291 0.56426 19.9623C1.11875 18.2956 2.29259 16.8878 3.85799 16.0122C5.40532 15.1493 7.22571 14.8664 8.97399 15.2173C10.7223 15.5681 12.2769 16.5283 13.3431 17.9157L14.7198 17.1458C14.7171 17.108 14.7157 17.0701 14.7156 17.0322C14.7158 16.7399 14.7924 16.4524 14.9384 16.1966C15.0843 15.9409 15.2948 15.7251 15.5502 15.5695C14.7619 14.7173 13.8067 14.0253 12.7402 13.5335C11.6736 13.0418 10.5168 12.7601 9.337 12.7049ZM14.8964 17.7876L13.719 18.4461C13.7523 18.4962 13.7849 18.5467 13.8169 18.5976C14.7837 20.2199 15.0456 22.1478 14.5452 23.9572C14.0448 25.7666 12.8229 27.3093 11.1484 28.2459C9.55123 29.1393 7.6639 29.413 5.86669 29.0119C4.06949 28.6108 2.49597 27.5648 1.46316 26.0845C2.71339 27.9275 4.64349 29.2378 6.85833 29.7472C9.07318 30.2565 11.4052 29.9265 13.3771 28.8245C15.1649 27.8223 16.5385 26.2502 17.2633 24.3763C17.9882 22.5025 18.0195 20.443 17.3519 18.5493C17.0906 18.6876 16.7978 18.7603 16.5 18.7609C16.1654 18.7606 15.8376 18.6692 15.5541 18.4971C15.2705 18.325 15.0426 18.0791 14.8964 17.7876Z" fill="black"/>
<path d="M24.2915 12.7185C23.0086 12.6926 21.7351 12.9351 20.5578 13.4294C19.3805 13.9237 18.3271 14.6583 17.4694 15.5829C17.7192 15.7395 17.9246 15.9541 18.067 16.2073C18.2093 16.4604 18.284 16.7439 18.2844 17.0322C18.2837 17.0698 18.2818 17.1074 18.2785 17.1448L19.663 17.9192C20.7314 16.5369 22.2855 15.5816 24.0316 15.2341C25.7777 14.8866 27.5947 15.1709 29.1391 16.0332C30.7363 16.9266 31.9246 18.3732 32.4647 20.0816C33.0048 21.79 32.8564 23.6333 32.0496 25.24C33.072 23.2695 33.2782 20.995 32.6261 18.882C31.974 16.769 30.5129 14.9774 28.5419 13.874C27.2474 13.15 25.7858 12.7527 24.2915 12.7185ZM18.1027 17.7872C17.9567 18.0787 17.7289 18.3246 17.4455 18.4968C17.1622 18.6689 16.8345 18.7604 16.5 18.7609C16.2019 18.7609 15.9085 18.6885 15.6467 18.5504C14.9737 20.4465 15.0021 22.5103 15.7269 24.3884C16.4518 26.2665 17.828 27.842 19.62 28.8452C21.56 29.9284 23.8494 30.2653 26.0338 29.7891C28.2183 29.3129 30.1381 28.0584 31.4121 26.2745C30.3566 27.6961 28.7936 28.6871 27.0264 29.0553C25.2593 29.4234 23.4139 29.1424 21.8485 28.2668C21.0194 27.8031 20.2927 27.1856 19.7099 26.4497C19.127 25.7139 18.6995 24.874 18.4518 23.978C18.204 23.0821 18.1408 22.1477 18.2658 21.228C18.3908 20.3084 18.7015 19.4217 19.1802 18.6184C19.2164 18.5624 19.2535 18.5069 19.2913 18.4519L18.1027 17.7872Z" fill="black"/>
<path d="M16.213 9.02148C14.256 9.02257 12.3638 9.70104 10.8776 10.9345C11.3578 11.606 11.9632 12.1847 12.6625 12.6411C13.6723 11.8644 14.9237 11.4417 16.213 11.4417C17.5873 11.443 18.9151 11.9245 19.9525 12.7978C20.6731 12.373 21.3056 11.8217 21.8175 11.1721C20.2985 9.79253 18.2951 9.02376 16.213 9.02148ZM10.3492 11.4113C9.38657 12.3635 8.68641 13.5348 8.31308 14.8177C9.15033 14.8919 9.96872 15.102 10.734 15.4393C10.9945 14.566 11.4731 13.7683 12.1276 13.1168C11.4403 12.6489 10.8392 12.0723 10.3492 11.4113ZM22.3248 11.678C21.8045 12.3146 21.1778 12.8621 20.4707 13.2978C21.1169 13.9994 21.5678 14.849 21.7809 15.7663C22.5161 15.3737 23.3141 15.1036 24.1416 14.9672C23.8138 13.7467 23.191 12.6193 22.3248 11.678ZM8.15207 15.4992C8.05576 15.9851 8.00647 16.4787 8.00486 16.9736C8.00612 18.689 8.57994 20.3581 9.64068 21.7317C10.7014 23.1052 12.1922 24.1097 13.8905 24.5951C14.2161 23.8414 14.3937 23.0356 14.4143 22.2189C13.2765 21.853 12.2864 21.1495 11.5844 20.2081C10.8824 19.2666 10.5041 18.135 10.503 16.9736C10.5058 16.6913 10.5309 16.4097 10.5781 16.1311C9.81713 15.7759 8.99433 15.5616 8.15207 15.4992ZM24.2931 15.6375C23.4439 15.7769 22.63 16.0718 21.8947 16.5064C21.9109 16.6617 21.9204 16.8175 21.923 16.9736C21.9217 18.0231 21.6123 19.0505 21.0309 19.9361C20.4495 20.8216 19.6201 21.5286 18.6395 21.9746C18.6365 22.0213 18.6341 22.0681 18.6322 22.1149C18.6334 22.902 18.7807 23.6825 19.0669 24.4191C20.6366 23.8552 21.9908 22.8397 22.9478 21.5089C23.9048 20.178 24.4189 18.5955 24.4211 16.9736C24.4174 16.5255 24.3746 16.0786 24.2931 15.6375ZM17.9252 22.2445C17.3715 22.4154 16.7941 22.5034 16.213 22.5055C15.8474 22.5048 15.4827 22.47 15.124 22.4018C15.0825 23.2113 14.9014 24.0084 14.5882 24.76C15.1228 24.8674 15.6671 24.9229 16.213 24.9257C16.95 24.9228 17.6832 24.8239 18.3929 24.6314C18.0997 23.8669 17.9416 23.06 17.9252 22.2445Z" fill="black"/>
</svg>
