<svg width="88" height="119" viewBox="0 0 88 119" fill="none" xmlns="http://www.w3.org/2000/svg">
<g filter="url(#filter0_d)">
<rect x="84" y="111" width="80" height="111" rx="10" transform="rotate(-180 84 111)" fill="#327841"/>
<rect x="82" y="109" width="76" height="107" rx="8" transform="rotate(-180 82 109)" stroke="#7DA781" stroke-width="4"/>
</g>
<path d="M43.4548 36C40.9759 36.1448 38.6457 37.2377 36.9412 39.055C35.2366 40.8724 34.2867 43.2767 34.2857 45.7759C34.2882 48.029 35.0623 50.2124 36.4776 51.9581C37.8929 53.7038 39.8628 54.9051 42.0554 55.3596C42.0544 55.3408 42.0538 55.322 42.0534 55.3032C42.0537 54.8468 42.2123 54.4049 42.5017 54.0537C42.7911 53.7025 43.1933 53.464 43.6388 53.3793V51.9702C41.5993 51.872 39.6754 50.9881 38.2656 49.5016C36.8558 48.015 36.0681 46.0396 36.0655 43.9846C36.0655 41.9598 36.8279 40.0103 38.199 38.5287C39.5701 37.0471 41.4482 36.1436 43.4548 36ZM44.8127 36.0197C46.7747 36.2178 48.5937 37.1425 49.9166 38.6142C51.2395 40.086 51.972 41.9999 51.972 43.9846C51.9708 46.0471 51.1786 48.0295 49.7606 49.5186C48.3427 51.0076 46.4084 51.8883 44.361 51.9771V53.379C44.8066 53.4636 45.2088 53.7022 45.4983 54.0535C45.7878 54.4048 45.9463 54.8468 45.9466 55.3032C45.9458 55.3281 45.9445 55.3531 45.9428 55.378C48.1457 54.9309 50.127 53.7303 51.5503 51.98C52.9737 50.2298 53.7515 48.0377 53.7516 45.7759C53.7498 43.3174 52.8296 40.9495 51.1737 39.1422C49.5178 37.3349 47.2472 36.2203 44.8127 36.0197Z" fill="#363636"/>
<path d="M36.1858 50.3988C34.3234 50.3103 32.4749 50.762 30.8602 51.7003C28.7457 52.9312 27.1684 54.9172 26.4412 57.2643C25.7141 59.6113 25.8904 62.1477 26.9351 64.37C26.1245 62.5608 26.0107 60.513 26.6156 58.624C27.2205 56.735 28.501 55.1395 30.2087 54.1472C31.8967 53.1692 33.8826 52.8486 35.7898 53.2462C37.697 53.6439 39.393 54.7321 40.5561 56.3045L42.058 55.4319C42.0551 55.389 42.0535 55.3461 42.0534 55.3032C42.0536 54.9719 42.1372 54.6461 42.2964 54.3562C42.4556 54.0663 42.6853 53.8218 42.9639 53.6455C42.1039 52.6796 41.0619 51.8953 39.8983 51.338C38.7348 50.7807 37.4729 50.4615 36.1858 50.3988ZM42.2507 56.1592L40.9662 56.9056C41.0025 56.9624 41.0381 57.0196 41.073 57.0773C42.1276 58.9159 42.4134 61.1008 41.8675 63.1515C41.3216 65.2021 39.9886 66.9505 38.1619 68.012C36.4195 69.0245 34.3606 69.3347 32.4 68.8802C30.4394 68.4256 28.7229 67.2401 27.5962 65.5624C28.9601 67.6511 31.0656 69.1361 33.4818 69.7134C35.898 70.2907 38.4421 69.9166 40.5932 68.6677C42.5436 67.5319 44.042 65.7502 44.8327 63.6265C45.6235 61.5028 45.6576 59.1687 44.9294 57.0225C44.6443 57.1792 44.3248 57.2617 44 57.2624C43.635 57.2621 43.2774 57.1585 42.9681 56.9634C42.6588 56.7684 42.4102 56.4897 42.2507 56.1592Z" fill="#363636"/>
<path d="M52.4998 50.4143C51.1003 50.385 49.711 50.6598 48.4267 51.22C47.1423 51.7802 45.9932 52.6127 45.0576 53.6606C45.3301 53.8381 45.5541 54.0814 45.7094 54.3682C45.8647 54.6551 45.9462 54.9765 45.9466 55.3032C45.9458 55.3458 45.9437 55.3883 45.9402 55.4308L47.4505 56.3085C48.616 54.7418 50.3115 53.6592 52.2163 53.2653C54.1211 52.8715 56.1033 53.1936 57.7881 54.171C59.5305 55.1834 60.8269 56.823 61.416 58.7592C62.0052 60.6954 61.8434 62.7844 60.9632 64.6053C62.0785 62.3721 62.3035 59.7943 61.5921 57.3996C60.8807 55.0049 59.2868 52.9744 57.1366 51.7239C55.7244 50.9033 54.13 50.453 52.4998 50.4143ZM45.7484 56.1588C45.5891 56.4892 45.3407 56.7679 45.0315 56.963C44.7224 57.1581 44.3649 57.2618 44 57.2624C43.6748 57.2623 43.3548 57.1803 43.0691 57.0238C42.335 59.1727 42.3659 61.5117 43.1566 63.6402C43.9474 65.7687 45.4488 67.5543 47.4037 68.6912C49.5199 69.9188 52.0175 70.3007 54.4006 69.761C56.7836 69.2213 58.8779 67.7995 60.2677 65.7778C59.1163 67.3889 57.4112 68.5121 55.4834 68.9293C53.5556 69.3465 51.5425 69.0281 49.8348 68.0358C48.9303 67.5101 48.1375 66.8104 47.5017 65.9764C46.8659 65.1424 46.3995 64.1905 46.1292 63.1751C45.8589 62.1597 45.7899 61.1007 45.9263 60.0585C46.0626 59.0162 46.4016 58.0113 46.9239 57.1009C46.9634 57.0374 47.0038 56.9745 47.0451 56.9122L45.7484 56.1588Z" fill="#363636"/>
<path d="M43.6869 46.2243C41.552 46.2256 39.4877 46.9945 37.8664 48.3925C38.3904 49.1534 39.0507 49.8094 39.8136 50.3266C40.9152 49.4463 42.2804 48.9672 43.6869 48.9672C45.1862 48.9687 46.6346 49.5144 47.7664 50.5042C48.5525 50.0227 49.2425 49.3979 49.8009 48.6617C48.1438 47.0982 45.9583 46.2269 43.6869 46.2243ZM37.2901 48.9328C36.2399 50.012 35.4761 51.3395 35.0688 52.7934C35.9822 52.8775 36.875 53.1156 37.7098 53.4979C37.994 52.5081 38.5161 51.604 39.2301 50.8657C38.4804 50.3354 37.8246 49.682 37.2901 48.9328ZM50.3543 49.2351C49.7868 49.9565 49.1031 50.577 48.3316 51.0708C49.0366 51.8659 49.5285 52.8288 49.761 53.8685C50.563 53.4236 51.4335 53.1174 52.3363 52.9628C51.9786 51.5796 51.2993 50.3019 50.3543 49.2351ZM34.8932 53.5657C34.7881 54.1165 34.7343 54.6759 34.7326 55.2367C34.734 57.1809 35.3599 59.0725 36.5171 60.6292C37.6743 62.1859 39.3006 63.3243 41.1533 63.8744C41.5085 63.0203 41.7022 62.107 41.7246 61.1814C40.4834 60.7668 39.4034 59.9695 38.6376 58.9025C37.8717 57.8355 37.459 56.553 37.4578 55.2367C37.4609 54.9168 37.4883 54.5976 37.5398 54.2819C36.7096 53.8793 35.812 53.6365 34.8932 53.5657ZM52.5016 53.7225C51.5752 53.8805 50.6872 54.2147 49.8851 54.7073C49.9028 54.8832 49.9131 55.0599 49.916 55.2367C49.9146 56.4261 49.577 57.5906 48.9428 58.5942C48.3085 59.5978 47.4037 60.3991 46.334 60.9045C46.3308 60.9575 46.3281 61.0105 46.326 61.0635C46.3274 61.9556 46.488 62.8401 46.8002 63.675C48.5126 63.0358 49.9899 61.885 51.034 60.3767C52.078 58.8684 52.6388 57.0749 52.6412 55.2367C52.6371 54.7289 52.5904 54.2224 52.5016 53.7225ZM45.5547 61.2105C44.9507 61.4041 44.3208 61.5039 43.6869 61.5062C43.2881 61.5054 42.8902 61.466 42.4989 61.3887C42.4536 62.3061 42.2561 63.2095 41.9144 64.0613C42.4976 64.1831 43.0913 64.246 43.6869 64.2491C44.4909 64.2459 45.2907 64.1337 46.0649 63.9156C45.7451 63.0491 45.5726 62.1346 45.5547 61.2105Z" fill="#1A1F1B"/>
<defs>
<filter id="filter0_d" x="0" y="0" width="88" height="119" filterUnits="userSpaceOnUse" color-interpolation-filters="sRGB">
<feFlood flood-opacity="0" result="BackgroundImageFix"/>
<feColorMatrix in="SourceAlpha" type="matrix" values="0 0 0 0 0 0 0 0 0 0 0 0 0 0 0 0 0 0 127 0"/>
<feOffset dy="4"/>
<feGaussianBlur stdDeviation="2"/>
<feColorMatrix type="matrix" values="0 0 0 0 0 0 0 0 0 0 0 0 0 0 0 0 0 0 0.25 0"/>
<feBlend mode="normal" in2="BackgroundImageFix" result="effect1_dropShadow"/>
<feBlend mode="normal" in="SourceGraphic" in2="effect1_dropShadow" result="shape"/>
</filter>
</defs>
</svg>
