<svg width="1118" height="556" viewBox="0 0 1118 556" fill="none" xmlns="http://www.w3.org/2000/svg">
<path d="M1101 485C1105 481 1105.36 479 1105.5 478C1105.9 475.2 1108.5 479.5 1108.5 479.5C1108.5 479.5 1111 483.5 1112 483C1115 481.5 1121.5 480 1112.5 488C1111.7 488.8 1105.5 494 1102 498C1100.8 499.2 1098 502.2 1094 503C1092 503.4 1085.5 505.5 1082.5 507.5C1080.9 508.3 1073 516.6 1064.5 520C1062.5 520.8 1057.5 521.429 1054.5 521C1051.7 520.6 1051 517 1053 514.5C1054.2 512.9 1058.24 510.044 1064.5 509C1066.9 508.6 1070 508.5 1073.5 506L1084.5 497C1086.9 494.6 1090 494.75 1092 495.5C1095.2 496.7 1096.59 494.818 1097.5 493C1098.3 491.4 1098.5 488 1101 485Z" fill="#297485" stroke="black" stroke-width="0.3"/>
<path d="M1047 349.5C1044 342.5 1027 333.5 1011 334C1007.53 333.93 1005.89 336.638 1005.5 338C1004.7 340.4 1003.5 339 1003 338L998.5 329C996.9 326.6 996 324.75 990.5 327.5C988.5 328.5 986.5 330 988 333.5C988.35 334.317 991.46 338.117 992.971 339.964L993 340C995 342 997.536 346.307 1006 348C1008.5 348.5 1013.05 351.839 1012 355C1011.2 357.4 1008 362.5 1016.5 364.5C1018.1 364.9 1024 365.5 1028.5 365.5C1032.5 365.5 1033.26 363.22 1033.5 362C1034 359.5 1038.5 360 1043.5 364C1045.5 366 1048.5 369 1053 369.5C1057.77 370.03 1056.33 366.833 1055 365.5C1054.6 365.1 1049.85 360.635 1047 358.5C1045.4 357.3 1044.72 356.354 1046 355.5C1048.4 353.9 1047.67 350.833 1047 349.5Z" fill="#297485" stroke="black" stroke-width="0.3"/>
<path d="M917.5 315.5C919.857 314.322 929.771 300.729 932 298.5C933 297.5 934.388 297.694 936 298.5C937 299 939 300 939 304.5C939 306.5 938.5 311.9 940 315.5C942.5 321.5 941 325.5 937.5 329C936.086 330.414 935.333 333.667 935 335C934.6 337 934 339.75 933 341.5C931.4 344.3 927.755 344.946 923.5 344C919 343 909.5 338 905.5 331C903.9 328.6 904.3 324.8 905.5 322C906.7 319.2 909 317.5 911.5 317C913.9 316.6 915.5 316.5 917.5 315.5Z" fill="#297485" stroke="black" stroke-width="0.3"/>
<path d="M902 351C912 355 918.5 353.5 919.5 354C923.9 356 922.834 360.721 921.5 362.5C920.3 364.1 913.5 363.5 910 362.5L896 357.5C893.6 356.3 892.5 353.5 896 351.5C898 350.3 900.328 350.331 902 351Z" fill="#297485" stroke="black" stroke-width="0.3"/>
<path d="M861.5 317C860.3 315.8 855.5 310.5 854 306C853.2 303.6 857 302.5 859 303C862.2 303.8 864 306.667 864.5 308C865.3 310 867 313 870 314.5L881 320.5C884.2 322.1 885.5 326.5 886.5 330.5C886.9 332.9 889.149 334.412 893.5 335.5C896.7 336.3 900 338.5 897.5 344.5C897.1 345.7 895 348.667 894 350C892 352.8 889.167 351.167 888 350C886.4 348.8 880.75 341.5 878.5 337C877.3 334.6 874.5 329.5 871 326L861.5 317Z" fill="#297485" stroke="black" stroke-width="0.3"/>
<path d="M929 470.5C926.5 471.5 919 475 909 475C906 475.104 906 471.5 907 469.5C907.8 467.9 908.333 461.167 908.5 458V434C908.5 420.8 924 413.5 933 410.5C936.163 409.446 941.5 406 945 402.5C949.167 398 954.5 391.5 958 388.5C960.173 386.637 961.833 386 963.5 385C966.3 383.4 969.643 383.643 971.5 385.5C973.1 387.1 974.5 387 975.5 386L980.5 379.5C983.7 376.3 987.5 375.5 989 375.5H998C1002 375.5 1006 380 1002 383.5C1001.28 384.128 998 387 1001.5 391C1001.69 391.221 1007.83 396.167 1011 398C1012.5 399 1013.5 400 1014.5 398L1020 382.5C1022.8 374.5 1028.5 369 1032 382.5C1032.5 384.429 1033 390.5 1033.5 395.5C1034.5 401 1035 405 1042 410C1046.4 413.6 1053 422 1053 435C1053 437.8 1051.48 444.065 1050 448.5C1049.2 450.9 1044.5 460 1039 465.5L1024.5 479.5C1022.5 481.1 1019.71 484.617 1015 486.5C1013 487.3 1002.5 488.5 997 487.5C992.6 486.7 988 483.5 987 478.5C986.6 476.1 983.5 473.5 981 473C979.8 472.6 976.5 472.5 975.5 468.5C974.5 464.5 969.919 462.093 965 461C960.5 460 955.5 459.5 948 462.5L929 470.5Z" fill="#297485" stroke="black" stroke-width="0.3"/>
<path d="M801 302.5C798.6 302.5 795.5 287.5 799.5 287C803 286.562 804 291.5 804 293.5C804 297 803.266 302.5 801 302.5Z" fill="#297485" stroke="black" stroke-width="0.3"/>
<path d="M661 406C662.2 403.2 662 398.5 662.5 396C663.5 392 671.36 390.792 674 390C678 388.8 677.375 388 678 385.5C678.4 383.9 678.5 383 679 382C682.6 376.8 684 377 684.5 380L685.5 386.5C686 389 687 396 683 404C682.75 404.5 678.5 417.833 676.5 424.5C675 428 673.5 433.5 666.5 434C662.5 434 659.5 429.5 659 425.5C658.312 420 659.8 408.8 661 406Z" fill="#297485" stroke="black" stroke-width="0.3"/>
<path d="M962 115C958 105 951 102.833 948 103C947 103 948 104 948.5 104.5C950 106 957.667 114.5 960 121.5C960.8 123.9 961 126.5 966 131.5C970.5 134 971.5 129.6 969.5 128C967 126 964.5 122.5 962 115Z" fill="#297485" stroke="black" stroke-width="0.3"/>
<path d="M973 147.5C973 144.3 973 141 972 139C971.2 137.4 974.833 138.333 976.5 139C977.5 139.4 981.5 140 985.5 142C987.5 143 989.473 145.582 988.5 148.5C988 150 986 150.5 983 150.5C980.6 150.5 980 151.833 980 152.5C980 153.7 981 156 983.5 158C984 158.5 989 162 989.5 166.5C989.5 168.5 989.5 172.5 989 175C988 180.5 987.295 183.103 983.5 185C981.5 186 977.5 185.5 975 186.5C972.5 187.5 968.5 191.5 964.5 194C961.7 195.6 959 194 958.5 192C958.1 190.8 958 186.5 959 184.5C959.4 183.3 964 180 968 178.5C971.561 176.917 974.205 173.28 975.459 171.556L975.5 171.5C979.5 166 977.1 160 975.5 156C974.7 154 973 152 973 147.5Z" fill="#297485" stroke="black" stroke-width="0.3"/>
<path d="M487.5 127.5L494.5 132C496.5 133.167 499.5 137.2 495.5 144C494 145.5 494 146.5 484.5 144C481.5 143.5 475 143 472.5 146C469.753 149.297 468 157.5 469.5 164C470 166.5 472.557 170.519 474 171C475.5 171.5 479.876 170.102 481 170C482.833 169.833 485.6 171 482 177C480.167 179.667 474.9 186.5 468.5 192.5L447 217.5C444.5 220.667 439.1 228.2 437.5 233C435.5 239 439 249.5 439.5 250.5C441.802 255.104 441.844 262.5 442.5 266C444 274 451.318 287.5 455 292C458 295.667 467.1 303.7 479.5 306.5C491.5 308 504 302.833 506.5 302C509.5 301 514.9 299.6 522.5 302C526.667 303.5 535.2 309.1 536 319.5C536.8 329.9 540 338.167 541.5 341C544 345 551.6 352.8 552 356C553 361 553.1 374.4 549.5 386C547.833 389.833 545.4 399.5 549 407.5C552.6 415.5 555.588 418 556 421.5C556.326 424.267 556.5 430 556.5 432C556.5 435 558.8 440.6 560 443C561.333 445.333 564 451.9 564 459.5C564 460 564.887 466.183 567 469C569.113 471.818 574.4 474.1 578 472.5C581.5 471.167 587.5 469 590 468.5C591.096 468.281 601.167 465.833 606 464.5C613.25 462.5 620.5 452.375 625 444.5C629 437.5 631.289 427.821 631.5 425.5C632 420 630.5 411 630.5 410.5C630.5 406.5 635.5 406 639 404.5C647.5 400.5 652.167 391 652.5 387C653 381 650.6 369.5 650.5 369C649.2 362.5 648.5 356 648.5 354C648.5 345 654.642 333.858 658 330.5C661.5 327 664.5 325 670.5 321C679.5 314 685.357 302.5 686.5 300.5C690.5 293.5 693.7 281.8 692.5 279C692 278 686.9 277.9 674.5 281.5C668 282.5 665.613 281.129 664 280C659 276.5 652 267.5 652 267.5C646.5 261 642.317 251.694 641 249.5C638 244.5 626.9 218.8 626.5 216C625.667 213 625.4 208.2 631 213C632.2 214.2 637.167 220.167 639.5 223C647.5 233.5 652.5 245.5 657 259C660.945 270.835 664 279 683 265.5C690 260.526 706.1 252.7 708.5 251.5C713.5 249 720.5 241.5 715 231C709 223 705.5 221.5 701.5 222C699.5 222.25 694.5 225.75 694 226C692 227 691.3 225.7 690.5 224.5C688.5 221.5 680.5 216 678.5 213.5C676.701 211.252 674.4 205.8 676 203C677.5 201.5 684.1 206.4 686.5 208C692.5 212 701 213.773 703.5 214C709 214.5 717.3 218.3 720.5 219.5C724.737 221.089 734 220.5 736 220.5C739.849 220.5 743.1 222.2 745.5 225C749 229.5 756.8 235.7 758 236.5C760.5 238.333 765.231 242.278 767.5 245C770 248 771.457 251.023 772 252C774.5 256.5 777.6 264.7 778 265.5L788.5 286.5C790 289 790.6 295 791 295C795 292 796.536 286.047 797 284.5C798.5 279.5 800.352 269 801 266.5C802.167 262 804.6 252.8 805 252C806.5 247 812 240 816.5 238.5C820.856 237.048 829.833 236.8 833.5 239C836 240.5 838.8 245.8 840 249C841.312 252.5 843.6 256.6 844 257C845.5 259.5 852.7 258.5 853.5 258.5C857.264 258.5 859 265.5 860 269L865 288C869.5 301.5 885.7 316.6 886.5 317C887.667 317.667 889.5 317.5 886.5 311C885.07 307.903 884 306 878 298.5C873.5 292 872 287 871 284.5C869.5 279.5 867.8 275.3 871 274.5C874 274 877.4 276.2 879 279C880.5 282 885 290.5 887.5 290.5C891 291 899 282.5 900 281.5C904.5 276.5 905.5 271.7 905.5 270.5C905.5 264.5 899.2 257.6 898 256L890.5 247C887.5 243.5 889.729 239.88 890 239.5C892.365 236.189 899 237.5 898 240C897.333 241.5 896.5 244.735 896.5 246C896.5 248.5 898.5 250 901 250C904.5 250 907.1 243.9 907.5 241.5C907.833 239.5 909.1 235.3 911.5 234.5C916 233 920 231 925.5 227C929.878 223.816 935.2 216.1 936 214.5C937.5 211.5 938.381 204.642 937.5 202C936.5 199 932.243 191.836 931.5 191C927.5 186.5 923 182.5 922.5 178C921 167 917 169 914 167.5C905.778 163.389 912.5 156.5 916 156.5C920.5 157 921.4 162.3 923 163.5C924 164.5 926.5 163.8 928.5 163C931 162 933.1 161.5 935.5 163.5C938.5 165.5 941 172.5 942.5 176C943.243 177.733 944.5 180 947 180C949.5 179.5 951.7 177.1 950.5 173.5C948.5 168 944.167 165 941.5 163C939.5 161.5 935.8 158.3 939 155.5C942.667 152.333 950 146 950 146C953.5 143 955.5 139 956 137C957.685 130.261 956.9 122.6 956.5 121C955.25 116 950.5 110.929 948.5 109.5C945 107 937.5 102 936.5 101.5L926 96.5C920.5 94 921.062 89 922 86.5C923.5 82.5 927.873 79.8254 929.5 79.5C934.5 78.5 939 80.7 941 81.5C943.5 82.5 948.2 84 951 84C957 84 961 79.5 963.5 77.5C966.5 75 970.7 73.4 973.5 73C981 72 979.9 77.4 979.5 81C979 84.6667 978 92.1 978 92.5C978 97.5 981.5 99.8 983.5 101C985.695 102.317 989 102.5 991 106C993.459 110.304 995.5 112 999 113C1003.5 114 1004.41 106.748 1004 103.5C1003.39 98.6571 1000.5 94.3 998.5 91.5L991.5 82.5C989.5 79.5 991.9 77 995.5 77C999.167 77 1006.61 76.6109 1007.5 76.5C1011.5 76 1014.5 73 1015 69.5C1015.5 65.5 1013.84 63.3549 1010.5 61.5C1009.52 60.9571 1007.5 60.9 1007.5 60.5C1007.5 59 1008.33 57.5 1009.5 56.5C1013 53.5 1015.1 49.7 1015.5 48.5C1017 44 1014 41.6364 1011 40C1005.5 37 1001.9 38.1 999.5 38.5C995.242 39.2097 989.5 42.2 987.5 43C982 45 976.4 43.3 974 42.5C970.117 41.2056 963 41.1 957 41.5C952.833 41.8333 944.391 42.081 943.5 42C938 41.5 932.5 38.1667 927.5 36.5C922.606 34.8688 917.1 35.6 913.5 36C911.278 36.2469 908 36.8 906 36C902 34.5 892.66 32.145 887.5 31.5C879.5 30.5 869.5 32.5 864.5 34C853.206 37.3882 844.5 35 842.5 34.5C838 33.5 832.791 29.6938 832.5 29.5C831 28.5 829.2 28.5 826 28.5C812.333 28.5 786 29 785 29C779.5 29 781 26 780.5 24.5C780 23 778.462 22.2429 774.5 21.5C766.5 20 762.218 17.1092 761 16.5C758 15 750.7 14 749.5 14C743 13.5 740.4 16.1 738 18.5C735.778 20.7221 721.5 23.75 720.5 24C714.5 25.5 701 29.5 699 30.5C695.5 32.25 697 35.5 698.5 37.5L704 44.5C706 47.5 704.5 54 702 54.5C696.565 55.587 695.7 52.3 694.5 47.5C692.5 41 687.328 32.328 686 31C682.5 27.5 679.5 30.8 679.5 34C679.5 38 679.964 41.2147 680 41.5C680.5 45.5 680 47.1 676 45.5C673 44.5 668.5 43.2273 666 43C660.5 42.5 653 43 647.5 44C639 45.5455 624 51.3 622 52.5C617 55 609.2 60.7 608 61.5C605.75 63 604.215 62.7382 602 62C597.5 60.5 600 57.5 605 54.5C613.5 50.5 607.4 46.6 603 47C599.833 47.1667 593.382 47.147 592.5 47C589.5 46.5 587 42.5 586 40.5C583.5 36.5 578 35.5 574 35.5C566 35.5 558 38.5 555.5 39.5C548 42.5 537.016 50.3118 536.5 51C533.5 55 533.4 59.4 533 61C532.333 63.5 529.6 68.8 524 70C521.667 70.5 517 71.5 515 74.5C512 79 515.3 84.7 516.5 85.5C520.5 88.5 525 86.2 527 85C528.667 83.8333 532.7 81.5 535.5 81.5C537.907 81.5 540.5 82.5 540.5 84.5C540.5 88.5 542 93.1667 542.5 94C544 96.5 549.5 95 552 93C556.5 89.5 558.5 83.5 558.5 82C558.5 80 557.8 78.1 557 76.5C554.5 72.5 555.2 68.7 556 67.5C558 63.5 562.6 58.3 565 57.5C570.5 55.6667 572.2 59.2 571 62C569.5 65.5 565.8 69.7 565 70.5C562 74 565.8 77.5 569 77.5H583C587 77.5 591 81.5 583 81.5H575.5C569 82 567.4 87.5 567 89.5C566.068 94.1589 565.1 100.5 561.5 100.5H554.5C551.5 100.5 547.9 102.5 545.5 102.5H540C536 102 536.236 98.1486 536 96.5C535.5 93 534 89.5 534 89.5C533.5 88.5 532.3 87.6 531.5 90L529 98.5C528 102 524.4 103.2 522 104C520 104.5 518 105 515.5 107.5L501.5 121.5C500 123 498.75 122.5 497.5 121.5C496.667 120.833 494.5 120.1 492.5 122.5C491.5 123.5 490.5 124 488.5 124.5C487.333 124.833 485.5 125.9 487.5 127.5Z" fill="#297485" stroke="black" stroke-width="0.3"/>
<path d="M473 114C468.6 112.4 474.5 101 477.5 98.5C480 97 483.5 99.5 483.5 101.5C483.1 103.1 481.167 104.5 480.5 106.5C479.5 109.5 477.4 115.6 473 114Z" fill="#297485" stroke="black" stroke-width="0.3"/>
<path d="M489.5 99.5C484.3 97.9 483.5 95 484 92C484.5 89 488.5 83.5 490.5 83.5C492.5 83.5 497 86 497 89.5C497 92.5 497 100 499 101.5C503.5 103.5 508.5 110 505.5 112C503.1 113.6 498.833 114.667 497 115C492.2 115.8 488.581 118.187 486.5 120.5C482 125.5 481.167 123.833 482 122C484.5 117.5 487 115.5 487 113C487 110.5 485.9 109.4 487.5 107C492.5 101 490.5 100 489.5 99.5Z" fill="#297485" stroke="black" stroke-width="0.3"/>
<path d="M437 59C438.6 55.4 451.667 54.8333 458 55C461 55.0206 466 56.5 465.5 60.5C463.9 66.5 456.792 66.9665 450.5 66.5C444.485 66.0541 435.4 62.6 437 59Z" fill="#297485" stroke="black" stroke-width="0.3"/>
<path d="M236.5 248.5C237.3 246.1 241.167 244.5 243 244C245.5 243.5 254 246 252.5 249C251.3 251.4 246.333 252 244 252C241.167 251.833 235.7 250.9 236.5 248.5Z" fill="#297485" stroke="black" stroke-width="0.3"/>
<path d="M339 1C337 1 320 2 315 2.00002C297.4 1.60002 288.333 4.83335 286 6.50001C280.5 10.5 283.5 16 289.5 17C295.5 18 307 17 307 17C325 17 332.5 17 339.5 18C350.5 19.5 356.5 27.5 357.5 34.5C358.3 38.1 358 50.5 356.5 56.5C355.7 59.7 356 69.5 357 73.5C358 76 360.9 82.9 368.5 82.5C376.1 82.1 382.667 75.3333 385 72C386.333 69.6667 389.5 63.9 391.5 59.5C393.5 55.1 400 54 403 54C405 54 416.5 55 419 54.5C428.015 52.697 443.5 42 446.5 38.5C449.5 35 450.5 31.5 451 29C453 18.2 455.833 13.8333 457 13C457 13 468.5 6 469.5 4.5C470.3 3.3 464.5 3.5 464.5 3.5C464.5 3.5 461.5 4 457 3C452.5 2 442.167 1.33333 437.5 1.5C430.5 1.66667 416 2.5 413.5 2.5H380.5C380.1 2.5 368.667 2.16667 363 2C357 1.6 345.193 1 339 1Z" fill="#297485" stroke="black" stroke-width="0.3"/>
<path d="M233 240C224.2 231.2 204.5 228 204.5 230C204.5 232 217.5 243 221.5 244.5C225.5 246 232.5 243.5 233 242.5C233.167 242 233.4 240.8 233 240Z" fill="#297485" stroke="black" stroke-width="0.3"/>
<path d="M348 423.5C358.8 420.7 361.5 408 361.5 402L362 385.5C362 382.5 363.739 379.641 364.5 378.5C365.5 377 372 368.667 375.5 364.5C378.7 359.7 378.5 353.5 378 351C377.2 344.6 365 338 359.5 338C353.1 337.2 340.73 336.263 336.5 334.5C331.7 332.5 322.5 326 322 323C320.667 319.167 317.8 310.9 317 308.5C312.6 298.9 303.5 295.167 299.5 294.5C295.5 294 286.526 294.5 286 293.5C281 284 274 279.167 270.5 277.5C256.5 271.5 244 273 243 273.5C240.5 274 232 280 228.5 284C225.875 287 220.8 293.1 220 289.5C219.2 285.9 217 285.333 216 285.5C205.2 287.9 201.167 287.167 200.5 286.5C200 287 194 279 194 274.5C194 269.5 195 267 196.5 262.5C198 258 194 258.5 192.5 258.5C181.7 260.1 181.333 257.167 182.5 255.5L186.5 249C188.333 246 190.8 239.4 186 237C181.2 234.6 176 239 174 241.5C168 249.1 161.5 248 159 246.5C157 245.3 153.1 241.9 151.5 231.5C149.5 218.5 155.5 211 162 204.5C168.5 198 177 196.5 187 198.5C197 200.5 198 210 202.5 216.5C206.1 221.7 212.333 222.333 215 222C220.5 221 220.5 214.5 220.5 214C220.5 213.293 215.5 205 214 201C212.8 197.8 216.167 195.333 218 194.5C226.4 191.3 232.5 186 234.5 184C240 178.5 246.323 170.265 247.5 168.5C248.5 167 270.167 148.167 281 139C286.6 136.6 289.333 138 290 139C290.667 140 291.5 142.5 293 143C295.227 143.742 302.333 139.667 303 138C303.4 137 303.7 133.4 296.5 129C289.3 124.6 289.167 120.5 290 119C290.8 117.4 293.5 116.5 298 115.5C302.5 114.5 311.7 114.2 314.5 115C317.3 115.8 316.667 118.333 316 119.5C314.8 122.3 314.5 123.5 315 126.5C315.333 127.5 316.7 129.8 319.5 131C331.5 134.2 334.167 129.333 334 126.5C333.5 122 331 119 329 116.5C322.5 110 320 97.5 318.5 90C316.9 78.4 311.091 77.6516 309.5 78.5C302 82.5 299 81 298 79.5C296.333 75.8333 290.5 69.1 280.5 71.5C270.5 73.9 269.333 80.1667 270 83C270.667 87.1667 272 92.5 268 96.5C266 98.5 257.333 105.833 254 110C252 111.6 251.955 111.864 250.5 111.5C248.5 111 248.2 101 245 97C243.4 95 236 93.5 229 91.5C221 89 219.5 84 220 79.5C222.8 66.7 233.5 64.1667 238.5 64.5C244.5 64.5 248.5 70 259.5 69.5C265.993 69.2048 267.5 66.5 268.5 61.5C269.5 56.5 274 55 277 54C283.8 52 286 50 286 50C286 50 291.1 40.9 295.5 42.5C303.1 47.7 300.667 51.6667 298.5 53C294.333 54.8333 286.5 59 288.5 61C290.5 63 294 65.8333 295.5 67C301 70.8333 314.1 75.8 322.5 65C331.7 54.6 323.333 44.3333 318 40.5C311 36.3333 294.8 28.6 286 31C275 34 268 50.5 264 48.5C260 46.5 259 44.5 261 41.5C272.2 28.7 271.333 24.5 269.5 24C268.167 23.8333 264.5 24.7 260.5 29.5C256.5 34.3 257.167 31.1667 258 29L259 26.5C260.167 24 261.5 19 257.5 19C250.7 20.2 246 27 244.5 30.5C243 34 244 39.9 246 43.5C248 47.1 243.5 48.5 243.5 48.5C243.5 48.5 225.5 51 220.5 49C215.5 47 218.333 45 219.5 44.5C220.667 44 224.5 45 227 44C229.5 43 233.9 38.3 231.5 35.5C228.5 32 226.5 32 225 32C223.5 32 220 34.5 219.5 34.5C219 34.5 219 33 218 32.5C217 32 212.5 33 210 31.5C207.5 30 205.9 28.9 199.5 26.5C196.667 25.8333 189.7 25.7 186.5 28.5C183.667 31 179.5 36.2 185.5 37C191.5 37.8 192.667 39.6667 192.5 40.5C192.5 42.6667 188.5 49.5 182 45.5C175.5 41.5 167 39.5 162 41C157 42.5 153.1 44 147.5 46C140.5 48.5 138 46 137.5 45.5C131.5 35.5 104 34.6667 91 35.5C88.1667 35.6667 80.2 36.9 71 40.5C59.5 45 58 47.5 57.5 50C57.1 52 54.3333 53.5 53 54C51.6667 54.5 47 54.5 47 54.5C44.6667 54.3333 39.8 54.8 39 58C38.2 61.2 35.6667 63.3333 34.5 64C29.6667 65.5 20.6 69.8 23 75C26 81.5 24 85 23.5 85.5C23.1 85.9 11 90.5 6 92.5C0.999981 94.5 0.5 96.5 0.5 96.5C0.5 96.5 0.5 99 2.5 99.5C4.5 100 16 97 22.5 94.5C29 92 31 92 31.5 92C32 92 33.5 94 34.5 94.5C39.3 94.9 43.8333 91.6667 45.5 90C46.8333 88.5 50.9 84.8 56.5 82C62.1 79.2 69.5 77.1667 72.5 76.5C75.1667 76 81.7 75.5 86.5 77.5C91.3 79.5 94.8333 84.6667 96 87C97.1667 89.3333 99.4 95.3 99 100.5C98.6 105.7 96.8333 113.333 96 116.5C95.1667 119.667 89 131.5 89 131.5L81 148.5C80.1667 150.667 77.6901 155.609 77 160.5C76.207 166.12 76.0624 169.665 78 175C79.498 179.124 82.1667 181.667 84 184.5C84.5 185.333 85.3765 186.554 86 188C88.0122 192.665 85.4583 196.027 86.5 201C87.5781 206.146 88.8193 208.977 91.5 213.5C95.1635 219.681 102 225.5 104 227C106 228.5 106.5 228 106.5 228C106.5 228 106.333 225.667 106 224.5C106 224.5 103.56 218.101 102 214C100.044 208.859 97.5 202.443 97 200.832C96.5 199.221 95.8 195.2 97 192C98.2 188.8 99.8334 190.333 100.5 191.5L102 194.5L109.5 212L115.5 227C116.167 228.833 118.1 233.1 120.5 235.5C122.9 237.9 122.5 237 123.5 238C124.5 239 123 241.5 126 247.5C128.4 252.3 136 256.833 139.5 258.5C145 261 151.5 262 156 262.5C160.5 263 163.034 262.674 167 264.5C172.518 267.041 173.663 271.246 178 275.5C182.831 280.238 186.5 282.5 190.5 287.5C194.5 292.5 195.845 295.505 201 295.5C203.226 295.498 206.5 294 206.5 294C206.5 294 210 292.5 211.5 292.5C212.7 292.5 213.667 295.5 214 297C214.667 299.667 216.1 305.5 216.5 307.5C216.9 309.5 216 311.333 215.5 312C215.5 312.4 211.18 315.973 209 319C206.194 322.898 204.833 326.833 203.5 330C203 331.167 201.9 334.4 201.5 338C201.1 341.6 201.667 345.833 202 347.5C204 355 210 358.5 211.5 360.5C213 362.5 213.5 368 218.5 376.5C222.5 383.3 227.167 387.667 229 389C245 399 245 405 245.5 405.5C246 406 247.535 416.112 248 423C248.566 431.379 247.5 444.5 247.5 444.5C247.5 444.5 247.5 446 248 447.5C248.5 449 251 457.5 251 463.5C251 469.5 249.586 473.225 249.5 479.5C249.439 483.995 250 491 250 491L255 517C255 517 257.667 528.333 258.5 531C259.7 534.6 270 544.5 275 549C282 555 287.5 555.5 287.5 555.5C287.5 555.5 291.504 555.964 294 555.5C296.247 555.083 299 554 299.5 553.5C299.9 553.1 299.333 552 299 551.5C298.333 550.667 295.8 548 291 544C286.2 540 285.601 540.172 284 536.5C282.281 532.558 282.171 527.5 282.5 525.5C282.829 523.5 285.5 509 289 501.5C292.5 494 294.667 492.333 297 491C305.8 487.4 308 484.5 308 483.5V480.5C308 479 308 470.5 309.5 470.5C317.1 470.5 322 462.833 323.5 459C324.833 455.167 328 445.9 330 439.5C332.5 431.5 336 427.5 348 423.5Z" fill="#297485" stroke="black" stroke-width="0.3"/>
<path d="M683.5 159C685.9 162.6 686 162.5 686 166.5C686 168.9 685.5 171 681 170.5C678.5 170 675.5 167.5 673.5 165.5C672.3 164.3 670 162 670 157C670 155 669 152.5 668 150.5C666.75 148 663.5 145.5 662.5 144C660.5 139.5 664.167 134.667 666 133C668 131 671.5 131.5 673 132C676.18 133.06 677.5 135.212 677.5 136.5C677.5 136.9 675.167 138.333 674 139C671.6 140.6 671.117 142.146 673 144.5L683.5 159ZM683.5 159C680.833 155 674.6 146.5 673 144.5L683.5 159ZM683.5 159L673 144.5L683.5 159Z" fill="#0B2040"/>
<path d="M683.5 159L673 144.5M683.5 159C685.9 162.6 686 162.5 686 166.5C686 168.9 685.5 171 681 170.5C678.5 170 675.5 167.5 673.5 165.5C672.3 164.3 670 162 670 157C670 155 669 152.5 668 150.5C666.75 148 663.5 145.5 662.5 144C660.5 139.5 664.167 134.667 666 133C668 131 671.5 131.5 673 132C676.18 133.06 677.5 135.212 677.5 136.5C677.5 136.9 675.167 138.333 674 139C671.6 140.6 671.117 142.146 673 144.5L683.5 159ZM683.5 159C680.833 155 674.6 146.5 673 144.5L683.5 159Z" stroke="black" stroke-width="0.3"/>
<path d="M605 133C602 136.167 597.3 144.5 602.5 152.5C604.5 154.5 614.015 150.621 614.5 150.5C618.5 149.5 623.5 151 625.5 152.5C634 157 639.1 155 641.5 153L644.5 150.5C644.5 150 639 147.5 638 147C636.5 146.25 632.138 141.683 631 141C628.5 139.5 625.7 139.2 622.5 140C618.702 140.95 617.1 140.1 615.5 138.5C614.333 137.333 611.6 134.7 610 133.5C608 132 606.5 131.5 605 133Z" fill="#0B2040" stroke="black" stroke-width="0.3"/>
<path d="M489.5 179C492 179.167 499.4 178.8 509 176C518.6 173.2 527 172.5 530 172.5C533.833 172.333 541.478 172.773 542.5 175.5C544 179.5 540 182 540 183.5C540 186 543.3 186.6 544.5 187C553.773 190.091 568.2 198 569 198C571.5 199 576.5 199.5 576 196C575.5 192.5 577.5 185.227 585 190C590.5 193.5 602 196.5 605 196.5C613.5 197 622 195.6 624 194C626.5 192.5 627 187.9 627 185.5V175C627 174 606.8 174.5 606 174.5C603 174.5 601.7 172.5 600.5 170.5C599 167.5 595.456 161.54 594 160.5C590.5 158 585 158.5 584 162.5L582.5 171.5C582.167 173.5 580.875 174.5 579 172C576.6 168.8 572 159.667 570 155.5C567.36 150 563.5 147 560.5 145C557.5 143 553 140.9 551 140.5C549.167 140.167 546.5 140 549 143C551.535 146.042 558.833 152.167 562 155C565 158 568.3 163.3 557.5 160.5C555.5 160 548.5 157 545.5 152.5C543.1 148.9 539.833 145 538.5 143.5C536.722 141.5 533.7 140.1 528.5 142.5C522.748 145.155 514.2 153.3 513 154.5C510.5 156.5 508.4 156.5 506 158.5C502 161.833 501.15 165.85 499.5 167.5C497.5 169.5 495.9 169.7 493.5 170.5C492.333 170.667 489.9 171.6 489.5 174C489 177 489 178.5 489.5 179Z" fill="#0B2040" stroke="black" stroke-width="0.3"/>
</svg>
