<svg width="31" height="31" viewBox="0 0 31 31" fill="none" xmlns="http://www.w3.org/2000/svg">
<path d="M29.5377 24.299L18.4532 2.90034C17.8368 1.71046 16.7328 1 15.5 1C14.2672 1 13.1632 1.71046 12.5468 2.90034L1.46231 24.2989C0.845895 25.4889 0.845895 26.9097 1.46231 28.0997C2.07873 29.2896 3.18265 30 4.41549 30H26.5845C27.8172 30 28.9212 29.2895 29.5377 28.0997C30.1541 26.9097 30.1541 25.4889 29.5377 24.299ZM28.0663 27.1529C27.757 27.75 27.203 28.1064 26.5845 28.1064H4.41549C3.79686 28.1064 3.24292 27.75 2.93366 27.1529C2.62441 26.5558 2.62441 25.843 2.93366 25.2459L14.0183 3.84722C14.3275 3.25014 14.8815 2.89371 15.5 2.89371C16.1185 2.89371 16.6725 3.25014 16.9818 3.84722L28.0663 25.2459C28.3755 25.843 28.3755 26.5558 28.0663 27.1529Z" fill="#D30202"/>
<path d="M16.3494 10.4502H14.6504V19.9186H16.3494V10.4502Z" fill="#D30202"/>
<path d="M15.5 21.8124C14.8754 21.8124 14.3673 22.3787 14.3673 23.0748C14.3673 23.771 14.8754 24.3373 15.5 24.3373C16.1245 24.3373 16.6327 23.771 16.6327 23.0748C16.6327 22.3787 16.1246 21.8124 15.5 21.8124Z" fill="#D30202"/>
<path d="M29.5377 24.299L18.4532 2.90034C17.8368 1.71046 16.7328 1 15.5 1C14.2672 1 13.1632 1.71046 12.5468 2.90034L1.46231 24.2989C0.845895 25.4889 0.845895 26.9097 1.46231 28.0997C2.07873 29.2896 3.18265 30 4.41549 30H26.5845C27.8172 30 28.9212 29.2895 29.5377 28.0997C30.1541 26.9097 30.1541 25.4889 29.5377 24.299ZM28.0663 27.1529C27.757 27.75 27.203 28.1064 26.5845 28.1064H4.41549C3.79686 28.1064 3.24292 27.75 2.93366 27.1529C2.62441 26.5558 2.62441 25.843 2.93366 25.2459L14.0183 3.84722C14.3275 3.25014 14.8815 2.89371 15.5 2.89371C16.1185 2.89371 16.6725 3.25014 16.9818 3.84722L28.0663 25.2459C28.3755 25.843 28.3755 26.5558 28.0663 27.1529Z" stroke="#D30202" stroke-width="0.8"/>
<path d="M16.3494 10.4502H14.6504V19.9186H16.3494V10.4502Z" stroke="#D30202" stroke-width="0.8"/>
<path d="M15.5 21.8124C14.8754 21.8124 14.3673 22.3787 14.3673 23.0748C14.3673 23.771 14.8754 24.3373 15.5 24.3373C16.1245 24.3373 16.6327 23.771 16.6327 23.0748C16.6327 22.3787 16.1246 21.8124 15.5 21.8124Z" stroke="#D30202" stroke-width="0.8"/>
</svg>
