<svg width="27" height="30" viewBox="0 0 27 30" fill="none" xmlns="http://www.w3.org/2000/svg">
<mask id="path-1-outside-1" maskUnits="userSpaceOnUse" x="0" y="0" width="27" height="30" fill="white">
<rect fill="white" width="27" height="30"/>
<path fill-rule="evenodd" clip-rule="evenodd" d="M20.2674 23.8C23.7925 21.6125 26.1339 17.75 26.1339 13.35C26.1339 6.52928 20.5075 1 13.5669 1C6.62641 1 1 6.52928 1 13.35C1 17.75 3.34136 21.6125 6.86647 23.8H6.71451L13.5669 29.5L20.4194 23.8H20.2674Z"/>
</mask>
<path fill-rule="evenodd" clip-rule="evenodd" d="M20.2674 23.8C23.7925 21.6125 26.1339 17.75 26.1339 13.35C26.1339 6.52928 20.5075 1 13.5669 1C6.62641 1 1 6.52928 1 13.35C1 17.75 3.34136 21.6125 6.86647 23.8H6.71451L13.5669 29.5L20.4194 23.8H20.2674Z" fill="#FFE872"/>
<path d="M20.2674 23.8L20.1356 23.5876L19.3904 24.05H20.2674V23.8ZM6.86647 23.8V24.05H7.74347L6.99828 23.5876L6.86647 23.8ZM6.71451 23.8V23.55H6.02303L6.55464 23.9922L6.71451 23.8ZM13.5669 29.5L13.4071 29.6922L13.5669 29.8252L13.7268 29.6922L13.5669 29.5ZM20.4194 23.8L20.5793 23.9922L21.1109 23.55H20.4194V23.8ZM25.8839 13.35C25.8839 17.6586 23.5914 21.443 20.1356 23.5876L20.3992 24.0124C23.9935 21.782 26.3839 17.8413 26.3839 13.35H25.8839ZM13.5669 1.25C20.3735 1.25 25.8839 6.67144 25.8839 13.35H26.3839C26.3839 6.38712 20.6414 0.75 13.5669 0.75V1.25ZM1.25 13.35C1.25 6.67144 6.76035 1.25 13.5669 1.25V0.75C6.49246 0.75 0.75 6.38712 0.75 13.35H1.25ZM6.99828 23.5876C3.54241 21.443 1.25 17.6586 1.25 13.35H0.75C0.75 17.8413 3.14031 21.782 6.73465 24.0124L6.99828 23.5876ZM6.86647 23.55H6.71451V24.05H6.86647V23.55ZM6.55464 23.9922L13.4071 29.6922L13.7268 29.3078L6.87439 23.6078L6.55464 23.9922ZM13.7268 29.6922L20.5793 23.9922L20.2595 23.6078L13.4071 29.3078L13.7268 29.6922ZM20.4194 23.55H20.2674V24.05H20.4194V23.55Z" fill="white" mask="url(#path-1-outside-1)"/>
<path d="M23.0472 13.75C23.0472 19.1348 18.7699 23.5 13.4934 23.5C8.21702 23.5 3.93964 19.1348 3.93964 13.75C3.93964 8.36522 8.21702 4 13.4934 4C18.7699 4 23.0472 8.36522 23.0472 13.75Z" fill="#FFE872"/>
<path d="M18.9095 20.0017C19.0104 21.1017 18.1046 22 17 22C16.0491 22 14.8296 22 13.5 22C12.1704 22 10.9509 22 9.99997 22C8.8954 22 7.9896 21.1017 8.09053 20.0017C8.56044 14.8806 10.8036 11 13.5 11C16.1964 11 18.4396 14.8806 18.9095 20.0017Z" fill="#727272"/>
<ellipse cx="13.5" cy="9" rx="4.5" ry="4" fill="#C7A585"/>
</svg>
