<svg width="18" height="18" viewBox="0 0 18 18" fill="none" xmlns="http://www.w3.org/2000/svg">
<mask id="path-1-inside-1" fill="white">
<path fill-rule="evenodd" clip-rule="evenodd" d="M7.47948 -3.56194e-06L8.19168 4.47623L8.43148 4.98129L10.5723 1.46083L10.2946 5.60458L12.5605 4.36679L14.5005 2.73369L13.5325 3.8358L13.8582 3.6579L11.6054 7.10351L15.6369 7.25223L12.0803 9.04236L16.8023 10.09L13.2307 9.86166L14.0322 10.3784L17.6146 11.0427L15.0773 11.0522L15.4318 11.2807L12.3593 11.0624L11.4439 11.0658L13.298 14.6639L10.975 13.0537L12.6515 16.5296L9.94431 12.5514L9.80707 16.4953L8.03535 12.7637L5.89451 16.2842L5.9473 15.4965L5.17377 17.2032L5.89953 14.6659L3.18724 17.9696L6.13715 12.6642L6.17227 12.1404L2.60866 14.0871L4.86146 10.6415L4.00364 10.6099L-4.29543e-06 11.6036L2.50179 10.5545L0.829954 10.4928L4.45417 8.66857L1.035 6.4643L4.47411 6.70869L1.02613 3.94748L4.71092 6.07375L3.16886 3.0811L5.68808 4.82727L4.57466 1.64146L6.52605 5.09241L6.65976 1.2497L7.51551 3.0521L7.47948 -3.56194e-06Z"/>
</mask>
<path fill-rule="evenodd" clip-rule="evenodd" d="M7.47948 -3.56194e-06L8.19168 4.47623L8.43148 4.98129L10.5723 1.46083L10.2946 5.60458L12.5605 4.36679L14.5005 2.73369L13.5325 3.8358L13.8582 3.6579L11.6054 7.10351L15.6369 7.25223L12.0803 9.04236L16.8023 10.09L13.2307 9.86166L14.0322 10.3784L17.6146 11.0427L15.0773 11.0522L15.4318 11.2807L12.3593 11.0624L11.4439 11.0658L13.298 14.6639L10.975 13.0537L12.6515 16.5296L9.94431 12.5514L9.80707 16.4953L8.03535 12.7637L5.89451 16.2842L5.9473 15.4965L5.17377 17.2032L5.89953 14.6659L3.18724 17.9696L6.13715 12.6642L6.17227 12.1404L2.60866 14.0871L4.86146 10.6415L4.00364 10.6099L-4.29543e-06 11.6036L2.50179 10.5545L0.829954 10.4928L4.45417 8.66857L1.035 6.4643L4.47411 6.70869L1.02613 3.94748L4.71092 6.07375L3.16886 3.0811L5.68808 4.82727L4.57466 1.64146L6.52605 5.09241L6.65976 1.2497L7.51551 3.0521L7.47948 -3.56194e-06Z" fill="#1F1F1F"/>
<path d="M8.19168 4.47623L8.09292 4.49194L8.09518 4.50614L8.10134 4.51912L8.19168 4.47623ZM7.47948 -3.56194e-06L7.57824 -0.0157165L7.37949 0.00117697L7.47948 -3.56194e-06ZM8.43148 4.98129L8.34114 5.02418L8.42063 5.1916L8.51692 5.03325L8.43148 4.98129ZM10.5723 1.46083L10.6721 1.46751L10.4869 1.40887L10.5723 1.46083ZM10.2946 5.60458L10.1948 5.59789L10.1826 5.77969L10.3425 5.69234L10.2946 5.60458ZM12.5605 4.36679L12.6084 4.45454L12.6172 4.44974L12.6249 4.44329L12.5605 4.36679ZM14.5005 2.73369L14.5757 2.79969L14.4361 2.65719L14.5005 2.73369ZM13.5325 3.8358L13.4574 3.7698L13.5805 3.92356L13.5325 3.8358ZM13.8582 3.6579L13.9419 3.71263L13.8102 3.57014L13.8582 3.6579ZM11.6054 7.10351L11.5217 7.04878L11.4248 7.19691L11.6017 7.20344L11.6054 7.10351ZM15.6369 7.25223L15.6818 7.34155L15.6406 7.15229L15.6369 7.25223ZM12.0803 9.04236L12.0354 8.95304L11.7847 9.0792L12.0587 9.13999L12.0803 9.04236ZM16.8023 10.09L16.7959 10.1898L16.824 9.99241L16.8023 10.09ZM13.2307 9.86166L13.2371 9.76187L12.8533 9.73733L13.1765 9.94571L13.2307 9.86166ZM14.0322 10.3784L13.978 10.4624L13.9946 10.4731L14.014 10.4767L14.0322 10.3784ZM17.6146 11.0427L17.615 11.1427L17.6329 10.9443L17.6146 11.0427ZM15.0773 11.0522L15.077 10.9522L14.7396 10.9534L15.0232 11.1362L15.0773 11.0522ZM15.4318 11.2807L15.4247 11.3805L15.486 11.1967L15.4318 11.2807ZM12.3593 11.0624L12.3664 10.9623L12.3589 10.9624L12.3593 11.0624ZM11.4439 11.0658L11.4436 10.9658L11.2802 10.9664L11.355 11.1116L11.4439 11.0658ZM13.298 14.6639L13.241 14.7461L13.3869 14.6181L13.298 14.6639ZM10.975 13.0537L11.0319 12.9715L10.72 12.7553L10.8849 13.0972L10.975 13.0537ZM12.6515 16.5296L12.5688 16.5858L12.7416 16.4861L12.6515 16.5296ZM9.94431 12.5514L10.027 12.4951L9.855 12.2424L9.84437 12.5479L9.94431 12.5514ZM9.80707 16.4953L9.71673 16.5382L9.90701 16.4988L9.80707 16.4953ZM8.03535 12.7637L8.12569 12.7208L8.0462 12.5534L7.94991 12.7118L8.03535 12.7637ZM5.89451 16.2842L5.79473 16.2775L5.97995 16.3361L5.89451 16.2842ZM5.9473 15.4965L6.04708 15.5032L5.85622 15.4553L5.9473 15.4965ZM5.17377 17.2032L5.07763 17.1757L5.26485 17.2444L5.17377 17.2032ZM5.89953 14.6659L5.99567 14.6934L5.82224 14.6025L5.89953 14.6659ZM3.18724 17.9696L3.09984 17.921L3.26453 18.033L3.18724 17.9696ZM6.13715 12.6642L6.22455 12.7128L6.23543 12.6933L6.23693 12.6709L6.13715 12.6642ZM6.17227 12.1404L6.27204 12.1471L6.28423 11.9653L6.12433 12.0527L6.17227 12.1404ZM2.60866 14.0871L2.52496 14.0324L2.6566 14.1749L2.60866 14.0871ZM4.86146 10.6415L4.94516 10.6962L5.04201 10.5481L4.86515 10.5416L4.86146 10.6415ZM4.00364 10.6099L4.00733 10.5099L3.99324 10.5094L3.97955 10.5128L4.00364 10.6099ZM-4.29543e-06 11.6036L-0.0386773 11.5114L0.0240858 11.7007L-4.29543e-06 11.6036ZM2.50179 10.5545L2.54046 10.6467L2.50548 10.4545L2.50179 10.5545ZM0.829954 10.4928L0.784994 10.4035L0.826268 10.5927L0.829954 10.4928ZM4.45417 8.66857L4.49913 8.7579L4.65533 8.67928L4.50836 8.58453L4.45417 8.66857ZM1.035 6.4643L1.04209 6.36455L0.980819 6.54835L1.035 6.4643ZM4.47411 6.70869L4.46702 6.80844L4.78704 6.83118L4.53662 6.63063L4.47411 6.70869ZM1.02613 3.94748L1.07611 3.86086L0.963624 4.02553L1.02613 3.94748ZM4.71092 6.07375L4.66094 6.16036L4.95568 6.33044L4.79981 6.02794L4.71092 6.07375ZM3.16886 3.0811L3.22583 2.99892L3.07997 3.12691L3.16886 3.0811ZM5.68808 4.82727L5.63112 4.90945L5.884 5.08474L5.78248 4.79427L5.68808 4.82727ZM4.57466 1.64146L4.66171 1.59224L4.48026 1.67445L4.57466 1.64146ZM6.52605 5.09241L6.439 5.14163L6.61365 5.45048L6.62598 5.09588L6.52605 5.09241ZM6.65976 1.2497L6.7501 1.20681L6.55982 1.24623L6.65976 1.2497ZM7.51551 3.0521L7.42518 3.09499L7.61551 3.05092L7.51551 3.0521ZM8.29043 4.46052L7.57824 -0.0157165L7.38072 0.0157094L8.09292 4.49194L8.29043 4.46052ZM8.52181 4.9384L8.28201 4.43334L8.10134 4.51912L8.34114 5.02418L8.52181 4.9384ZM10.4869 1.40887L8.34603 4.92934L8.51692 5.03325L10.6578 1.51279L10.4869 1.40887ZM10.3943 5.61127L10.6721 1.46751L10.4725 1.45414L10.1948 5.59789L10.3943 5.61127ZM12.5125 4.27903L10.2466 5.51682L10.3425 5.69234L12.6084 4.45454L12.5125 4.27903ZM14.4361 2.65719L12.4961 4.29028L12.6249 4.44329L14.5649 2.8102L14.4361 2.65719ZM13.6076 3.90179L14.5757 2.79969L14.4254 2.6677L13.4574 3.7698L13.6076 3.90179ZM13.8102 3.57014L13.4846 3.74804L13.5805 3.92356L13.9061 3.74566L13.8102 3.57014ZM11.6891 7.15823L13.9419 3.71263L13.7745 3.60318L11.5217 7.04878L11.6891 7.15823ZM15.6406 7.15229L11.6091 7.00357L11.6017 7.20344L15.6332 7.35216L15.6406 7.15229ZM12.1253 9.13168L15.6818 7.34155L15.5919 7.1629L12.0354 8.95304L12.1253 9.13168ZM16.824 9.99241L12.102 8.94474L12.0587 9.13999L16.7806 10.1877L16.824 9.99241ZM13.2243 9.96146L16.7959 10.1898L16.8087 9.99024L13.2371 9.76187L13.2243 9.96146ZM14.0864 10.2944L13.2849 9.77762L13.1765 9.94571L13.978 10.4624L14.0864 10.2944ZM14.014 10.4767L17.5964 11.141L17.6329 10.9443L14.0504 10.2801L14.014 10.4767ZM17.6142 10.9427L15.077 10.9522L15.0777 11.1522L17.615 11.1427L17.6142 10.9427ZM15.486 11.1967L15.1315 10.9681L15.0232 11.1362L15.3776 11.3648L15.486 11.1967ZM12.3522 11.1621L15.4247 11.3805L15.4389 11.181L12.3664 10.9626L12.3522 11.1621ZM12.3589 10.9624L11.4436 10.9658L11.4443 11.1658L12.3597 11.1624L12.3589 10.9624ZM13.3869 14.6181L11.5328 11.02L11.355 11.1116L13.2091 14.7097L13.3869 14.6181ZM10.918 13.1359L13.241 14.7461L13.3549 14.5817L11.0319 12.9715L10.918 13.1359ZM12.7416 16.4861L11.065 13.0103L10.8849 13.0972L12.5614 16.573L12.7416 16.4861ZM9.86163 12.6076L12.5688 16.5858L12.7342 16.4733L10.027 12.4951L9.86163 12.6076ZM9.90701 16.4988L10.0442 12.5548L9.84437 12.5479L9.70713 16.4918L9.90701 16.4988ZM7.94502 12.8066L9.71673 16.5382L9.8974 16.4524L8.12569 12.7208L7.94502 12.8066ZM5.97995 16.3361L8.12079 12.8157L7.94991 12.7118L5.80907 16.2322L5.97995 16.3361ZM5.84753 15.4899L5.79473 16.2775L5.99429 16.2909L6.04708 15.5032L5.84753 15.4899ZM5.26485 17.2444L6.03838 15.5378L5.85622 15.4553L5.08269 17.1619L5.26485 17.2444ZM5.80339 14.6384L5.07763 17.1757L5.26992 17.2307L5.99567 14.6934L5.80339 14.6384ZM5.82224 14.6025L3.10995 17.9061L3.26453 18.033L5.97682 14.7294L5.82224 14.6025ZM3.27464 18.0182L6.22455 12.7128L6.04976 12.6157L3.09984 17.921L3.27464 18.0182ZM6.07249 12.1337L6.03738 12.6576L6.23693 12.6709L6.27204 12.1471L6.07249 12.1337ZM2.6566 14.1749L6.22021 12.2282L6.12433 12.0527L2.56072 13.9993L2.6566 14.1749ZM4.77777 10.5868L2.52496 14.0324L2.69235 14.1418L4.94516 10.6962L4.77777 10.5868ZM3.99996 10.7098L4.85778 10.7414L4.86515 10.5416L4.00733 10.5099L3.99996 10.7098ZM0.0240858 11.7007L4.02774 10.7069L3.97955 10.5128L-0.0240944 11.5065L0.0240858 11.7007ZM2.46312 10.4622L-0.0386773 11.5114L0.0386687 11.6958L2.54046 10.6467L2.46312 10.4622ZM0.826268 10.5927L2.4981 10.6544L2.50548 10.4545L0.833641 10.3928L0.826268 10.5927ZM4.40921 8.57925L0.784994 10.4035L0.874914 10.5821L4.49913 8.7579L4.40921 8.57925ZM0.980819 6.54835L4.39999 8.75262L4.50836 8.58453L1.08919 6.38026L0.980819 6.54835ZM4.4812 6.60894L1.04209 6.36455L1.02791 6.56405L4.46702 6.80844L4.4812 6.60894ZM0.963624 4.02553L4.4116 6.78675L4.53662 6.63063L1.08864 3.86942L0.963624 4.02553ZM4.7609 5.98713L1.07611 3.86086L0.976153 4.03409L4.66094 6.16036L4.7609 5.98713ZM3.07997 3.12691L4.62202 6.11955L4.79981 6.02794L3.25775 3.0353L3.07997 3.12691ZM5.74505 4.74508L3.22583 2.99892L3.11189 3.16329L5.63112 4.90945L5.74505 4.74508ZM5.78248 4.79427L4.66906 1.60847L4.48026 1.67445L5.59368 4.86026L5.78248 4.79427ZM4.48761 1.69068L6.439 5.14163L6.61309 5.04318L4.66171 1.59224L4.48761 1.69068ZM6.55982 1.24623L6.42611 5.08893L6.62598 5.09588L6.7597 1.25318L6.55982 1.24623ZM7.60585 3.00921L6.7501 1.20681L6.56942 1.29259L7.42518 3.09499L7.60585 3.00921ZM7.37949 0.00117697L7.41552 3.05328L7.61551 3.05092L7.57947 -0.0011841L7.37949 0.00117697Z" fill="white" mask="url(#path-1-inside-1)"/>
</svg>
