<svg width="17" height="15" viewBox="0 0 17 15" fill="none" xmlns="http://www.w3.org/2000/svg">
<path d="M8.25942 11.1403C8.45015 11.4998 8.96759 11.493 9.14882 11.1286L12.0181 5.35906C12.0725 5.24964 12.085 5.12409 12.0531 5.00611L11.0716 1.3697C11.0127 1.15155 10.8148 1 10.5889 1H6.82279C6.60599 1 6.41389 1.13971 6.3471 1.34596L5.16778 4.98786C5.1261 5.11658 5.13836 5.25669 5.20176 5.37621L8.25942 11.1403Z" fill="#1C24EF" stroke="white" stroke-width="0.5"/>
<path d="M6.5 8.07906C5.24266 8.07906 4.47361 8.20238 3.22095 8.07906C2.91767 8.0492 2.6124 8.06198 2.31034 8.02927C2.21341 8.01877 2.0152 7.97328 1.91954 8.02235C1.84175 8.06226 1.86815 8.25904 1.85824 8.32662C1.74133 9.12372 1.58746 9.92859 1.38059 10.7041C1.29002 11.0436 1.18174 11.3803 1.07024 11.7123C1.04291 11.7937 1 11.9123 1 12" stroke="white" stroke-width="0.75" stroke-linecap="round" stroke-linejoin="round"/>
<path d="M7.3535 9.85559C6.39514 9.9374 5.48446 10.4722 4.67394 10.9563C4.52055 11.0479 4.36886 11.1386 4.2109 11.2219C4.15414 11.2519 4.163 11.2846 4.17675 11.3396C4.23236 11.5621 4.1725 11.8407 4.11728 12.0557C4.03137 12.3901 3.94191 12.7224 3.86426 13.0589C3.8264 13.2229 3.801 13.3642 3.801 13.5321C3.801 13.6297 3.80196 13.7231 3.77823 13.818" stroke="white" stroke-width="0.75" stroke-linecap="round" stroke-linejoin="round"/>
<path d="M10 10C10.7493 10.2586 11.467 10.607 12.1649 10.9832C12.5495 11.1905 12.9262 11.4374 13.3321 11.6021C13.4476 11.6489 13.5809 11.6496 13.6061 11.7829C13.7059 12.3115 13.8194 12.8378 13.9093 13.3682C13.9234 13.4513 14.0609 13.9529 13.9679 14" stroke="white" stroke-width="0.75" stroke-linecap="round" stroke-linejoin="round"/>
<path d="M11 8.03077C11.4997 8.03077 12.2687 7.96154 12.7662 8.03077C13.3355 8.10999 13.6382 8.2764 14.2031 8.39798C14.521 8.46639 14.8424 8.53563 15.1573 8.62462C15.2131 8.64039 15.3503 8.65078 15.3806 8.72789C15.4021 8.78259 15.396 8.88613 15.4099 8.94592C15.5005 9.33412 15.5803 9.72833 15.6851 10.1107C15.7431 10.322 15.7902 10.5434 15.8927 10.7275C15.916 10.7693 16.0264 10.959 15.9942 11" stroke="white" stroke-width="0.75" stroke-linecap="round" stroke-linejoin="round"/>
</svg>
