<svg width="14" height="16" viewBox="0 0 14 16" fill="none" xmlns="http://www.w3.org/2000/svg">
<path d="M3.82931 9.2963C1.54323 5.56296 2.87682 4.11111 4.64581 4.11111C5.46226 4.11111 6.61105 4.52593 7.26421 6.18518C8.08066 8.25926 12.5711 8.25926 10.9382 11.3704C9.71352 12.9259 8.72808 13.4444 7.09512 12.4074C5.71208 11.5291 4.50968 10.3333 3.82931 9.2963Z" fill="#F11414" stroke="white" stroke-width="0.25"/>
<path d="M4.34598 8.79958C2.62499 6.17055 3.62894 5.14815 4.96065 5.14815C5.57529 5.14815 6.44011 5.44026 6.93182 6.60872C7.54646 8.06929 10.9269 8.06929 9.69765 10.2601C8.77569 11.3556 8.03384 11.7207 6.80453 10.9904C5.76336 10.3719 4.85818 9.52986 4.34598 8.79958Z" fill="#E13131" stroke="white" stroke-width="0.1"/>
<path d="M4.82003 8.61947C3.74442 6.86678 4.37188 6.18518 5.2042 6.18518C5.58835 6.18518 6.12886 6.37992 6.43618 7.15889C6.82033 8.13261 8.93312 8.13261 8.16482 9.59318C7.5886 10.3235 7.12495 10.5669 6.35662 10.08C5.70589 9.66769 5.14015 9.10632 4.82003 8.61947Z" fill="#B33636" stroke="white" stroke-width="0.1"/>
<path d="M5.64834 11.3704C5.8249 12.0185 6.07209 13.3926 5.64834 13.7037C5.3835 13.8333 4.90678 14.1704 5.11866 14.4815" stroke="white" stroke-width="0.15"/>
<path d="M3.39999 7.59933C1.79996 7.59933 1.42373 8.60808 0.999985 8.91919C0.999985 10.2391 1.64097 10.3993 1.85284 10.7104" stroke="white" stroke-width="0.15"/>
<path d="M9.73065 12.4074C9.90721 13.0556 11.2048 13.6519 10.781 13.963C10.5162 14.0926 10.9774 14.6889 11.1893 15" stroke="white" stroke-width="0.15"/>
<path d="M9.73064 5.14815C9.90721 5.7963 10.1544 7.17037 9.73064 7.48148C9.4658 7.61111 8.98909 7.94815 9.20096 8.25926" stroke="white" stroke-width="0.15"/>
<path d="M5.41435 1C5.76748 1.64815 6.26185 3.02222 5.41435 3.33333C4.88467 3.46296 3.93124 3.8 4.35499 4.11111" stroke="white" stroke-width="0.15"/>
<path d="M1.80005 3.07407C2.15317 3.72222 2.99609 5.0963 2.1486 5.40741C1.61891 5.53704 2.19276 5.87407 2.6165 6.18518" stroke="white" stroke-width="0.15"/>
<path d="M3.84118 9.2963C2.20827 8.77779 4.28046 11.0593 3.43297 11.3704C2.90328 11.5 3.82566 12.6148 4.2494 12.9259" stroke="white" stroke-width="0.15"/>
<path d="M12.5285 10.3333C13.0582 10.5494 13.3915 11.0074 12.1203 11.1111C11.3257 11.1543 11.1893 11.3704 10.7811 11.3704" stroke="white" stroke-width="0.15"/>
</svg>
