<svg width="16" height="13" viewBox="0 0 16 13" fill="none" xmlns="http://www.w3.org/2000/svg">
<path d="M12.5209 1.14227C12.7752 1.20287 13.023 1.26194 13.2794 1.28846C13.3498 1.24422 13.4146 1.17561 13.4986 1.17561C13.6142 1.17561 13.717 1.21173 13.8233 1.21788C13.9277 1.22393 14.0206 1.26401 14.1073 1.31183C14.2253 1.37692 14.3814 1.35914 14.5131 1.40813C14.651 1.45946 14.7976 1.4135 14.8986 1.55375C14.9852 1.67408 15 1.84362 15 2V3.20489C15 3.39133 14.9685 3.8959 14.716 3.9236C14.4924 3.94811 14.0802 4.06371 13.8841 3.90481C13.5822 3.66011 13.2795 3.34565 12.908 3.20489C12.1334 2.91141 11.3777 3.12034 10.5771 3.12034C10.2482 3.12034 9.9552 3.26472 9.63478 3.28944C9.32349 3.31347 9.08834 3.43112 8.85254 3.62766C8.66306 3.78559 8.83621 4.33735 8.87057 4.53426C8.91907 4.81218 9.03514 5.12555 9.03514 5.41268C9.03514 5.72161 9.07572 6.04012 9.07572 6.35686C9.07572 6.69878 8.98211 7.03242 8.88185 7.35741C8.74269 7.80846 8.44273 8.19713 8.174 8.57404C7.90168 8.95597 7.56529 9.21418 7.22945 9.52291C6.44507 10.244 5.46533 10.7444 4.53106 11.2046C3.80391 11.5627 2.95368 11.9985 2.137 11.9985C1.84543 11.9985 1.46686 12.0339 1.26684 11.7659C1.18206 11.6524 1.14935 11.5284 1.12482 11.3878C1.10437 11.2706 1.0063 11.1285 1.00083 11.0261C0.971585 10.4775 1.71884 10.1217 2.04006 9.81885C2.78175 9.11969 3.74165 8.68821 4.67308 8.34386C5.10029 8.18592 5.48796 7.91527 5.80924 7.58053C6.05546 7.32401 6.34324 7.06512 6.47877 6.72325C6.5847 6.45604 6.73437 6.1919 6.79437 5.9106C6.83547 5.71792 6.80339 5.48267 6.80339 5.28585C6.80339 4.97011 6.72223 4.68712 6.72223 4.3675C6.72223 4.14504 6.68515 3.88511 6.74252 3.66993C6.81909 3.38276 6.93642 3.13197 7.02656 2.85024C7.15584 2.44616 7.34687 1.98657 7.74568 1.80976C8.22578 1.59691 8.69029 1.48028 9.20646 1.38699C9.79618 1.28041 10.3867 1.11629 10.9783 1.02999C11.3118 0.98135 11.6586 1.0065 11.995 1.0065C12.1571 1.0065 12.3367 1.0984 12.4932 1.13568L12.5209 1.14227Z" fill="#CB841A"/>
<path d="M13.4986 1.30244C13.1528 1.29493 12.8291 1.21566 12.4932 1.13568C12.3367 1.0984 12.1571 1.0065 11.995 1.0065C11.6586 1.0065 11.3118 0.98135 10.9783 1.02999C10.3867 1.11629 9.79618 1.28041 9.20646 1.38699C8.69029 1.48028 8.22578 1.59691 7.74568 1.80976C7.34687 1.98657 7.15584 2.44616 7.02656 2.85024C6.93642 3.13197 6.81909 3.38276 6.74252 3.66994C6.68515 3.88511 6.72223 4.14504 6.72223 4.3675C6.72223 4.68712 6.80339 4.97011 6.80339 5.28585C6.80339 5.48267 6.83547 5.71792 6.79437 5.9106C6.73437 6.1919 6.5847 6.45604 6.47877 6.72325C6.34324 7.06512 6.05546 7.32401 5.80924 7.58053C5.48796 7.91527 5.10029 8.18592 4.67308 8.34386C3.74165 8.68821 2.78175 9.11969 2.04006 9.81885C1.71884 10.1217 0.971585 10.4775 1.00083 11.0261C1.0063 11.1285 1.10437 11.2706 1.12482 11.3878C1.14935 11.5284 1.18206 11.6524 1.26684 11.7659C1.46686 12.0339 1.84543 11.9985 2.137 11.9985C2.95368 11.9985 3.80391 11.5627 4.53106 11.2046C5.46533 10.7444 6.44507 10.244 7.22945 9.52291C7.56529 9.21418 7.90168 8.95597 8.174 8.57404C8.44273 8.19713 8.74269 7.80846 8.88185 7.35741C8.98211 7.03242 9.07572 6.69878 9.07572 6.35686C9.07572 6.04012 9.03514 5.72161 9.03514 5.41268C9.03514 5.12555 8.91907 4.81218 8.87057 4.53426C8.83621 4.33735 8.66306 3.78559 8.85254 3.62766C9.08834 3.43112 9.32349 3.31347 9.63478 3.28944C9.9552 3.26472 10.2482 3.12034 10.5771 3.12034C11.3777 3.12034 12.1334 2.91141 12.908 3.20489C13.2795 3.34565 13.5822 3.66011 13.8841 3.90481C14.0802 4.06371 14.4924 3.94811 14.716 3.9236C14.9685 3.8959 15 3.39133 15 3.20489C15 2.80326 15 2.40163 15 2C15 1.84362 14.9852 1.67408 14.8986 1.55375C14.7976 1.4135 14.651 1.45946 14.5131 1.40813C14.3814 1.35914 14.2253 1.37692 14.1073 1.31183C14.0206 1.26401 13.9277 1.22393 13.8233 1.21788C13.717 1.21173 13.6142 1.17561 13.4986 1.17561C13.405 1.17561 13.3354 1.26067 13.2552 1.30244" stroke="white" stroke-width="0.25" stroke-linecap="round" stroke-linejoin="round"/>
<path d="M5.38751 7.81445C5.39829 8.05701 5.55688 8.23217 5.68292 8.43024C5.77443 8.57403 5.88841 8.72048 5.99914 8.85047C6.12242 8.99519 6.28458 9.14919 6.38053 9.31231C6.46233 9.45136 6.54539 9.6012 6.63572 9.7367" stroke="white" stroke-width="0.25" stroke-linecap="round" stroke-linejoin="round"/>
<path d="M3.61505 8.88791C3.62617 9.64382 4.07445 10.2595 4.32792 10.9475C4.35982 11.034 4.41391 11.12 4.41391 11.2096" stroke="white" stroke-width="0.25" stroke-linecap="round" stroke-linejoin="round"/>
<path d="M1.89252 9.96136C1.89252 10.4294 1.99502 10.8955 2.08668 11.3538C2.10388 11.4398 2.11159 11.5188 2.19209 11.5591" stroke="white" stroke-width="0.25" stroke-linecap="round" stroke-linejoin="round"/>
<path d="M6.56079 6.46637C7.01808 6.66538 7.49758 6.91584 7.90609 7.2042C7.97939 7.25595 8.13738 7.34546 8.18347 7.42611C8.22279 7.49492 8.34224 7.54582 8.40814 7.58976" stroke="white" stroke-width="0.25" stroke-linecap="round" stroke-linejoin="round"/>
<path d="M6.78546 4.81876C7.45816 4.81876 8.11195 4.91861 8.7826 4.91861" stroke="white" stroke-width="0.25" stroke-linecap="round" stroke-linejoin="round"/>
<path d="M7.08502 2.37225C7.58974 2.48696 7.98856 2.91659 8.37761 3.23491C8.46437 3.30589 8.6721 3.41382 8.7077 3.52061" stroke="white" stroke-width="0.25" stroke-linecap="round" stroke-linejoin="round"/>
<path d="M10.0308 1.34872C10.0308 1.8062 10.1544 2.22373 10.2042 2.67183C10.2141 2.76077 10.1918 2.84406 10.2305 2.92147" stroke="white" stroke-width="0.25" stroke-linecap="round" stroke-linejoin="round"/>
<path d="M12.3275 1.24884C12.3275 1.78973 12.3275 2.33062 12.3275 2.87152" stroke="white" stroke-width="0.25" stroke-linecap="round" stroke-linejoin="round"/>
</svg>
